<mxfile host="app.diagrams.net" agent="Mozilla/5.0 (Windows NT 10.0; Win64; x64) AppleWebKit/537.36 (KHTML, like Gecko) Chrome/129.0.0.0 Safari/537.36" version="24.7.17">
  <diagram id="f106602c-feb2-e66a-4537-3a34d633f6aa" name="Page-1">
    <mxGraphModel dx="1728" dy="943" grid="1" gridSize="10" guides="1" tooltips="1" connect="0" arrows="0" fold="1" page="1" pageScale="1" pageWidth="1169" pageHeight="827" background="none" math="0" shadow="0">
      <root>
        <mxCell id="0" />
        <mxCell id="1" parent="0" />
        <mxCell id="2" value="&lt;div&gt;&lt;br&gt;&lt;/div&gt;&lt;div&gt;&lt;br&gt;&lt;/div&gt;" style="shadow=1;fontSize=14;align=left;spacingLeft=50;html=1;fillColor=#0050ef;strokeColor=#001DBC;fontColor=#ffffff;" parent="1" vertex="1">
          <mxGeometry x="10" y="10" width="1150" height="810" as="geometry" />
        </mxCell>
        <mxCell id="14" value="" style="fillColor=#F6F6F6;strokeColor=none;shadow=0;gradientColor=none;fontSize=14;align=left;spacing=10;fontColor=#717171;9E9E9E;verticalAlign=top;spacingTop=-4;fontStyle=0;spacingLeft=40;html=1;" parent="1" vertex="1">
          <mxGeometry x="407.5" y="205" width="345" height="290" as="geometry" />
        </mxCell>
        <mxCell id="L0ZQ6DjtJ8MIK-CHPv04-41" value="" style="image;aspect=fixed;html=1;points=[];align=center;fontSize=12;image=img/lib/azure2/compute/Azure_Spring_Cloud.svg;" vertex="1" parent="14">
          <mxGeometry x="124.07270168855533" y="21.08903133903134" width="95.36857142857143" height="95.36857142857143" as="geometry" />
        </mxCell>
        <mxCell id="L0ZQ6DjtJ8MIK-CHPv04-61" value="&lt;h1 style=&quot;margin-top: 0px;&quot;&gt;Spring boot - Core&lt;/h1&gt;&lt;p&gt;Lorem ipsum dolor sit amet, consectetur adipisicing elit, sed do eiusmod tempor incididunt ut labore et dolore magna aliqua.&lt;/p&gt;" style="text;html=1;whiteSpace=wrap;overflow=hidden;rounded=0;" vertex="1" parent="14">
          <mxGeometry x="16.829268292682926" y="132.57142857142858" width="319.7560975609756" height="149.14285714285714" as="geometry" />
        </mxCell>
        <mxCell id="L0ZQ6DjtJ8MIK-CHPv04-66" value="" style="shape=image;verticalLabelPosition=bottom;labelBackgroundColor=default;verticalAlign=top;aspect=fixed;imageAspect=0;image=data:image/png,iVBORw0KGgoAAAANSUhEUgAACIEAAAJYCAMAAADIE5TpAAAAGXRFWHRTb2Z0d2FyZQBBZG9iZSBJbWFnZVJlYWR5ccllPAAAAwBQTFRFR3BM85IANzc285IA85IAvhUivhUiNzc2Nzc2Nzc2Nzc2Nzc2Nzc2Nzc2Nzc2Nzc2Nzc2Nzc2Nzc2Nzc2Nzc250wbwRki6U4avhUi85IA6VAa85IA6E0b6U4b5ksb85EAvxUivxUi6U4b6U4b85IAwhsh6U8a6U8a6VAa6U0bvhUi85IA85AAwRki85IAvxYivxYi6U4bvhUi6U8avxYi85IA85IA6U8avxYi85EA7GQT85IAvxYi85EAzy0g10gY7m8N7GMU0zEg8YQE3D4e61gX73QL2Dkf3kAe7WcSwxwi1TQfySQh7GEU7nIL1DMg2Dgf8HoH7GQS61oW7WgS8YAF30IeyyYh0jAg40cd8okC8YQE7GYT73kI0S4g7WoQzywh2jsezSkh3T8eySMh8YEE61gX7nEM7W0P73QJ8YEF8YEF5Ukc4kUd1zcf8YME62AV7WwO7WkR61wW8H0GyCIhyCMh8oUE7GYT62AV8ocD8HoIzysh500b4UQd1DMgxyEh1jUf2Dkf8HwG8okC4kUd73kH7m8N6lIZ8X8F73gH2z0e8H8F4kUd8YIFNzc2vhUi85IA6U4b7W8N1DQg7GYU8H0G6lwV8IEF0zIgxh8i7nQJ3kEe0S4h4EMd73gHzy0h3T8e2z0fySQhxyIi1zcf40cd1jYfxR4i4kYe4EIe8HwHzishzCkh62IVyiYi8YME7GUU3D4eyCMh8YUE5Egd1zgf7WwQ6lcX7nIL0jEg8okD73oHzSohyych8osBwhsi6loX8YQE614W618W62AW62EW8YYD610V3UAe62QV7GcS4UQe7GgR2Tsf7GkR7WoR2Dkf7WsQ6lQZ7W0O1TUg7nAN7nMK6lsW0TAh73YJ73cJ0C4hziwh73kH6lYX50wb8H8G8H4G8IAGxB0i8YcD3kAe5Uod62MV8YgD2zwf2jwf2Tof2Tkf7W4O8o4B7nEM6lUYyiUi6VAZwhoi5UkdwRki6VIZ8o0BxBwiwBci4kQd85AA5ksc8owB5UsdvtrStgAAAI90Uk5TAIDvv0C/QL+AQBCfYDAg38+vcFCPEBDv7xAw70DPIDAwz7+PzyBggHDfgCCvYN9Qr1CPn3BwYK/fjxCfn1BEKCDvQBDPzzBgn4Dvv89AcFDfz1DvYIC/MK9g75+fQJ/p3zBw779Q6q+/nyC/7+/vcI/fz79ggI946d/Pj+/LcIA4cI/p34Dv76Tf34Dvr+es5hxfAAAgAElEQVR42uzdwWuUZx4HcC8z/0GGQazMHOYyMCQ75BCWOYWAkgb0pPESouZYvSUnsSjsaVl4D7kYjGi0RsVSUPRQ6JKrIEIPOQjrLbSw215kN9DsZSfalrba8jzvzLzvk/XzuYv0GXz6nef3zPc5dAgAAACgUFMdawAAFGw8y3pWAQAoVi/LsmbLOgAARar3E0hWr1oIAKA449lbbUsBABSm92MCySo1iwEAFKT+UwIxiQEAitLIfsEkBgAoRPuXCcQkBgAoROVXCcQkBgAoQj37DZMYAGDUGtk7TGIAgBHrvJtAsvq4dQEARqmdvU/XwgAAI1R5bwLxTgwAMErN9ycQkxgAYISy32USAwAUn0CyZsPyAACjUP2DBJLVOxYIACg6gWRZTzUIAFB4AjGJAQBKSCBZfdIiAQBFJ5AsmzCJAQAKTyDZVMM6AQBFJ5AsM4kBAIpPIJ7LBQCGqRGWQLJ61VoBAEOThWpbKwBgWOrBEaTiuVwAYEgqwQnEc7kAwLB0swieywUAhmI8JoEoaQcAhqIWlUA8lwsADEUzLoJ4LhcAGILJyASipB0AGFwri6akHQAY1ER8BPFcLgAwoGp8AlHSDgAMqpIjgihpBwAG08iTQJS0AwCD6eaKIEraAYCBNHNFECXtAMAgWvV8EURJOwAwgEbOCKKkHQAoIYIoaQcAyoggStoBgPxqlZwRREk7ADCAXt4IUjGJAQBy6+SNIEraAYD8cl8GUdIOAORXa+aNIE0l7QAhqpDb//X/a7u5JzFK2oEPTaNaHW/3TVT6cn+DAwakGgT4wHTqtn5IgZJ24CA7XV1eWZpbm4j4NtVy8AFJqKsGAQ6iamd5ae7OG2trd6ZOR/zRrq0fkjBhEgMcqHOP8eWlxduP9/2cQO6sLcekF5MYSMKUahDgYJg+t7L0+nbf48e/SiD7liK+TeVvlAaGSjUIkPzJR2dh7ou+128SyO3b7ySQtdmYb1OTdn5IgpJ2IF21E8tLf+/74o8TyL17MZOYxpStH1KgGgRIUquzsPh5X1AC2ZmLKH+q9Wz9kISunQ5IbPBybv7SV5+/FZRA7t2bjfk2pRoE0qAaBEjo7OPYwqWHDx9+FZlAdnZWYv4S1SCQxiSmY9MDElA7sbD46tXDh7kSSNQkRjUIJEI1CFD66OXTuZs3b77Kn0B2ZmO+TakGgTRMmcQApR5+XLr5xiAJZGenpxoEDh4l7UA5Wufm/3HzJ4MlkLWoe22qQSANqkGAMuLH3Pr6+rASyM692ZhvU6pBIA11Je1AoU5fXXy5fm2YCeSHH7Zi7rXVJmz9kATVIEBhzl5d/PLly5fr60NOIFtR99pUg0Aami27IlDE8OXK4pd9I0kgW1tRkxjVIJDGJEY1CDBqtSsz165dG2ECiZrEqAaBRPRcSAVG6cR8P3yMOIFsRT2XO24SA0lQDQKMzNmFi6ur194YaQLZ2mrHHMqoBoE0qAYBRmHsyszqvkISyFZUw0Dbzg9JUNIODN30wnY/exSWQP69G/VcrmoQSINqEGDIxx8nt7e3V1dXC0wgu7sxDQOqQSARbTsmMCxnFy5ub5eQQHajGgZUg0AaVIMAw3Hs483NzXISSOQkRjUIpDGJGbdxAgOPXz49ublZXgLZ3e2pBoGDRzUIMJijxy9+tlluAtmNei5XNQgkMolp2ECB3Kbnnz79rPQEshfV9awaBBKhGgTImz8+fvo0iQSyt9dTDQIHj2oQII9jJ79+mkwC2YvqelYNAmlQDQLkyB/ff51SAtmLOtBVDQKJnILYTIHI/PHi+9QSSNyBrmoQSOAIxE0QIDJ/fPciwQSyNxVzoNux+0PJ/BoGiD3/+C7NBLIX0fU8afeHknVtp0Bc/niRbgIJrXpu+UUulD2B0YoKRJg+9c9/JZxAuoE3QbSSQdkqfogLhDt7amMj4QQS+pWq1rP7Q8m8jguEO3p8YyPlBBI6gakqA4GSRfX3AB+4sb9ubCSdQEK/UilEhbKpQgXCHTu/kXQCCW1WbDXt/lCuqHecgA/c9MyjjaQTSOilNj1kUDYlIED4AOb4o0dpJ5DAXkVd7FA6JSBAsMvnb6WdQEIvtVUdgEDZExglIED4AObWrbQTSOiltq7dH0qmBAQIHsBcffYs7QQyGziBabiCCmVTAgKEOnH+WeIJJPRS26QJDJRMCQgQ6uipb75JPIH0ws50a56BgbIpAQFCXT5/PfEEMht4qc0zMFA2JSBA+AHI9euJJ5DAGvaaK6hQNiUgQMQBSOoJJLBWoOEZGCibEhAg+ADkwfXEE8hsYA27Z2Cg9AmMEhAg0JkLD1JPIIG1Ai1XUKFsSkCAQGN/e/Ag9QQSWCvgCiqUTgkIEOjIhRupJ5DAWgHPwEDppqo2VSDMX27cSD2BBNYKVF1BhbIpAQECHZ25kXwCCaxhdwUVylaftKkCYf504UbiCWRrLmwC0/IMDJRNCQgQ6urz56knkMAads/AQOm6JjBAmLGZ56knkNmwYmdXUKH8CYwSECDQkQv/TT2BzIXVsFcHOACpV4Cf5f+nVGnZVIEwl+/fTz2BrIQdgAQ8A7O/tfbafZ3qGz5+GO5pohIQINDY8fupJ5DAh3Abzd8725hotyf7acNoGg4N8o8p5CxRqgcC/XnmfuoJZCnwCupvc0d3/5zDJwzROrnHmUpAgFCHL9xPPYEsB/2H1H4cW09Vev3gYQ4N+XVzT2CUgAChzrwNIOkmkDuBxc7j9WalPVlt+EhhQLXcl1CVgADBLt+9m3gCCT3TdegBw5H/CkjPBAYIdfxu6gnEmS4UK/cv2pWAAMHGTt1NPIFMnfYpQaEmc09gnEMCoWof3U06gcytdJzpQrG7Qu4WkK7FA0Id/uhJuglkadmvaKH4ANJUAgKMPoB88iTJBPJ6duKc2QscqABScVwJRAWQBBPIkvQBBy6AuDAORAaQxBLI3Mq0DwbK08uXP6Yalg4IdubJk7QSyKX5jov0UKpxNezA6APIf5JKIIsOP6B0tVw9IPWOlQNiAkhCCWTunMMPSEBXDTsw8gDybTIJZF7jB6ShpQQEGH0ASSSBiB+Qjp4admDEjnybRAJZEj8gITlugVQMUIEYhz9JIIG4+wGJ6UQHkLZFA2Ic3Q8g5SaQSytKxyA1E2rYgZEa+x9797bbtpEGcNwgkJAUJescLQxJQC2sbRVY7Dop4F7s1cJAAuQiuQqSm6LZ3CZ5gqJFC+SqKAjwAfYh9on8IsWu4pzsWLZ5mG/m48z/d5/DUBzyT3JELf7nuECeP+FTAPThJSAAZJ386bRAfvw3hy1Ao7u8hh2AqKM/XRbID7x3DFDqW17DDkDS/MxdgXD7A1CsyjKQfzKXAVQ0XTsrkMes/gA0+57XsAMQdHLmpkB++oHv3gK68Rp2AIIOzpwUyE+/cMsWUO4er2EHIGc5c1EgPz5kywPq3eU17ADknJzZLxCWfwAeFcg3PE8FUMPxmfUCecy3bwGPCoTXsAOoYzqzXSD0B+BTgfAadgD1rM7sFgj9AXhVIHdYUQ6glr0zqwVCfwB+FQhPYADUtG+zQOgPwK8C4TXsAOo6PrNXIKf0B+BXgfBDuABqW1srkKe8/wNon3v8EC4AEQdnlgrk7S9sbKCNeA07AAkfv4krXyC/ca8WaKfv+SFcAAIOz6wUyOOlytHH1XTZXyBrUnGXtPO/usMP4QIQvQUiWCBPtS5AzatJ2GEg3MQVd0k7/6v7PIEBIHALpJAvEMULQCgQUCC3+44nMADMm8kXyPOl3uFTIKBAbneXH8IFYNxBIV0gT1W/AYQCAQVSAj+EC8C4tXSBKP8GLgUCCqSEb74KkPt8UgCa3wIRLZDHS+UbgAIBBVLCfZ7AADDsRLRA3v6qfgNQIKBASvg7T2AAGLY3EyyQ51P9G4ACAQVSwj2ewAAwbbmQKpC3T9owfgoEFEgZ/+AJDADTpicyBdKGGyAUCCiQkr7jCQwA81YCBdKOGyAUCCiQkv7KExgAAg6MF4j6r8BQIKBAqrnD78AAELA3M1sgv7Zn6BQIKJBS/sbvwACQMF0YLJDTly0aOQUCCqSUe3/hd2AAiHhgrEB+m7Zp3BQIKJBy+A4MACFHZgqkNUtQKRBQIACgwvy1gQJpzxJUCgQUCADosFw0LpDfWzdoCgQUCAC4Nn3QrEBePWnfmCkQUCAA4N5RkwI5XbZwxBQIKBAAUGD+unaBPGrlgCkQUCAAoMF0Ua9AXj1s53gpEFAgAKDDqkaB/Pfpy5aOlgIBBQIASrx4XblAnk3bOlgKBBQIAGixt6hYII/aO1YKBBQIAKgx/aNSgTxs8VApEFAgAKDIz+UL5NXLNg+UAgEFAgCa7L0uWSCnrQ4QCgQUCADoMn1WqkDauwaVAgEFAgAqvStRII/aPkgKBBQIAGgzf3Nbgfze+jFSIKBAAECd6bObC+Rh+4dIgYACAQCF3t1QIK/+5cEAKRBQIAAg7vig8h+Zv7muQNr9LVwKBBQIAFizKFaV/8z02fYCOV16sUkoEFAgACBtWRTFg+rfnn23rUBOp35sEwoEFAgASFttCqRYVE+H+ZsrBeJLgFAgoEAAQNz6fYEUs73Kf3D6x1cF8sibbUKBgAIBAGF7xQez4+p/9udLBeJPgFAgoEAAQNqq+OSo+h9+uf5SIB4FCAUCCgQApK0/F0id9ajTR58KxKcAoUBAgQCAsL3ighrrUXdevDkvEK8ChAIBBQIAwlYXC6TOetSd5emmQF74tVUoEFAgACBrXVx2UOPvePcfzwKEAgEFAgCy9oqvrWr8LUvfNgsFAgoEAEQdXSmQYn/KZqFAQIEAgKj9qwVSrPeC3ywUCCgQABBVbDM7CH2zUCC4Ik1HySSO4/75Zz6I42GSjNMOBQJH+2OafNJN013L//xumnY///ub/0uLt+SloXzcnGlbR7I5Sl2kfCTHxXarwCc3BYIL03qcZDcUwGCYjMUP/xQIPupszjHxYMtnHm2aeNwT//d776dDtG0ixJORrSI3tyWvn1lRHCcj62VXr0bH7y+Orj9ExZMk7Wn8j6+uKZDQF4NQIPhwjBonWw+2V8XJWPLgS4Gg5O44yEZSJ5veKBvc9s9HwjPB0FVFt+zE3kztbKT3PsLm8mjYb+9AFtcVSK03g1Ag8Opwn/Wr7QeDidixlwIJfnfsVtgdo9h4haRJrGImmOioYZRXpXFEm4H0Kw9kE4iKhlDcIOTFIBRI6HqjQV5LPBK5bUuBhL07JtV3xygzds7sdGucs4VmQtN7HzVG8rlCEj1PMioF6dWPRslA5jcVSJ2fiQm0QCoxfR+s102Gcc1ZtTWdUscDqniyjQWO95N+k0+4PzF/6I0F98h4B6rzo/7uODRwvbvJj9ozQVeE7Na9rLgwokzDc4wGH8mXg5SGCDm8sUCKxTLUOd+SAtntZs2mFAWy7TDVb/4hD0YdpxuFAvFF090xypqdacZZw5nQVfLwotM8P+QuMKp9JENPBrKzc3JzgRSzYwpEa4FUX6VAgVic3Xlu9mKJAglSamJ3rB8BncRAjTdtIGXz+nzGdN0VaRL5MZBzs+I2hxSIxgIxcBeOAtm2WfsmP+m+wcs/CiRAxnbHKKlztbubGdvD3D666Iz6pudMP3Fya6eXmR5I5PJGyLK4XZhfy9VdIL3MVAZTIJcu+CLj09vYcYoCCY3h02ZW9USTDs3WuLu7BlkkMWsi+w2SyhwF3C1tmZcokGI2p0BUFUh3YO7/QoFI9ofJ4xQFEtr9D+O7Y6UG2TW+w/XdfAl0NxObN5YbJJU7Bri6R3VYlBLgkxi9BWL2OQEFItsf5o5TFAjPX+ztiTKnbQfnOcH+ON+iI19G4qZBTsoVSHES3JMYrQVi+sBEgXwwiiQ/cRN3oCmQgPSkPu2o1J4ol+NDu2sOOkkurZ/6MpLMwXqQRckCCe/XcnUWSDow/X+hQM4H3Jee3XHP8kahQNqrM3G7J0pOB4s3DSQeZG2tKguPYuSPUOdnA+sLW4ryjigQ1wXSGQrscxTIzu7QxuyedKxuFAqktaTPNon9w8xFA1tfze3FuR2R9AKXztDSSPqWH8UsKxRIYE9iFBbIOMopEIHz5yhqxeymQLgBYqMBUvnpYOc3LJLcHtnbIGnky0i+Nq9SIGE9iVFXIEIZHHyBdGJ7s7vRbRAKJAg9K7fbr38UMrHxz8fyKw56g9ymSPDmwcSbkVxxUFQT0HditBWI1IEp9AIZRzZnd5Mb0BRICEZuL3V3LZ23xZ9bjHLbpG7sdAa2RzKxdxvksGKBBPR2MmUFIrakKvACmdie3SNbG4UCaeMTmMzajtjvub3dPxHdjnFun8zzi15kfyTWVursrKoWSDhvJ9NVIHKPNIMukN1Bi45TFIj3rO6PW76Xa/XGQSx3pe3irP3+xC3wbKnrZCSRrffX7hfVBfIkRlWBCF4ZhVwgqZMDVd0LDArEd7ZPnBN7h5nSd2Hae9Z+f+I2PqLE1VAmdnb5OgVSLJYUiN0CkTwyBFwg3XYdpygQz3WtB3F28TaE/fUGQmseszz3JUEcDiW2shhkXadAitkxBWKzQER3w3ALZOLuONW1sFEokLYFiIv7cR2HAbIhcLPfyTi+TG2jK2wzl0OxshikqGnl/4JUPQUiuxsGWyBOZ3dXfqNQIO2SuD3N2PkSsHyC9JwGiNkRZW5HEllIkLoFUiy8fzWImgIR3g0DLRAni+WbHacoEJ9lbk8zjtZu5nlmOEAixwFi8LyduR5KLr8etajP95e0aykQ6d0wzALpDNo3uSkQAkTqjOnwxG00QdwHiLkEcR8g8gkybVAgvr+kXUmBiD8cDrJA3AdIjclNgRAgQmdMpydugwmiIUBMJchIw1CkE2TepEA8fzWIjgJJcwrE/PlTQ4Dk+Vh2o1Ag7dF1fMbsO/33jb1MVEeAXFrf29JdwlaCNCuQolhRILIF0osoEIHzZ6Zible9VKJACBA/GTrLaQkQE9NJz1hEE6Rpgfj8ahANBWLjWj3AAsmUzO2oI7lRKJC26OWhM3L80HPSbv4+r46isUj+gk/jAvH41SAaJpyNU2V4BTJSM7er3a2lQPy0G+WhM7FyotPXNKKx1QOg+g9HrkD8fRKjoECs3JwNrkDGiiZ3RoFgkMPAygldmzFq9BMxia6xdFQXiK9PYtwXiJ1ro9AKpKfqinNEgYRukiPPh003Y6ZsQIMGY0k9GsvNliYKpJgdUCASJ+yhlb0rsALpKLvi7FEgYRvnqNriru4XNz+wtvB5UuV7tZUUZjyYUiDGT9ipw4nib4Fou1TqdygQFoGg4WoDjYt5aw9I4V2xrvIC8fEl7c4LxFIIh1Ug+q44MwokZHGO5rf69d01aDCgVOFYmi1rsVAgxeyIAjF7wrZ1WzGoAtF4xTmmQMI1ytH8sYXStTQ1HyxprCmxpSBrYwni3UvaXRdI3+W897VANF5xll5pToHwDMZrta+zla6lqfcdkkTnYBKZGbBvrkCK9ZwCMXfCTp3uWZ4WiM4rzowC4RkM6u+EHa0dV2cBp9oo7akvkKI4pECMnbCHtnasgApE65EqpUDCxPdgLqu53lHv95lrHBczrWOROUQcGi2QYn9JgfyfvXPZjVvJwbChjaSWWuqLDAOGk4UNOPEy8CKP2UA/8ZkczJwJZpy2WPXzUqWfCy+tplQkvyJZLMzC3Plm1+okkGNQ255JIJuUkP2T5ZUt+rgKyc1qiqvMqQACqWlIuy+B2NULtkMgcT1VRwLZonQXCqDZIPJM2V7Z88Xnw0/k6YqWl3sSCGBdtr5GXyWBxN1xrjvrRgKpS6YLJckQvDZrBnbVR1ZGYy7ZVziBVDMaxJVA7Iow2yGQrnTbJoHUJcOFkh/kdrGPE/Wqjs9YNJpRrwrynQSSuywNW9S2QiCxPVVPAmEKhJJwIjd4KUtmWPualFknzxoI8nxPAsmLN4bbo60QyFK8bZNAqhKexEUkQcJPVBG5xqEmZdbJiwaBVNGQ6vohDZurNkIgoB1n0y7d2P9Lprtff89d185Wtk0CqUn2FwogCQKL2U3bDt2/5di2MLCRIBUuLXb4TZu2PQR2E69XHSm/IdWTQAzbQLZCIABPdejOH3aD7/qutbBtEgi7QJgEUYjZ7TJ+4MD2fTcgdhcCpOpAyuw+8FEniDL4JMhXJQIpvyHVk0AsO6K3QSDZnqodb55F242tum2TQNgFsgHZmXJcM5xv2/XQaDjYjyX3UYfupheZTseAfuJNC0FKb0j1JJCOBAK2i7wukGZZsZGZlkbXtkkgTIFsQCQzQXLby49rroU8532rZrU2eZeRzt0aJ3WadUOXXN7VCKTwhlRPAhlIINj4meepupXbsl3XaNo2CaQe2fFKuj9GUsFrzNuqDWsLJHmGbXL5dbv6KWMWgxzhpvBDj0DKbkiVroBOIJNjrNkkgeR4qlZQyN0NihAgXRWSFTkSCkzlRNL4owjWYg4YtJLpFrtOP2hnFOZmkQM+5by2CW0K91dNKbghVTF3qF4P/PvIRnfu18i0BQJJx/5GeBtCn/6oPfalXBjn48pM0ADk4zLKFlK7vpvSt4UrU6gnM112Gf0g+MGoP1URpNyGVE8CySxujtmcWhmBpA94O4jHAKanQQbsSyGBxBVUq/msdIR0teG1/+R+F9yhz0nJTfxu1ynj31Nf78qkTurraxN0GZOXCv52mNerrpTakOpIIDl98k03OXjI4ASSjPxDirkl78x2JJCNSH6j1zx0H6Uv9+fOhkPa7qMTrL8OfeZzyKLuJ9M28lOiakdVbdIizz45C4cv2D4oI0ihDamOBJKxQ1p2Lr8gNoFM2q7wf627UfElJJBaJHfezydZzn2nO9FwXm7ae/YJ1rW9qIt1EE3Nb65yymlFmCZZl9Q1coCbw7sygRTakFoigRx6p18Qm0BO1rSfiCAzCWQbknXscj6tCGiZR8Nv5g/WGHveeJyV5zoSVWwydvGDniNJIoJmb62Lwv10j1d1KbEhtUACWdx+QWwCmY0BJBlBehLIJiSjEXBeuyrzTpD+mT/WFnn7DAZZVyRJ7O5qsiJoUtheU4aZCtEFGWb+I8/6CFJgQ6ojgXTmaF81gezNAST1mQMJhEWYmzYuOfWww48VEjU9npNbDdYN8UpUL3MLn/RUpbxY46GLYMTaWnm6GkhxDamlEUiDTI5VRSCLAg3oJNobEgiLMCgA+GXG2DSI9NRnOgKtKcMkDnXL3qelJLB6nX97NvazqMd6JEHKa0gtjECgAFIXgSRtxbJn/y1w2yaBbLwII/cxuyMQQBJOsKYe+lyD/6PRO/y/d5rQsLGicNGUoovGSBCTJEhpDamFEQj2jFRNBJJUEJnzzxQd0LZNAtl0EabprXzJH9ZmikkkHvpck+gfXDYWaQ7loPFPETcpJDWs4cswNkmQwhpSyyIQ8Lj+mggkKRnRuziq27ZNAqlD0jooU5OcIwpALHfZa+yv8dlYpPnnT58rP6/XQOajJy0PfBnm0YZAimpILYpA0IPqaiKQFBfYOTmqm7ZNAqlDBksAQSFIskWkIcjnZYuz08bil8z4mC0vl50wuhztaPSWvBghSEENqUURSAdWviICSTnlhtkq7Was5yWB1CGzKYBgECQj5iQhyOdDyRYVrtFxjyscdIN/Qys/T6PxdcRy/2aFIMU0pJZEIPBZ/RURSMo4MlCWccTaNgmkCknqS9qb+hPspjfp0MqnJYYEjsO5SfEZkha+KGCVkJP1cvxYnqwIpJiG1JIIBD4jpiICScgytig1ZqjnJYFUISkeP7PPPPdEzCEvdKcw12c1hsn+LWYlQdCblYNrTq5TsAuzOkwpDaklEciEVr4iAknYgMG0GaFekgRShSTgQG6feUo9ELnlVWitT+C42c9BffoKBz+aShnBfdAwjC92CFJEQ2pBBIJfD/UQiNMpt+TtxUACqVzkSJxfPeizACTft8lbQT478XmEwr1YzuCHHxxpKmUu2U7BMO4f7BCkhIbUgggEP6i/HgJJ2CsBlZEnQWYSSN2ydwmdOXWY2d6ffJ40aDzUyNhbLNBogzoIk5yqPWuYxqMlgsRvSC2IQPBVuXoI5OjqqRKa8HYkkKrl5LIgpwwCQRi3/ATyCc1x0KAt9tEtltCwOQh5qnZRsY0fhgQSvyGVBFIFgcgRADpddgHuLkggNcjgs99Mv6UOUpSUE9ARvG0HnxcUKwRVBzyAUv42DzrG8WqJINEbUkkgNRDI5Oyp5M/vSCBVi3i/OTstRGzCfcCqLQcq9BQtaefGhPT44CIINFVbEILEbkglgdRAIKO3pwJODiCBVCDyS2FAObnUThBQUVJeNpmQ8R8/wuKEdJHepi0Hul7JPp4eTBkkckMqCaQGAlm8TUuMQA0JpGbpcetB+cHg9gkxM5yB3lmhbDAhnbQwMXZ0X5UqE0H+lkdbBAnckEoCqYFAxCkI9MBheYJzIoFULOJGVFjP35xGIKh0+4iMcb0bSCUj1QAMNiNcGfHiOKpZyP3zlQ2pJJBaCKRxc/jJCc6eBFKxiJcDrHqQdEc0LtLskE+WHyiCD22Uvs8W6G7dlVG5GuYfebmyIZUEUgeByKvu8IPu4tlFHQmkYmndPH3SfTTA7fYRqLk4YB7wX1Jo2A3uXylEf3lSaadoJLb9qFEbUkkgFRAI/P6GBJGmYQYSSMXimJNLKsPgAs0INMXW8TWm7m5wDl+jAiJOFveaVmLcDBKzIZUEUgGBiLO1LX4h7XuZ7Ekg9Yo4KQfMyaWMBAHmDsTngffB4+UM+wmLt79POCp1UrWTxy/XzTekkkAqIBDxlVhd4OhFAilfPIdfnhMIBGkPMw6+AqQ2xUG7h1m2Bk6dgnlK437UiA2pJJAKCKSNsFcigVBSSxHAHETSUDKkPQwwtybmuFbjW3YwL31wo9L/ZmpDvNLf5f268YZUEkgFBHK4VIeCEoMAACAASURBVBS1SSDli+ulkwmNIMhgd4LpLs7mqFxjcoZ5aVxPq1m805rL/psY96OGa0glgVRAIJHOmJFAKOI8wMlzAYHtoYftssXF1VHjWwr1OaJiTRvCuxi4F+P5qNeHWA2pJJANEsgxcvQigZQvradhiQM3ONjBdtliRfYqHxP1LvsITkp8wHnStxbrftTrz0iVGBJI+QQirhd3NUUvxvvyvyG05C+/JAlrDw1qAQfZrzsRiI6TElOdRcucdT/q9eGJBEICcSSQsaboxXgfT1xDp/ftH60XgSgVVw8gdYQNJTrnYMWL42xiMMbzUa/XFxIICQRGIGNErieBkEB82v3kU1F71wXco5IpbQiDRPl7HSc1Xdyjzofy+mDdkPqVBEICARGIOLO4ixy9SCDFy843dDoTSId6eoijMOK24tgEcheUQO4e36wrMa8kEBKIE4GEDl8kkOJFaldHV5+G7jZ0IxClYIkihy7ENmkWvtTBymjurftRr+8hGlJJIOUTiPTsYxs6fJFANkcgYMuefYl8BGkvriYpZQ1QBHIMYddtXGdp3gzyFmE0CAmkfAJpSSAUEkjyCrrE1L4PQiBn0K9oQ9h15O2aeTNIhLvqSCDbI5AldPgigRQv0rGgJ98VNPt6FRiBKNUtehcC0Yr8XeTtmnkzSIDRICSQ7RFI6HEgJJDypfO1K+dt7h60IRATSIyMVhebQE6XyP7FfDLI9c17NAgJpHwCOZBAKCSQMNtc0OOlajRKX3MP8i5zCALpL7H9yzdrBLl+I4GQQPKMMki9mARCIYH4EYhavQDkpi8kkDXyw7wZ5Nm1EkMCIYGQQChbJpDB16eSQCwTtfvoBGJ/TYzvkHYSCAmEBEKByuD7Cb0dCwkkMIHchSeQu/v3LVViSCDbI5ApdPgigRQvzp/Q+TCwdB5JG9Y/kkAuWhcO35bX63YqMSSQ7REIwxeFBKLnWNpNE8hSGYG4ZIztj+W6TScjgZBAGL4oJBA39Q/RCaSBeCkSiETuf143Mp2MBEICYfiikEDCqR+GQNqqCKQpgkDu7r6bI4jPPTEkEIGMJBASCIUEYqL+QAKJsDjd+vafzI/lfvGoxJBAyi8Yk0Ao/ITVEUhLAtk0gTgMSH14JYGQQEggJBASCAmEBLJ1AvEYkPpCAtkSgRxIICQQEggJhARCAvlQnuofkEoCcfwFFxIICYQEQgL5UBYSyOYJxOOqOuNmEBIICYThi0ICCac+T+NGiHjuE6S/Vd4MQgIhgTB8UUggJBCMmyKBgOXprepmEBKIQI51EMie4YtCAiGBkEBKIBCH6WSWzSAkEIRx+T6+PJsigZBASCBgAlmqIpAg2sTYr32vuBlk0wRyRwJh+KKQQKogkCB347bK/yZTdkXWrM3viXn4QQIJSCDg1XgGbXKkWpwZvigkEBKIyusMTiB9kQRyd/9e6zUxJBC/1Yh6AWEGB5BAKCQQEggJREFerUeDvJNA4hEItia4kEBIICQQEsjHcgoSK30IREubc6kEcvf1i/U1MSb9qNsmEN97ElsnAhkYvigkkOgEEmW33lVFIN2lXP9iPRrE5Ka6bROI1FecoE+fhU8fQVq0DF8UEkh1BDJVRSAxtLkcIhmW9WiQB4PJICQQv5+AOsOylGxUJBASCAkEQiBKZ9yOPgTSx1ibsbZr5qNB9CsxJBC35bhHeZiSE4skEBIICQTjH8YQXxNFIOcYazNawti6IVUdQbZNINKfMCMfLu6JmlAEMjF8UUggwQlEnCNV6jBvfAgkhjbwOdjZYt2Qqo0gJBCR7DwfDkOZnuGLQgKpjUCUOswvPgQSQ5uIBwe/VYUg2yaQ0TN2tygCEReMR4YvCgkkOoE0qNhv+jZRBBJDm5CjC4wbUnURZNsE4roeYQ5mX4NVkUBIICSQrP/TqHzMsxOBxNAm5m7NuCFVFUG2TSDi2N2GfPYlxPaCBEIhgTgSCLRGnOymUQQSQ5uoFWvbhlTN8ajbJhCxVQCdpXjk4QLTYmb4opBAohPIEiJaHr0IJIQ2YXvmbBtSv5FAlAik8VuQYlvoYC5PZ3tBAqGQQIDqi/frJ42POXsRSAhtArsX04ZUvatyN04g4ti9oJ4sviX6xgH5I+5fkUAoJJAY6ot7FjROjor9FIxAhgjaRHYvlg2pD19JICoEMrgVMMTHcG6kX8SbpY7hi0ICCU4gvZtzysEgGIHE1iaCWDakPpNAVMJmB+QAmRyBNC6mmQP+TY6tTDoSCAmEBHJLffmGXWHU4OJGICG0Oca2tL/YO5fcuHYcDBc0Oe9nHcOA4WQQA9fOMLgDAxl1BtnAvb2QBnrUq6ihF5QOkCX0ctp2Ej9ip+qIIkVK9XOUSVyHdYrUR/KXFFGQegUCkSAQbybm6g36Z5eBL+VKCEEmrrcJAgGBgEBoa7bA1tFRj0AseFMaD7V4glSpOcyRE4j3ltid41m8vXfC7OsHcmpKYhFVCwIBgYBA9rpfKJVHT6zf6REIf/+htkBBzHaZ+BzmyAnEPyyYJNremuy97g/qqYrvdFkQCAgEBHJv3io1/lO8WkUCseBNZT/aoglSZfbDHDuBeLfleARS/qGwl8YL9eD2lrVYXb5gIBAr7vur1Lbqcc1IIBa8SSHcYglS34NABKzhRQG5FsiuY/wq2YPbu705gkBAICCQ/e7767u4e5v+QxhOAuH2hlV8Z8kiCVJFziU7dgLx12Nw/CoJLZC9adpfUDspf40NCAQEAgLZ777/iun00yMjgXAL5lvtNClmcQSppxL3wxw7gXSEuAh/kIExsImlCm9wezs0g0BAICCQA+775wlm5eSgSyDM3owKqT6WXabaBDl2AqHERfB2mJIdewbd2PJvF1cgEBAICOSA+xNvoRIhrnkJhHcIQqg2q3SCLoYgVaIJcvQEUhACI7A31zvCZ+4Xbky6we3/JZpdvmAgEDPuE0oV1mO8JmUC4SUAguavTijqYghSBZoginMxGwRC6UcE6jgp0HMgFgjz2lYv5e8t1QrNlAsDgRhyn9CD4FRv9jttAuFs6firaiTOjpY0eUGqwHYYRSi0QSCURuPO9RH9XhMLhAbjoJdy917wV+iRFAwEYst9QqZgJPJGnUA4myClLs7FsDNxQeof6gTS6v0ihFRBpMAY6SS2JX3goTt5CZKxVivj728iFVwZDwYCSZ1ACs1Vk9QCYSYQvuiunWKKjGYXyR2MqtgWM0IgEykyyHHeOdLnHZr7EMoVtiaIv8R8XyvNO+liDAMCyZVAKP3SXssPCQLha4KofpXx7Fx4EsN+O4xiW8wIgcy7mAhCBJCDSZpywsis9gUWnHmv2cBAIHkSSBUvM7F8Nj+BcNVJFPn/mGLwnbxLS4uq2BYzQiC0XiMx0KkAclABTJBZMV2yRwntkrXy6rDmg0DyJBDNDSSDCQLhqpMore4lzfC7SkqLqvaLMEMglCHCdwTxX8CpALJiIDlKcI1Ur7Zj/XtQgoBAciUQysI5qqRnKQJxvcZvYtXo26qJClLP1AnEcQ3HrBDIQgwNfzlqS/2kFVuQZqUQo3zuwEw08wYGAsmSQEhhzeFQtzNCICwFRk1q6CQbgCeCgtQLdQIJ2QdikkDIsbZzXv3OuiF/0IpmBWmY5IIHGKSuzhKzpwIDgaRLILQZcfgchrZkixAIx/uZhLKuWZMTpL7RJxAuBLFCIOQxzN1auv6r6AI+Zs2usEHjVdYje4IsVEgKBgIx6T4pwMIVXsXODoGEt2pnsaxrtw1ynchumJ0egpghkJkeG7thZXTUS8CHrDoHjja3DeR8Um2xX95O6hS5agMDgWRIIItKhqa3ayUIJLTAIO7qSXyb/9VpEoeSEdddjprTDIH0IXCwK1YsfnXpQj6iEfQiaO8eLT0uAiQFLQgIJEsC6RTCOkCwJkIggQhC1P+PqYehkCD12gKBsCR8MwRCPJTs8afa7q84usWFfcC6PssYPVcRE1UnQSC7qd7AQCC5EQh1U2wIgoQAiAiBBPV0qBsQM6hpLkUuyNWNlscfWnAbxA6BtLtQm+bfteyqZQj94ysP5aEOk5rIX9soMU26K5TQBgGB5EcgS+ywDkyHIgQS0HUnn4CQw1nL5+/NC0HoiqNdE/iK7BDIxu3CzRVlWz2Nk6oqm5HhD691vCbjUx01UbVi+W+EGgQEkhuBdJHDerPsDBIIeRBDBpA8Thk6+dO6ECRoANEEiZQNEciyYzRXFCPn31sN42T52EhhSSopHNLpVyFf1TjjlhgQSFYEQt+qRxpdBJwZIEogO0dabOj1TC53bn84tX0iSBn6eyu3VaSPFiSQfmfYJqnMGxTd5ER16KjjLvDrGpe2AoaAQLIhEPpWPcIOsT64eJIiENJ7opeWLhtZGftFMbz345Yx1tDSOoGEalFFbX0aCVCcLH4BF3C4yUE6iPKlAhNAIIkQSB1x0W7D59FyBLIrPCuLEJzK6b5L7n25qtGaKYFUdgFkjNFy3O0Gj3qpLiUj24FAQCAgEIZ241328JFP9ByFmCCBeIrN55BMktUZh8z7clmlqD0IJGzYKm4e88g6aPEuVjJI2OEmPXsCB4GAQLImkLDyaPUFmoGHFsUgEB+xeRWU0sfMQpJ1X+4566OBQILbB6I2+HgROFMrVshB+rA8tUJhvoBAQCAgELbyyK3atMjEH9IEsi5JbTbbwDqmzS0mzxj35V6qhkumBBKiobDSAgltgtxnq73x3c+hvaIVJUwLAgGBgEA4I2I6cGbiZtuwRZY0gdwWZWV/qEoKzeYuv6BkvC+XdzPMAgKx3AQZ/LxgSCRuKqvX8lXVNuGUtmZfTwcCAYGAQJjLo2n+nbKhbxtO6ZU8gdwNSZbtb5iq3i6D1IqVuLHdl8u7GWYLArHcBPHsBtZMucQVU1mW2+rObv/RFEzfzioxuwOBgEBAIHzT1Qc4aG5D+jEE69vYXgruaItCIPfF2VS21ZOealW15cSTp1yeNzxw3ZfLSyA1CMRwE2Tw9aLcWbZ1W9wmEAgIBAQiUFjEsGgEEn3BysCYjifjfagRBBLti5AXRJnOVW7dfv4ZBAICAYGkU1jkRiAu30su376zRyALCISWuCLY6O/FbDiyV77BHgQCAgGBPCssBhAIWiAsxnE8Ge8TdSAQYuaQN8qB93Zz1VDbcQGYAAJJiEDsnhaQIYFk3AJhaoPwHggSId8nQiDmboeZYuTfeLb68pkSBAICAYEkUlhkRyBz7vEZ3AZhJpAFBGJz2upoF6w1qaUmDRQEJoBAkiKQCgQSq1Wbf4CGtkGYCaQHgdicthIdNipG9eGpAgQCAgGBPLMJBGJ39H1kbRBmApH/badCILYKjZHqxdZkYPu8vhYEAgIBgTwvFB0IxOzo+8jaIOeprbvJEEicO0lWGv12ximlxKQz9QYmgEDSIpBUduQmTiCZy1B52iDn2hkjXwIxNIcJcNfgHMZT09KCQEAgIJDnNoJA5G0+njClt0HYCaQCgZibwxRZeEEO7AEEAgIBgTyzDgRiO+2m1waxQiDSbfuECMRKr5O4D8Zqx9Z7uLoFgYBAQCAJzmGSJpDAtJucnb0xQiDCKqeUCMTIuWTbQC9sSUHG2tprACaAQJIjEINnJmZGINuji9VLGwQifJZ3UgRiQgoS7GttaWjsCKJaYSgGJoBA0iOQFG6oS5lAmiMMVkob5NxA0siXQDadfphPWXjxYC3FgS0IBAQCAglzDQQi3KrNwS5MEIgoXadFIPrnabBEgh0EIb64BgQCAgGBhCVNEAhEIAft/L0BAhGl68QIRPsaKKYt6VYus6K2NkUHScAEEEiKBGL2zoUMCKQ62oA9uTBAIJJSkNQIRDfMXcfkhQ0EoU+UJKUgwAQQSJIEUo8gEEOz4lzsg9fxZMktu8kRiCaCsAGIDQQJmShVIBAQCAhEG0EGDQKJPkMujztmT671CUTuzL30CEQRQThRvE0aQCSfH5gAAkmTQKJviJkLDQJZIoNWc/RR+8epOoGI0XWCBKKGILy9wNalDCCC9/QAE0AgiRJIZI15s1EhkDK2l7DVp7S/E3sEqaMwUiQQJQThHkbq7ogJ39TTgEBAICAQvaC+DWEdAom6JREAcm+X2gQi9dNOkkA0EMTxy7F7ReVaY/ctINuAQJIlkIhakLt9eUoEEnGGDAD5YeuOJ7sQfAIZBEmTQOIjCKMI9Um2UjugfTH8FpBsQCDpEkg0BLnPSFoEEu3wkxkh+9NW7cu9lHyCbgCBPNgcd8UeOxk3lE4x4hooNSAQEAgIRKOu+F4SqRFIpBqwRcQ+sRX7cj+IPoAEXadKIJttTBVFUWfhxg8b+HBqAYGAQEAg8Tu0P3qyegQip0QXbjwn3QZ5p3Mg2SOCFCCQx5ZQPBXFIuhGfDHIxIlTLQgEBAICkY+K13uyigQSz0nYo10pbcaVqznTJZBNHUkM4oTvhY47iXHMk9XKgUBAICCQX8oj2dbmw0Y2TQKR7t9ONcL1pZ3tvSjmfXrDh4QJJNKRGoX4pUjVEA9A+L1hb+Igy4BAUicQiXb1ozVEf5gJREaZ+NOgQf3NJOZPnc24jwm/AIFIfRkRWgavp6slEn/IeFOCQEAgIJBorc2W6g83gQhy1oAJzG9tzwmpl1EeYHYgELGe0K+dwEi3Qsdpg0h5wyvJQYoBgWRAIFJCtWdrszKBiHHWggnMvknMG52tMI+V/wQCecRwQRnFEPFS6FJ8oiTpDefTI8OAQHIgEJnU9FwdoU4gAjqwuHk3r0nM21hPUBUgkEcgE1KkujYLN+KMkxhlwUgwIJAsCGSz6QrhnKRPIALHn5RogBAnMacRn6AdQCACQPYk1uPHQSWnaongDRtBIb2AQDIhEG6x/AsduQEC4Z6EFz2ilDqJuY76CNsCBCK2eDsdDpdikCZKVDMxCLILCCQbAtnUfAPKV5qyJgiEswE6YgATMIm5jPwMXQMCEVm8nV4fsOOfxbgyWlVRzwMIBAQCApFgkNfUmTYI5Pa98qhuh2M9hf3jFeE/vZzEnEd/8LodQSDci/cwq84h+3Lg5I/Y3lSNA4GAQEAgzAxSdOH+yBEIy7ipONpbYD5+/vJvgoj0xelkOgvWXIBAHhbvPMJgyybumrYajx8GIcAEEEheBHJXKoaVFUXF4Y8kgQRjVnO885d/fP7y5dvff/n/x5NrRRnI03e/XUYQyA8UD1q83WJEBlXPDG3NUa+Z082TA4GAQEAgT5qD9Dqi4vFHlECCZrBDecT607NPX24J5Nu3f330/7+XTwnkStWNam4KEMh9U4i4eLtmuzHlRxGGH9ox3bVlMYBAQCAgkJ+NkIm7KjJFINTurWuOWn569um/3wnk5vOZ//8+fyIGOdN3pq587fVfd8/yVxQXb+9AGGzhx8/mVkOqKtzUmnkjnfdPEpggaEvhZ9y/Bs+Pb/Ny3xtCDlVFfv4s4gTi370dlu1xR+QtgPwkkJu/CV2Mt28iXksH81i8PSZT02z3FoK+9RuxOcvOwGBHb6sz07DEonHexlTfrhzBIld9B5AHArm5ufafxDxsy71AbJmjkLI4FApDEkFQtUtxOKiHotziOB8YzHxmqg5lpqGJ2cbkH40ddHBsQB+39tenr88I5OY/hFHKVdRLYWCePYSqLIuieLlaF03ZptXxr25dmV66cudLWW4xvYDBksKQeSleaYfcJqYqsoRcRpzzuhDMFVNqiVfO/vn16y8EcvM/wrFiH04jH8kOoy7hBkUrAZ5k4gwMdtxZqbyzZrmrI1S2r0nKg7uqvS2c/s/e/bzGVe4BHM4w8xdcEJmOOuAdrkJC4CKTMgmBhNBCFw3Y6KY/ltKkXdi03bTdFovi5tzQSyGL/gFCsXChlRRK78KCIooVlRYsKoJujCULXQS5aXq9Vm/annPyvmfegedZi9B3Omc+Pe97vmfzT/gX16s/Bcj7WxTIlyeK78Tcn9H+kvUEYNAM7pOPA+3Y+1sWyJdzewv/r5563iYMAAqEPA6+/4gCuXGjxE7MCxYUAAXCE40fvvToArlx4ikrBIACUSDhA+T4pccVyI0SOzEAoEB4vB2nLj2+QK5eta0CgAJRIGHtnb70xAK5aicGAAWiQEJ65fvvcxTI1bkdlgoABaJAQjn2Qb4CuXr3RYsFgAJRIEGMH/4gd4Hc3WknBgAFokACmDr+QYECubvLTgwACkSBbNve6cuFCuTu3N8sGgAKRIFsz+zlywUL5N49L3wBQIEokO0YP3i5RIHc2/WcpQNAgSiQsqaOny9VILeefsbiAaBAFEg5+6bPlyyQW7c8lguAAlEgpew5f758gfz8ksdyAVAgFDY+f35bBfLzsw6DAKBAKGjv9PltFsg9h0EAUCAUs+fDD7dbIBscBgFAgZDf1PyHQQrEYRCg34YtAQpkcOyb/ihQgaw5DAL0Va9lDVAgg2L84EcfBSuQNYdBgP5p1rNszDKgQAbD7sWPQxbI2prXxAB90mhlWTZiHVAgA2HPxx8HLpA1r4kB+qKbbWpaCRTIANwAOf5J+AJZe955VKByzZEHAWIbBgUyCDdAPvkkRoGsPbvD2gLVao/+N0Bsw6BABuAGyKeRCsR5VKBi3ex3VgMFkvgNkE8/jVYga/9wHhWozv92YDY1LAgKJOkbIFeiFsgLlhioyu87MJtqVgQFkqyZY1euRC2Qpx1GBarSzf6obklQIKnat3jls7gF8leLDFTjjzswDoKgQBI2dfizjf6IWyCGswPVaIz+X4A4CIICSdOec59FLxBDyYBq1LItmAiCAknQocUff4xfIG6BAFW4/x6YLfSsDAokNVPzS0sVFIhbIEAVNt8DswVHUVEgiRk/s7RUSYG4BQJUoJY9wqi1QYEkZfbcUjUF4hYIEN9wPXskq4MCSci+xaWlagrkabdAgOgmW48OEK/HRYGk49D8559XVSDGoQLR9bLH8TguCiQRu+d/+ryyAjEOFYhtuJMpEBRI+qYW3vupwgLxTjogsrFWpkBQIIPQH+9VWSDPWnIgquZElikQFEj6/fHFe9UWyDMWHYip3ckUCApkAPrji4oLxCvpgKi6rUyBoEASt3thebnqAnEMFYhpixfhKhAUSGIOzS8vV18gf7fwQDzt0UyBoEDSdvLl5Tt9KJCdVh6Ip5blNGytUCB9MTP71u3by8vVF4g9GCCeZj1vgJjKjgLpi6mFN+7c7k+BeA4GiKbRyh0g3kyHAumD145evHOnTwXiORggmtw7MBvqlgsFUrGZ2bcu3u5bgZhFBsQy3CkQIFnNgqFAKnVo4eKm/hTILa/EBWKZbBUJkGzSiqFAqnNk9q2vvupngTgEAkTS7GXFNK0ZCqQqrx2+du2r/haIF9IBcbQ7BQNkxJqhQKqxe+GNa9f6XSAv+UsKRNFtFQyQbMyioUAqcOTVN6+9c63vBSJAgChyjmG3CYMCqTg/Xn/5n+886I/+Fsguf0WBGPKOYX/YhGVDgcTPjw0pFMgus1CBGGpZCUayo0Bi2v0gP9IoEAECxFBgDLtbICiQavLjzJvffPNNMgUiQIAYGq0yAdJyCwQFEsfMyQNvf/311wkViAABYuhlpXStHMS4+fHq0QvffvttUgVyQoAA4Q13ygWIWSAQ3JGTB96+sCGxAvEYLhDBWKtcgHQ8iQtBzZw88Oa7Fx5Iq0AECBBec6JcfzgEAmHvfZw5/e59KRaIAAHCa5fcgclG2xYPAn0NXz9w9t8bUi2QF31EQHDdkv1hCwYCee3ov+5LuEC8jA4IrswY9gd6Fg9CmDlw82baBTK316cEhNYYLRsg3kcHQbRP30y8QOZ2+JSA0Gpl+6PlCAgE8fp3NxMvEHPIgOCG66WPgHgIBh5zW6NR69VzvbBgZuS71Atk57gPFAhsslU2QCacQYWtor4xVpuoj+YfF9w4+13qBXLMxwoE1uyV7Q+T2OFP4TFZq43UHz5U1cm1T/nqDz8kXiBzHoIBQis9BCRrNaweDDUajW6tVq9v+U3q5blNOHP0h9QL5JQzqEBoYy1HQKBYcGwmR61Xr9dHQ1R6Y/9K6gVywhEQILDyQ0CyrE5eEzUGU+/hj7F4rI/kOifVW1lJvUCOuVYCgbVHMyCOVq5zUkdOr6ReIHP7XCuBwGp+JCCWfNuUk/tXUi+QXc+5VgKBd2DqfiQgllqeL+HMgZWV1AvEDgwQWvkhIMCTXhed6whq+/RK6gViBwYIrudHAmLJdwS1u38l9QKxAwOEVn4ICPAErclc26Aj16+nXiB7XCuBwMbswEAs9VxHUNtnr6deIKf2ulYCYW1nCAjweLmOoA7Vfr2eeoEcM4UMCL0DYwgIxDKa6zUwzfqvqRfItCOoQGhdPxIQS67XwAw19v+SeIFc2ukGCBB6B8YQEIgl3xHUodovvyReIG6AAME1HEGFWOq5boAMd1ZTL5CDboAAoRkCAtFugOR6DczQZGs18QLxCAwQ3LAhIBBLJ98R1N7qauIFsscNECA0Q0Agml6uL2G7s5p4gZzY4VIJBNac8CMBsXZgcr0GZuNfAatpF8j0rEslEJohIBBNvtfANEfWV9MuECdQgfAMAYFoN0DGcv4rYD3tAjnhBCoQfgfGEBCIpZPrNTBD3fX1pAtk+hVXSiA4Q0AgmnyvgWmOrKddIJ6AASIwBARiGc13BLXRWk+6QA5OuVACwRkCAtFM5DqCOlRbX0+5QOYdAAEiMAQEYsn5Gpjh+nrKBWIEKhCDISAQTT3fEdTJVpZwgZxyABWIwRAQiKab81u48Z8mWyAegAHiMAQEYsn3Gpj7GsneA5n2AAwQZwfGEBCIJd8U1N++ikkWiP4AIjEEBOLJOQf1t9uR6RWI/gBiMQQEkrkLsjmRPaUCWZzVH0AsnsKFuEbbBb6QSc1EXXT+FIjJJDKIrFvkG9ltJVIgx/UHYCMGBlu90E5MJ4UCMf8UqILDqBBXq1HgC9mc6HuBCBKeKQAAA/BJREFUeP8LUBEP5EJkvSLfyLFWPwtk0eMvQIUMJYO4OsMFvpDtTt8KZN7xD6BaBrND5J2YQqNBen0pkHMLu10Mgcp3YrycDuKaKHIgdbJVeYGY/gH0idEgEFeh0SBHOtUWyMIhF0GgbzsxRoNAXIVGg9SqK5Djr7j9AfSV0SAQV6HRII39lRTIuTNOfwB9N2knBqIqNhqkHr9AFva58AEpMBoEIis0GqQWt0AO230B0lHzCwFRFRoN0jgbrUBenp1ywQNSYjQIRN6JKTIapDkSpUDkB5DiTsyInwiIqtBokG7wApEfQKqMBoG4/tPe3eumEURhANWIfQlEsY07VnQgEUTFE1DQgFIiFFO4cYXbyFUeOr9KjINtZnZnZPA5j3AlL5/3zn4TVQ1Sf+0ygezuxQ/gHW9iVINAXjHVIItNRwnk8ct24fkGvG+qQSCvqGqQybp9Alnq/QAugmoQyCuqGqQ+tEogj7v7W0814EIMVYNAXjHVIItpcgLZr7z8AC5L8AsBWUVVg2zXCQlkuXLjHHCBKtUgkHcTE1MNcnuISyD71WfnToELpRoEMouqBpmem0C+7bz7AC7c2IFUyCqqGmS7fjuBLB+cOgWugWoQyCyqGmT/WgJZbu68+gCuZxMz8wsBWTUxm5jV6QSyfxA+gKujGgTyiqoGqdbHCeTQrLbWLsB1GtrEQF4h4g/yU/M7gaz3m9W29oACrlrwCwFZRVWD3P2IHr60BT6GyiYG8m5i5p4zACf0lbRDnrcfvV6vCSGMPWYAThonP2GbCvjf0GMF4Bx1ckl7VO0jAMBT6dUgN/7ZAwCSTVIPpEb1HQAAHEkvaXfMDgBIN3UYBAAoL7mk3WEQACBdcjXIQIE0AJAuiCAAQHlVYjXIyFkQACBdv0mLID2jAwBaSCxpDyYHALSQVg0y8EEMANBGWkn7zOAAgFaSStp9DwMAtDO88RIEACgvoaTdF7kAQFvxJe3uqAMAWosuadcJAgB0IFjDAADlRZa0z00MAOhAXEm7XlQAoBtjB0EAgPIiStpHpgUAdCSipN2wAIDOnF3S7nY6AKA7525iKqMCADo0lUAAgPLOKmmXQACAbp1zXa4EAgB0LUggAEB51UACAQCKe+u6XAkEAMghSCAAQHn1SCcqAFDca9flmg4AkMvYzXQAQHkvbWJ6RgMA5PPCJiaYDACQ08nrcifmAgBkdeq63NpYAIC8+jOfwgAA5T3fxDiICgAU8GwT4yAqAFDC8SZGJzsAUMaTTczANACAQv5tYhrDAABK+buJ0QYCABT0ZxPTNwkAoKBf98RYwgAAZf28J2ZuDABAYcGXMABAeUMjAICP7DsOAqIc/Q4d3wAAAABJRU5ErkJggg==;" vertex="1" parent="14">
          <mxGeometry x="109.39024390243902" y="238.58714285714285" width="141.45371428571428" height="38.98428571428571" as="geometry" />
        </mxCell>
        <mxCell id="L0ZQ6DjtJ8MIK-CHPv04-67" value="" style="shape=image;verticalLabelPosition=bottom;labelBackgroundColor=default;verticalAlign=top;aspect=fixed;imageAspect=0;image=data:image/png,iVBORw0KGgoAAAANSUhEUgAAARgAAAEYCAYAAACHjumMAAA0z0lEQVR4nOydB5hbV5n3//eqtxlN9zTb4xL3GjsOSWzH6QVCOiyEsLQNLLDALst+S5ZlF7ILWTpLhwXCA4GQBiSkkObEOInjXpK49zrNo96l77nHZyZXulczKvfqSjPv73n0JDoaXb0ja/56z3veIoIgCEInSGAIgtANEhiCIHSDBIYgCN0ggSEIQjdIYAiC0A0SGIIgdIMEhiAI3SCBIQhCN0hgCILQDRIYgiB0gwSGIAjdIIEhCEI3SGAIgtANEhiCIHSDBIYgCN2YaAJjNtoAgiDGJ1cDeAWA22hDCIIYX/wtgDiADICDAFYYbRBBEOODSwEkubgM34YALDfaMIIgapvLAJzJEZfhWxTAB402kCCI2uRKAKk84iK/fdFoQwmCqC1WAujNFRPRJOQTmR/TCRNBEIWwTBbQHbk1ttsz//Sr8zPNXY58IvM9ow0niPGGyWgDNGY6gMcANMkXp8yvw8e+twhNHQ4sv64Nfcci6D0czn3uBQAWAlgLIFRRqwlinDKeBEYSiHUA2uWLk+d6cNe3F8JZZ2H3zVYRC9e0wN1gwcFtPqSSGfmPzwFwC4BNAI5V2H6CGHeMF4Gxcc8jS1wcHjP+/nuL4G6wZv2wIAiYPLcOnTNd2PpMb+61GgB8AMA2AHsqYDtBjFvGi8B8i2fqjtAwyYa///5iNHU68j6ppduJ2Rc24sBWH8L+pPwhAcANAKR91EYeoyEIokjGg8C8H8BXchc//LUF6JrlGfPJ9a02zLukCVuePoNELC1/SHJ7rgEgXeRpjW0miAlBrRc7rgLwE/mCySLgjv+cg55F9QVfpLHdjnkrm/M9PGecCDFBVJxaFhgzz1/JCrCseW83llzZWtSFXl/Xj9ceP632kLQ9upUn7BEEUSS1KjCSuDwAYLZ8cfbbGnHF+ycXdaHjewL4/b171R56jNcx0ZE1QZRIrWavfgHAzfKFGefX44P3zofJLBR8kT2vDeLnn9uFZFwRw/0ugH/mCXsEQZRILQqM5LX8i3xBNAm49XOzihKXsD+B3355t5q4/ALApzSylSAmNLW2RaoH8Aee9zLCpX/ThZbu/MfRuQSHEvjBx7cjMJDIfWgtgM9oZCtBTHhqzYP5BwCz5AveNhuu/OCUoi7yxI8O4tQBRWhlB4CrAChUhyCI0qglD6YHwKflC3aXCR/62nxY7YWfIm947JTaiZGkNneSuBCEttSSB3MfgEb5wsW3dKBjRuEtdtmJ0VdUT4y+DGC7BjYSBCGjVjyYW3mPlxG8rTasend3wRdIJtJ45Bv71R56HMC3NbCRIIgcasWD+Xzuwnv/Yw7cXkvBF/jTdw/gyC5/7vIeftxNWyOC0IFa8GDWAFgiX1i4pgXTFhdeCrBnwyDWP3wydzkF4OMkLgShH9UuMAKAr8oXLDYR13+sp+ALRENJ/P6rirhLUnKCADynkZ0EQahQ7QJzE28kNcJVH5yC5q7Cc17WP3ISQ2diucsP8BtBEDpSzQLjBPB1+UJzlx2r3t1V8AX8A3G89LvjuctDNEmAICpDNQvMzTz3ZYQL39kBs6Vwkx+4Zw+CZxUhlg8BOKCRjQRBjEI1C8wH5HccHjNr2F0ou17qx+4Ng7nLjwN4RCP7CIIYg2oVmPl8KuMIV9w5WdFbdzReuF+1ZzdtjQiiglSrwGTFXjyNVlx0S0fBT972XB8O71DkvEjX3KKRfQRBFEA1Csyc3AbeS65sKbjeKBZO4iFlA6mjAP6fhjYSBFEA1Sgwt+UunH9N4bGX1/58BpFgMnf5W9T2kiAqT7UJjImf8ozQPcdT0HQAiUQshRd+czR3+RCAH2poI0EQBVJtAnM9gKymuosubyn4yesePAFfr6LL5c+knZNG9hEEUQTVJjD/KL8jCMDC1XnHiWQRHErgufsU3kuIt3kgCMIAqklgZgBYLV+YvtQ76mRGOTtf6EM0pAizfAvACQ1tJAiiCKpJYK7KXVj9rsLLArYoZ0z3AfgfDewiCKJEqklgrpTf8TRZMefipoKeGBiI4+A2X+7yw9JDGtpHEESRVIvA2HO3R7MuaGAxmELY+WK/2vL92phGEESpVIvAvAdAg3xh/qrCvBeJzU+fyV1aD2CdRrYRBFEi1SIwd8jvSJ7L9KUNBT3R1xfDYWUrzHs1tI0giBKpBoFpzm3ofd6KBjg9hbULfvVPp4Ds4YzHATyhrYkEQZRCNQjMitzm40uuaC3oiZlMBhskgcnmWSoLIIjqoBoEJqslpsksYN4lhcVfzhwKw9enyNx9VkPbCIIog6oTmI4ZLjjrChtHcnCH4mha4kWN7CIIokyqQWDOl9/pml1YYaPE8TcVaS5beQyGIIgqwGiB6QSQVc3YOavwUbDHdisE5lGN7CIIQgOMFpjFuQvdRbRm6D0czl1+TCO7CILQAKMFZoX8jt1lQnuBw+z3bx5CMpF1Pn0awDaN7SMIogyMFpi58jtTF9azU6RCUEmue11DuwiC0ACjBWaO/M6Mpd6Cn3hiTzB3ab9GNhEEoRFGCowFwEz5wvQlhQvMyf2h3KVDGtlFEIRGGCkwi7nIMEwWAR0zXQU9MRFPw9+v6IJJx9MEUWUYKTBZCXaNk+wFj4UNDsaRySiWFTUDBEEYS9UITHN3Ya0xJVTGkkgMaGATQRAaYvQWaYSmTnvBT1TpvSuhWjdAEIRxGCUwZgCz5AsNkwoXmERUVWAUx0oEQRiLUQLTA8AmX2jpKnyLlEoqAzAAFGXVBEEYi1EC05m7UIwHk0qRwBBELVA1AlPXYi34yWl1DyZRpk0EQWiMUQLTIb9jtgpw1RfWA0Yire7BEARRZRglMJPkd5q7nRAKnVECQFC32uiyB4IgcjDqjzKr6W4xAV4J0aQqRiQwBFFlVIXANLQXHuCVMKkLjKlMmwiC0Jjq2CIV6cHkaelQ3EUIgtAdowQmq2za22Yr6smiWdXs4i5CEITuVIXA1DcXfkQtYbWr7oaK22cRBKE7RgiMBUCdfMHTVKTAOFTNLqzXA0EQFcMIgWnLuicAbm/hOTDI78EUPu+EIIiKYITAZAV4bQ4TTOoxlbzk8WAKn3dCEERFMNyDsTmLP122OVUH45MHQxBVhhECkxXglTyYYpGeY7YqjqoLb+hLEERFMEJgsgK81hIEhl1EGRhuLMMmgiB0wAiBaZDfKWWLJOFVtndoLsMmgiB0wHAPxmIrzQSV3BnyYAiiyjBCYOrld8zWEgWmRZG421KGTQRB6IDhHkypAqNSIElbJIKoMowQmCxlMFsK7wMjp1EpMOTBEESVYYTAZAVPRFNpJjQqg7ytZdhEEIQOGFWL9JYBJVqgskXy5sZ3CIIwFiMEJis6K4ilbZFsDhNc9YqM3vll2EUQhMYYv0UqUWAkPM2Kk6SZJV+MIAjNMXyLlKeBd0GoZPOeV/rVCILQGiMEJus1S90iSdQpk+3IgyGIKsIIgckaalRqkBfkwRBE1aPa90BnsgSmHA9GJZtXEpgv8ZyYFtmpUgJADMAZAKcBnATwBoCdAHwlG0AQxKgYITBp+Z1MuvQpjd5WhcDYAXyhSFv6AewBsB7AKwDWAThbslEEQYxguAeTTpd+IRUPplhEnqAn3VbytSiABwH8D4Bd5b4AQUxkDI/BlOPB1Cs9GC2QvKD3AdgG4EUA7889+SIIojCM8GCS8jvpMgTG02iBw21GJJiEXRDQarKiwWRGnWiCUxRhE0SIEJBBBrFMBuF0GoF0EmfTSfQlEwhlRnWfTABW8ds3APwvgK8BCJdsMEFMMIwQmJj8TiZV2kWERAZ1OxL4dFsnetwWTLfYixqgLyGJzBvxMF6LBPBC2IdofsFpAvAfAG4CcCuA/aVZTRATC8MFpmAPJpWBe3cSnh0JuN9MwnUgCSEFTEddTm5w4bSYLVhtrsdqZz0+0dCOnbEw1kf8TGyCaVXlW8TjMvcC+C8A8dJemSAmBkYITNYf5VgxGCGZQeufo2h9LApzsPTt1Fg4RBMucHjY7RMNHbjf34v7fX1IQPGaNgD/zr2Za/iRN0EQKlStB2M7lULjSzE0vhSHdaCMo6YSsAgC3l/fhhvcTXjI34dHg4Nq26cFAF4C8HEAT1fUQIKoEYw4RcoSmFQyW2DESAYdvw5j9md9mPRotOLiIqfBZMZHGtpxf8cszLE61H5kOoCnAHyg8tYRRPVTaQ9mCYDV8oVk/JyAiNEMGl+MofXxKGx9xomKGl6TGd9snYafDp3GI8EBtR/5AYAgz58hCIJTSYFZwb/tswakpRIZWM6m0fO1AFwHSzxSqgA2UcQnGjuwzOHGl/qP5W6Z7ADu597Zn4yzkiCqi9KGEhXPHQAeUZsffZ3oxeXPirD16xfA1ZIuiw1L7W5si4UQyD5pEvkR9j7KACaIc1RCYD4M4P9ys2HrRRPuburGDZZGiNXruKjSYrbg7e5GnEkmcDARlT8kvZ/vBOAHsME4CwmiOtBbYG4E8Kvc1+k0W/HjSTNxns2p88vrh0kQcLGjDieTcTWRuYZ7MW8aZyFBGI+eAnMDgN/nei5zrQ7c0zIVzebaL+8RuMj0puLYny0y4MHsv/AWEQQxISm9GcvoTObFgllzqBfYnOw0xlRkSn+1k8pkcNfp/bmejEQvgNnU/oGYqOjhwXTzBLR2+eIcqxP/2TIZLrFSceXKIQoC5tucWBv2saJKGS4AHQAeNc46gjAOPf7afwHgbfKFHosN35s0A+5xKC7DNJgsuMDuwZPBs8jJ4lkE4BCA7UbZRhBGofVf/CcBfEa+9XIIIv67gJiLva0FdbNmoG7WTHh6psDW3AhkMkgGQxqbqB8NJjOsgoDN0WDuQ1fyY3rVLD2CGK9oGQx5h1qS2ReburHa5VV/cVFE84rz0bR8CWwN6j8TOn4Ch377CFLhiIam6kcmk8EPhk7h4YBCS9bzrnm1kfBDEBqglQcjCdXDufOh3+Vpxi11eWbSCwKm3v5OtKxYBrNDMQZ2BGtdHQSzGYH9hzQyVV8EQcByhwfrw37W2ErGZN7z94Bx1hFEZdGq2PHLAObJF+ZbnfiQd5LqD1sb6nHe392J+tmFTRlpmD8HKGP6QKWRLL1L/Xf/l8pbQxDGoYXAzAZwd+7iXQ2TYFY5jhZMJvS8+2Y4JrUV/AJmlxP25ubyLa0gyxweXOdqyF1eA+BmYywiiMqjhcD8Y+7CLZ4mzLW5lC9mtWLaHbfB3ppn2zQKlnpP6RYaxF0N7WgyKepJv82Prwli3FOuwNQDuFO+0Gqy4GPedtXoceslK+CeOrmkFyq232414BFNuNnTlLvcLWmwMRYRRGUpV2Dez1tIjnB7XTNLPMvF0d6GlguXlfxCqVis5OcaybWuRriUE/4/Yow1BFFZyhWYv5XfcQoirnM1Kn5IMJkw9fabIFpKrz+K+/wlP9dIvCYz3lvXmrt8CYDFxlhEEJWjHIG5hHeoG+GjDZNgV5lm37hkAazeupJfKJ1IIOELlPx8o7mprkktFlPMiFuCqElKFRhpD/R9+cJUiw3X5/Fe2lZdVKp9jGj/IMvqrVZSmQziowxxs6l7djcDWKi3bQRhJKUKzMLcP47LnF7VQKxnRg8sHkUju6KI9Vdvhv3eeBjvPbkHNxx/A/f5ziCdRwhXO+vVlq/X2z6CMJJSBeba3IWLHepboIaF80p8ibeI9vWXfQ01JClYH/bj3/oO457+o3gzVtxU2L2xMD515iB6UwnEMxnc5+tljcHV6LHY0G5WTIi7snTrCaL6KVVg1sjvzLDY0WNVpvuLVgvqzpteqm0jRE73ln0NNV6N+PGF/iN4ORLA82EfPnHmAHbFCi+u/H2gP7c9A1s7EFfWTUne3fnK3CBp76g6D4UgxgOlCIwttx3D9W5l7EWiadkSiObyBxfoITAZZPArX2/OGvDdwZMspjIW4XQKr0SUgWfpmd8cPKG6VVpiV2wVbbxIlCDGJaUIjOS9eOQXuCJPtXTz8iXl2MZIhsJIBhTtD8rmjVgYe1Q8jf2JKJ4Ojd2A7tVIAJE8gd034xEcUna3wwKV7GY+gpYgxiWlCEzWN+50i121S529tRlWr2pgsyj02h49FcwvIr/x9Y3pxewcYyu1Lap8vMlsYQ3Pc7jcoAmbBKE7pXywr5DfmWVTDyG4ujtLtSmLyGl9emZvURGAYU6l4jgQV3ogco4mRs8s3pdQicMAWOFQ1FS18FYOBDHuKFZgGgDMlC/0WNR7uTi7OsqxawQ9PJh4Js1EZDT2qwiEnJxeLwpOJtWvf74yDoPcVhcEMV4oVmBm53bBm2HR14MJHT2uyXXkBFJjT3pTi6HIGeuN60smVNeX2t2wKEtBSy/SIogqpliBmZq7MEkZU2DH09ZGRS+Uoon7/Ej4tS8RKKQwezA1uofiFkc/HUvk6YxpE0R0WhTv2fyxLSKI2qNYgemS35G+iRuVNTZse6RFewW92mTalNXNCkZL/ZfoUhFWOcIoMeJpym0lFT4S45JiBSaruUm9aFIdoubsUG+VWSyBg4c1uU4uLtHEKr9HY3R5AeaMMfZ2tPlPM6yKbeUM+dE/QYwXyhIYj0n9j8jRVng7zHxkMhkEDx8t+zr5mKn8I8/CJYzeD3253T3qSIaWUca0zFAPjJefNEQQVUaxApP1LevJ8y1ta1HP7C2GhM+v66iSZeqnOSOobf3ktJqtLAcoH1MttryP5RG35aO+IEHUIMUKTNbXslpTb7CpAeqZvcUQ7dWnwHGYK1zeUWe2TB1FPIZZpV4hzVhkyy9g9SazmhdDAkOMO4oVmKyvZZXjVog2K0zW0QOghRA+earsa4xGm9mKi/JUgEtvynLH2C0mbvI0YYpZ6anMsjpwoTKhLotr3IpTtkspo5cYbxT7gc5K7lALhGohLhKxgbHrgcrlJmVDbsbVrgY0mcZu7+kSTbi3dSrqZFtFlyDiP5on5/Xuhlmp9H7aAFxYmOUEURsUKzBZ+fExlaNcQYPqaYn4kE+T64zGIrsbH6hvy3oTOs1W/F2egXFqtJqt+HbrNFzvamC3r7f2MO9oLFpMFnQrvZ93F249QVQ/xapBVtQ1txcK+LxpLUhUYOi95GO8r76VjVr56dBpdFms+OfGLhYjKYapVjv+qamr6NdfYHPiWDJLsyWB+XQBp+QEURMUKzBZvSt9KvU4GY1656YilRt2f7W7gd0qzXybE09kt4ZoAXA+gI0VN4YgdKBYdyPraGdIJZ0+kxw9xb5Q0vHRixHHA3lOmi6tvCUEoQ/FCkxWw9loJoNgjsikNBCGTCqNPKU844pJFovacfXlxlhDENpTrMAoioNO5rQ9SEdjSCfHrlYe3araGxNbCgIEta3ZagCj1yEQRI1QtsCcSCg9lthgeUfMrFBSo2BxtXOF0wtrdj6RnY/kJYiap9i/4qMAjskX3ogrR31o0cNFtGhz3F3t1JvMWK5Myvs8AG0SigjCQEpxE56V39mv0loydORYOTYxzM6Js0tYrqyL6uIjTQiipilFYJ6U39kbjygS7oKHjiCTLi+Vw+yaOAKzwuFRq8ymcSZEzVOKwDwmz+iNZNLYkDMfKBkKlz3udSIJTJvZqtaE6kZjrCEI7Ri96Yk6ST7ydMrwQjidwhWu7NMQW3MTXGU0/o6cPI3w8ZMlP18wm9HxnlvQfvtNsHV2IOnzs1u10p9KYEf26NoGnnC3zzirCKI8So2krgWwavjOa9Ega3Itb7IU2H8QLSvOL9mwcnv6tt10PWb91xey1s6+uhHHfvRLDLy4HihzC6c1K531+LW/L3dZ+gWeMMYigiifUjwY8JqkD8sXusxWzJK1kUz4A2hcvBAmW2mHIelYDGe3v16ieUDXB94Lz7zZWWuOrk603Xg92m+7Ac7pPSyZL3riJJAyXmwaRTNejQYwkJ242AXgDwD0GQ5FEDpTqsCcAHA9gJHZJL2pON7haWTJY4x0BtGBAXjnzympAbjJ5UTfKxuBEmubJA/GlWfwvrnOg7qF89B243WYfNcHUH/+Iog2G5L+IJL+ym6jIuk0G5a/LuLHqWQcp1OKcSdp8mKIWqWcZJMv8YAv42Aihk2RYFZOR2DfQdY4ytVZfCzGZLXCNbmLnUiVQuLsUEE/J9qsaFqzkt0kAjvfQN+Tz6L/Ly8gtO9ASa+t/kIiHN2dcE6bCvfcWXDMnomL/uZ2HA6POXf7VgCfpAprohYpJydfeq60h5kzvNBjseGHk2bAKuvY7503G1NuvaGkF+h7bQtOPvlsSc913nANFn3tS7Dbx259mY94/wDCBw4jcuwE4md6Ee8bQCoUyi7EFASIdjtMTidMDjvzvMz1dcxLsnjrYamvg6WlGdamBog5zbhWrVqFdevWFWLKhwD8vORfhCAMohwPRtq7/AbAPcMLhxIxvBwO4FLXW93ahl7fjbY1l8DeVHwj8IYFc3DyqedK2iZtfvARXPbz7+OTn/wk7r77bng8xU8FsTY3sZu3jGD1aKxcubIQgdmV2wuZIGqFcgt+fgkgK5X3oUAf0jmCcPrZF0u6uNnhgLOzvaTnzrQ64IklcO+996K7uxu33347fvvb38Jf4RjLaEgCo8JrAL4I4O28jeYCAD+uvHUEUT7lCswJAH+SL7wRj+DJYHaxo2/3Pgxu31XSC7h7ppT0PLMg4N11Lede3+fDgw8+iPe85z1oamrCHXfcgc2bN5d0XS25+OKLYVLOllrL41t/BqD95H+CqCClniLJOQbgg/J4zvZYCJc66+GRtZ4M7D8Ez8xpsHjG7tYvR7RYMLh1R0mG9VjseDp0FmFZKUM6ncbOnTvxk5/8hHk0u3fvRjweZ16OVaOG5YVis9mwadMm7N27V74sif7/VdQQgtAJLQTmBM/XGAlUJJDBUDqZPTconWblA42LFxR1cUmQBjZvRzquOL4dE8mLCaZTuRmyIwwMDGDjxo144IEH8J3vfAdbt25lHkVPTw8slsqEPURRxEMPPSRfkvaE3wYw/lv6EeMerTo7SUqyBcC04QXpa/jupm6scWUPYWt52zK0X7mmqNyY4088g4GNW0syrC+ZwJ2n9qg2KM+HJDLz5s3DsmXLMHfuXMyePRszZ87UXHhSqRSOHz+OWbNmIRbLav79EQA/0+yFCMIgtGwddxmAZ+RxHeniX26egouc2QPOOq66jAlNoUTO9GHvj35RsmG/8p3BL33lhzMk4Wlvb0dbWxuL5Ug3j8cDh8MBl8vFvJFhEokEE41oNMpufr8fQ0NDI/+VvCefz8e2bCrsBLCwbIMJwmC07k35LT52Y4Qmkxm/ap8Fh+yPTzCZcN5dfwt7i/rgMzUO/e5R+PeUVvcXS6fxvlN70K/SpLyK6QFw2GgjCKIctIjByHmOF0FOHV6IZNIsBX6lo+6tbVEmw06WvLNnsuS0QnBMasXglu0l5cSYBQGL7W48Hxpi8aEaQdpylhbdJogqQWuBkfz9VwB8VH7tw4kYBtNJNq95uFYpHY8jNjiEhgVzC7qw2elE+NRpxPoHSzJseBTslpj+A900QPol9wIoLYGIIKoEPRrfSn8Y1wF4GMBI8OXx4CCb23xXw1uJc4F9BzCwdQealhQWbmhZsQz+3ftLNuwWTzN2xcKsatlgfAC+zgfZDfLbGX5/IDd5kSBqFa09mGEOAvDziusRXo+H4RREzLO5RtaCB4+weiWzwzHmRa3eetaEKl5gIWMu0lbpUmc91kd8OJsuc7RKeUj7wq0A/pvXcx3kAhPgDb0IYlygl8BIbOb1SivlJ0ubo0E29L3Hei72kkmnMfTGHtSdN72gRt/O7k4MbtuJTKo0gRAFAQvsLqyP+Fl8yEAu4pMyaUwsMW7RU2AyPIYguSsXyx/YGA1ijaseHvHcDi0dTzDPpHHJwjHzY8wOO1KRKMLHTpRsWIPJzJIA/xIaQlyjWdolcjWA7QD2GGkEQeiFngIzzEu5J0tJZPBS2IcVjjo2F4itBUMInzyNutkzICrrc7KwtzVjcMfryCSKz+4dxi2aMNfqxMsRv5EiI/J+Lyf4lokgxhWVEJgUL4iURKZ7eDGcSePViJ95Mg7xnBnxwbMsqc47dxaEUSY7mqxWuKdOxtDON8oajzLJbMXVLi92x8M4o+wkVylEPqIkBmC9UUYQhB5UQmDAe/j+FsC7AIw0hglm0jiWiOFyWTkBE5nefhb4HW27ZPG42daq3CmSkritdnqxPuyHz7jAr/SLXsG9vCeoex0xXqiUwIDVQAIbANzOT1EYx5NxnEkmsNzhhokLSqx/kMVZ6mb0sI5x+XC0t7Jj61QkUpZhFkHAxY469KXiOJKIlXWtMlnM41V/BVDegG+CqAIqKTDgsYZnANwpz8HZn4gimcngfFk/3/CJU+yLXdoK5UO0WOCZ0YOBLTvKHkPiEk241Ollb8hWY5PxegB8DMBuAG8YaQhBlEulBUbiFO8h8055LdQb8TCsEDHP5hzZGoWOHIPJbht1gJvZ4WCjUQL7D2li3AK7G4ttLhyIR1n2sUFI/y43AZjJT5nG8makPeY1AP6Bz1J6kufUEIShGCEw4H80fv5HwcgA2BwLsuJI+XylwIFDcE/tZkl2+XB0trNBb4nAmB36x0Tgwd+r3A1spMjueHnbrzKQ/m0W8WZep/h7lsvVAP6Lt9R8H4DlvDfP9bxpFSXtEYZilMBIvKqWI7MtFkS72TqSiAcuMq6uTljr61QvJHk8jvZJGNq1u+QEvFzMgoALHB4st3vYWNeTScP6P9n4nOoreRzrVgCfA/Bd3jdmvkpT8Gbez/cxg2wmCIaRAgMej5G+cZcOL0hfuS9F/LDgXMYteCLe4PZd7OTI2T5J9ULSY965s+Dbs59NhdSKFrOFzd1e7ajH2VQSR5OGBYG7+bZpNYAZkuM2xs8v5fGcP9OpFGEURgsMeLzgbQCyxjBuiYXgEcyYI9su+fcdhKO1GfaWZtULmR0O2FubcXZH6SNn8+E1mXGpy4trXY0YTCXYiJYaYDGAMD+VIoiKUw0CI327Psj/GM6TP/BaNAC3YMJcmcgMvbGX1SzlG2dia/DC2ug9F/TVYcC9SzSxMoMrnF5MMltYFvBAKmGIiyD9402z2HGZsx7vq2/FbKuTlWHk8DZeivCmASYSExytO9qVg4tnsi7KfeAbrT1YYs+eRtB57eVoviD/QLT+zdtw4vG/6GNp7mslE/hjcADPhoZ0zwiWto7Se3Gx04NLHPWsrkrOv/Yexgb1dhRX8S0pQVSMahIYCQ+AP/D+viPUiybWQHyZI3s646Q1l6Bt1UWqF8pkMujfsBmnnllbVjlBsZxIxHAgEcXBRBSH4lEWHJZEJ1hklrD0O7eYLCzg3WG2YrLFxobJTbXYWQA6H73JBD7be5AlMOZwkldwlzbsmyBKoNoEBjyn4zWeA5LFV1qmsAJJOZIX03HNZXnLCnrXv4ZTz67Vz9oCCaVTOJGMs+2UJDaRdHqkfadNEFnxpSQqzSYL2syWrPnexeJLJfHh0/swoOxBvImf2tFIFKIiVKPASDQBeJT3khnBLYr4bGNX9rwlAA2L5qP7HddAMCn/KCVP5uTTL6B/wyb9ra4idkSD+Ne+I2o9bzYAuIVnVROErlRDkFeNCN8qvZPndDDimQzWhn3oNNswTZYnEz3Ti1QshroZ0xQXkjybuunnOkWEjhyrlP2G02a2YqndjWfDQ8jZnHXxwO99dHxN6E21Cgx4X9rf8OzULOVgp0uiiPOsjpGtUfjEKcQGz8I9pYvVKGUhnKtpMjsdCBw8XNJkglqkxWxhsZu/hv25StLNs32fo6JKQk+qWWDAReZBPpZ2xvCi9I28IRpkAdQVDs9IFXa0tw++3Xvh6myHpc6juJizs50l44WOnkAyVBPTBcpmisXO3qONkQBC2dulDgC38dEoB42zkBjPVLvAgCf3PsyDkz3yBw4motgUDbJG3sNB0VQkyoblO9rbYG9uVFzM7HIykQnsP4hkSH1m9XijyWTBUrsLTwbP5noyHl7DtI9PkyQITakFgQEXmfsBTOYJeSP0p5LYFQuxfi42WRc83+59gCgwbya3O560hWpcsoC16YycPlO538JAGkwWTLXY8ErEnxuTkXg7b5/xCncQCUITakVgwAOSf+Jd37JEpjeVYPOOLnd5R7ZLSKcRPHQEcZ8f9bNmKhpXSaJTf950iFYbggcnxoRWabt0kcODF8K+3D7EkrhcyjOpHzbOQmK8UUsCA97V4Q/8eP1S+QOSyLwU9mOBzYlG01tB3uiZPiT8QXimT1X2+RUEuLo7YWtuZHVOepQWVBuSJ7PU5mJby5DyCHsegAV8GsTECFIRulJrAjPMWt606u3ymUu+dIpNK7jA7slKoZe2Qb7de1E/+zzWnCoXR2sLHB1tGHp994Q4YWo2W3C9uxFbokG2xcxhDoAPAfgLgNPGWEiMF2pVYMDHfOzmx60jLkssk8FTobNoNJlZav0wqXAE/r37YW9rVW1eZWtsgHfOTDY6JalB46pqxyIIWOmow9l0kpU25CC9cX/DPx9beB8agiiaWhYY8LGrv+LH2CNzl1IAXo4EsC8exQKbi1VAg58wnd22C8lIBO6eKYotk9nlQsPCeSy3hvUEHudbJpso4hJnPWZaHNgeC+Vm/dp4TdhtvI5pD9+iEkTBVGupQLE4+AmIohK702zFDybNgEfM1lJ7awum3XEba1SlRmD/IRz63SOadcirdoLpFD7Xe2i0FqGPALiDZ1kTREHUugczTJIHf2cCmC1/IJBOsSSz2TYnywcZeUIozI6ybU0NbHuUC9syzZ+DyJleJHz+yvwWBmIVRJZP1J9MsPwiFeYA+DBvJr6VvJmaoIHnjs3hJ4SzeIKlg/fE1v3bc7x4MHK+CeAzuYvSL/r5pu6sIW/DdFy1Bi1vW656sXQyheOPPaVLl7xqZW3Ih68NHlcrlBzmaZ6g11dZy4hR6ObFwUv5bQnvTJCPAO/r/N+866EujEeBEfkpyFflUyTBkj0E3OhpxPvr20biMsO0XHQB2teshGBWd+oGt+3E8SeeQSYxMRr1H0lE8fOhM/hrxJ/PVZE+lD8A8L8AjlbavgmMyD11SUQu4E3f5wFQb/E4NgMAPsknr2rOeBSYYSSX5HkAiiDLbKsD/9Paw3qwyLG3NqPnPbfmnV4QPHwUh+5/GOkyhu7XGs+FhnDvwHEk8++IJDfn6wD+jU6bdMPKR9S8A8B1ADo1vn6CN5N/RePrjmuBAS8t+Bkf+ZGFVzTjUw0dWO3KPrK21HnYlql+7izVJlaJQBDHH38a/r0H9LW8ihhMJfEbXy8eCw6OJjS9AH4J4Hs8R4konSYAl/P6uwt55roygUtbJC90rtYJluNdYMDT4B/n3wAKbvM04yPeSYo2lI1LF6Hr7Vepikwmk0Hfyxtx6vmXxv1RtpwTiRjuGTiGPaMPo5Me/BHfovZWzrqaR/qmexc/qbuonAOYFpMFs6wOTDbbMNVqR7PJDKdoggkChlIJ7EtE8afAAE4r+0dfC+Cpsn8TGRNBYMCj5p/jN2fugwttLny+qQut5uwvCXtbK7quuwKuyV2qFw0eOYYTTzyDaG+/fpZXGYlMBo8HB/Cgv1/tAyonxLOBHwLwRyo9UOABsIYHZlfyXC5zMRdoNJnZVIkedrOxfs2dFpsiJUONgVQC7zqxO7e6/uM8rqYZE0VghpnH38BVuQ9I/yjvrWvBOz1NrEfuCIIA74I5LACslgEseTMDG7fi5LNrJ0wAGPz3fiUSYNumTdHAWOedkhK9xD3JpyfoCJUpfLsj3VbwIK2t0Cc7BZF5JbNsDpYYeZ7VgQ6LreQ/4L5kAu8+uTt3w/thPnJYMyaawAyjepQN7s3c0zJFEQA2Ox2Ydue74WhrUb1g8MhxHH7gUaQiEy8PbU88jJ+cPY2tsYKdlLW8ZeejAHz6WmcYDu6ZXMdH/04p9gJ1ogmXOOqwxuVln0vLKNMkiuX7Z0/i4cBA7vIlfHSQZkxUgRH4GNZvyEsMhvGKJnzYOwnXuhsgyN4i0Wplx9ktK5bCZLcrLpqMRHH6+XUY2LxtQhRN5rI7FmYf2nURRTuIfET4pAPptpHPKz+kv6Wa08C94znSdxTPKF9WwHjfLCQvep7VyUYmX2B3s+1PvmkZpSJ5nn8KDuJ7Z0/mep17eCW9pieBE1Vghmnl36Kqw5UW21z4YvNk1OcMN7M1N2Lq7TfmHWEbOnYCRx78IztxmohE02k8HOjHA4E+BIsPgh/isZvnAbxQhcl8Jn6qcyGPm1zIM2RLmjPjEERWdHqpy4tldveoM6+04GF/P74/dCp3OcO9l5e1fr2JLjDgH4xP8YxGhVvSZrKwsaxXuhqyXVRRRPMFSzFp1UUwOZTeTCIQwOkXX8HZbTsnTD1TLolMGpsiQdakfUMkMFZQOB+nARwAsJ8PjTvOewhLfyX9PFFMqzfYyadYNPNckw7ZbTL3dierfU4KxSWIrGxljtWJCx0eFkvRW1QkIukUfuE7g0cDA2pv1ncAfFqP1yWBeYsreUGfavXjEhabmQpHbvtNqxXdN14H75zzVC8aOn4Ch3//xwnRAmI0JNd8RyyMp0ODeDbkGy2fpljSXIT6uOD08zT4EG8aPxwUs/BTGum/dXxUcb1MUFrz/duXi/QldYmjDiud9WzOeiUERU44ncK/9h3GzphqRcBL/LOvyzA+EphspA/aV3ipgeK9mWy2MW9mtbM++0MiCKzHb9uqi1SzgNPxBHrXb0Dv+leRSU2cvJl8+FNJ9mHfFQux6u198QjC+eueaopG0YzpVjvm2ZyYbnFgptWuSH+oJGvDPhZvGVQ2FgMvEH6PnhXyJDDqrAHwe/nQNznL7W78W/NkRb6BIIpov/oytFywVPWiwUNHceSRx1izceIt4pk0tkdDrI3nyxE/G7FbC0i+7GSLDYtsLtZ3SLq1mC1GmzXCr329+Lkvb1P79bztrK65FSQw+ZnC62vuVEvTdosi3uVpwa2e5qxpBmAJei1ovXgFa/eQewogeTN9Gzah9+XXkI7G9P8taowMMjibSuJIIsbmXkliczQRw5lkHH2pBPzpysazvKKJtfloNlnQarZgktnKPNl2sxUdZivsuX2eq4Dt0SB+NnQGr8dVt0RJnmn9BQBDettCAjM28wD8J89lUKRIDgvNbXXNioH10napacX5aFq6ECZbdk4VE5rXtqDv5Q2s0x5RGNF0GqdTcQylUvClk2y7JYmOtMWKpNOIZFKIZjJI8lsKGRakMTGPQ4BJAEuZd4gi7MK5m/T/btHE8k7qRDPzTJtNZtY8vtLxknJ4PRbCfb5e5gnmYRM/0ND8tCgftfPuGc/NvKRddUM902LH3c2TmcuciyQuHdddgcaF8xSPpWIxHPvjU/C9uUcfq4lxjySsPxs6jT8EB0YLnX8fwCcqaRfGUUe7SvAmn8vUrJb3MJhO4rHgAHqTCXRZbFm5M5lUCv7d+1h+jGgxwer1QjCde7poNrPKbVtTI2JnzyIZnBjTJonyCadTrFTjqwPHsCmW12vZwg8tvltZ685BHkxpXMW9GeVsWs7NniZ81Nuu6mJLYtJx1aXwzJyuiNH0v7YFJ59+HpkJVKVNFM+RRBR39x1hcapReIRPhzAsak4eTGkcAPBjnmexWC3x6s14BH8ODSKVyWCa1Z4Vn0lFIhja9Sb8ew+y5lVWbz1M1nM7L2dnOxqWLGAnUtHevgmbpEeosz8ewU+HTuN/z57CUP6A9yYAfw/gHr1PicaCPJjy8QL4Oa9tUsUpiPhMY6dqP2AJwWJGxxWr0bRsKQTxrX+SVDSGY489Bd8bFJ+Z6PhSSSYsT4bOjhZnCQH4IoBvV8uMcfJgyifKc2YO8YkGityZBDJYF/FjZyzExKbdbHtrhjbOzdEO7D+E/o1bER/yQ7RZWWc90WJh8RnP9B4mNrF+RfUrMc45nojhN/4+fH3wBHapHzuDC4v0Jfd+AH+upokP5MFoz7UAPsuT9VTf3zaTBW93N+JqVwMb46qG2eNG/eyZbHC/u2cy2zKFT51G/4YtbMRtJjlxes9MNOS9djZGA7lNoeT08pyWH/HarKqDBEY/bgTwEwDqDWT41un2umaWrOccpQuZ2e1Cy0XL0bz8fIhmE6L9Azj++F8QOkKtb8cbp5JxfHPgBDbnPxUa5lneYnOwMpaVBgmMvti42/qZ3IFwchpEMxuncrWrkWWL5sPksMM9bSrqZ06DZ8Y0RPv60ffqZgT2HaBTpxommcmw5LgngoNYn39MDPjW53F+5Pw8L/SsakhgKsdHeFl83iZE0j/GDe5G1uwqd26TGnWzZ6JpyQKYHA6cePI5RE6d1tpmQkcktdgcCeCHQ6dxSH2appxNPJ9lR2Ws0wYSmMrSzfuefoD/vyo2QcAqZz0uc3qx1O6CRRi93sXscsI1pRupWByho8eRmUBzm2qRWCaNdWE/HvD34cDowpLhXf5/COBJo4+cS4EExhicAP4BwL+MMd6TFdW9t64FV7kaaqouhlCSymRYOv99vl4Exy7aXAfgYwBqemYxfWKNpYlnWv4d74eal1aTBde7G1kvmu4yuskTlSWdybCeN8+FhvB8eAi+0YVFcj2fA/BT3sq1ao6bS4U+p9WBwEXmnnw9aOQstDnxvvo2LLW5NG8KTWhDhgduf+nrxZv581fkPAPgnwFs19+6ykGfzurCyqu23wfgsrF6v0rbp3OtGOtYN3oSG+MZSCXwUtjHclgOJ8bs93OG17TdB2BbZSysLPSJrF7aePnBHXxG8ah4RBMbdXGZ04sldndVNkIar/QnE2xUy4thP3aMPRtqeAjd/QB+A2Bcdx0jgakNZgD4d+7ZjIlNEHCtq5FVdHep9KchtGFvPILf+fuwLuwrpPAnxXNYvgBgZyXsqwZIYGqLuQBu51nCiwp5whSzDQvtLiyxubHC4YajgPwaIj9nknE8ExpiorI/ES0kCvsmgN8BeIAPN5tQkMDULksAfB7ALYX+O9oFkcVrrnE1YLHdlTW1khidzdEgHvL3sxlPBR7trAPwJZ7SP2GhT1jt0wzgen67cqy8mmFcgshGa8yzuTDX6sRcm4O8GxmxdJrFU16NBPBKxF/o0Lgz/Hj5IX7cPOEhgRlfuHly1kcBTCvmiSYILGv4SpcXFzrqFMP/JwrBdAqPBQbwu0A/AoVPMHidz9N60MjucdUICcz4ZTGAa/jsm5U8e7hgusxWzLE5MdPiwBSLjXXlazJVz8wfrcggg/3xKF6LBNg2aGcsVGinpt3cU3mcD+6v+sJDIyCBmRjYeXD4nwAsLPUibSYLltrduMjhwVybCw2yxua1xolEDM+Gh/Bk8Cx6i5uZ/VcAnwPwin7WjR9IYCYeXdyjuQTAKn4yVVLSTINoRqfFii6zjXk8k8xWdr/NZEW9aKqaxD9pq3MoHmWFhQfiEWyLhcZqli0nykXlCd4tbq++1o4vquMTQBiJG8AKAG8DcD5P6svbJKtQbIKAVpMVTSYz83SkW6N47r9ek5nFeNyC6dx/RZE1RTcVKUiRdArBdBqhTIqJyGAqicFUgv1XEpBTfDJkEbGUYQZ4sPZpfgqk+wTE8QoJDJGL5M0s5a0/rwKwnDfO0h2rIDDRcYpviY0FAkRBYEWDsUwG0UyazQOS/qtDV+u1AL4H4DEK1moDCQwxFi7ejW8x307N5QLUarRhGnCI56us5cWGx402aLxBAkOUyiQAF/Lt1QVcdArKwTGY7QB+zU9/dhttzHiHBIbQkkYA5wHo4cHkTn6bxD0e6Vav8+cuCeA0gMP8JnkpBwHs4/kqFE+pICQwRKVxApgMoEMmPF4uTg086OzgR+u52X5RXn3s50IxyG8n+fZGuh2lnBSCIIgJADUNIQhCN0hgCILQDRIYgiB0gwSGIAjdIIEhCEI3SGAIgtANEhiCIHSDBIYgCN0ggSEIQjdIYAiC0A0SGIIgdIMEhiAI3SCBIQhCN0hgCILQDRIYgiB0gwSGIAjdIIEhCEI3SGAIgtANEhiCIHSDBIYgCN0ggSEIQjdIYAiC0A0SGIIgdIMEhiAI3SCBIQhCN/5/AAAA//9Fn6BledXACwAAAABJRU5ErkJggg==;" vertex="1" parent="14">
          <mxGeometry x="286.0975609756097" y="227.85714285714286" width="49.714285714285715" height="49.714285714285715" as="geometry" />
        </mxCell>
        <mxCell id="L0ZQ6DjtJ8MIK-CHPv04-71" value="" style="shape=image;verticalLabelPosition=bottom;labelBackgroundColor=default;verticalAlign=top;aspect=fixed;imageAspect=0;image=data:image/png,iVBORw0KGgoAAAANSUhEUgAAAgAAAAIACAYAAAD0eNT6AAAABGdBTUEAALGPC/xhBQAAACBjSFJNAAB6JgAAgIQAAPoAAACA6AAAdTAAAOpgAAA6mAAAF3CculE8AAAAB3RJTUUH5QEcBjID3QaYfwAAAAZiS0dEAAAAAAAA+UO7fwAAdZNJREFUeNrsnQd4lceV9+XY8caJE9ub9mVTNpt4sykYcNy7cTe9995NNQZMNzYYg8EGU12wwYCEJIQ6CBUkhCQkRJMoQkK9C9R7l843Z3RJMJaEJHTvzHvv/+T5Pc8+Xhve+87Me/4zc4qdHQwG08aI6C7BjwX3CX4l+K3gj4I/C/5u4knBCME4E9tM7BQECk61wEVqm+W18me43/D3bRRMNz1DX0E30/P9r+mZmV8Lfim4X3CP4E6MMgwGg8Fs0cEzPxL8xuQouwqeE7wsGCKYIlgu2CxwERwTXBJkCOpJf2sQ5JqemfEUOAm2C5YKxgv6C14QPCb4q0nkPMDvBgaDwWAwa3H2Pxf8Q/CGYKRggeATgb3giCBMkCDIItuxakGyIEoQIHAUfCl4T/C2YLjgVcFfBD/DTILBYDCYzs7+DsGDghdNu/jVAgeBjyBcEC/IFlQRrCVrFFQIMgVxglCBt+BrkzAYIOjOVySYcTAYDAZT5fD5nv55wWTBVsFZQZLJeRWaHFkjfHqnGF99FAuuCVIFMQJ/00nKGJMouAOzEgaDwWCdtaPnu/pfCP7HdE8/X7BXcMHk3OHg9Tk5yBf4CT4Q9DTFFvzGFEx5F2Y0DAaDwW61q/+T4AnBQMFC0zF+Enys4YxPYY4KtpiuZF43BVz+GjMdBoPB4PDvFPzuhnv7T0x3zrzDL4cPtSrj1MYTphOchaZMBA4y/CFWAgwGg9mO4+f0u1Gm3WGA6U65EEf6NmM1ghRTkKG9KcDwacG9WB0wGAxmXQ7/B4JHTDu/ANORfp4pHQ1m29ZgCjBMNxU6+sKUrnkfVg4MBoMZy9nzsf5/mo53+UO+y+TwEbQHa09QIZ8SBAmmmbIM/ouDQrHCYDAYTC+nf5cp4vsJU1rYblOhGRisM6yUmioyviPoYbpCQi0CGAwGU+j47zd9kBea7nK51n0d/BXMjNcFXJKZKziuEwwTPIiVCIPBYJZx+pybz81wllBTYxoO4KuAb4JZ2Lg4ERd9ChZsoqYqhb/ACoXBYLDOd/xc0GWSKbc7TVCGO32YJsbBpFepqbfBWsFfsWJhMBisY86e+YngD4JepuN9lNaFGTGA8B+moFS0QYbBYLBWHD9H8P83NVVt+9B0p18LnwIzsCWbglKHmcQAag3AYDDYDY7/PwT/FMwWuFFTP3kYzJqMr6yOm4IHe5tOBbD4YTCYzTr+H5l2+9zulYuwFMNPwKzc+ESL61Icoqby0+hNAIPBbMrxc/oel+I9TE1pVUjdg9miFQgiBUv56gtfBhgMZo0On1vrchQ/l+PlhjucPtWA7z8M9q/AQW4+5Sh4WfArwd34csBgMCM7fq7BzyVUuT/7NtOOBwaDtX5FwNcDUwXdOD4GXxIYDGY05/9HwUTBfgT1wWDtNq4tECFYJngMJwIwGMwIjv/PglkCPzh+GOy2rVJwWvCp4FHBXfjKwGAwnZw+3/H/TrCYmqqhFRGK9sBgnWlVgiuCHdTUnfAH+PLAYDCVjp/T+P4q2CgoIQT2wWDmNhbW3IeAAwYfp6Z6AjgVgMFgFnP8XLinKzW1R43Hbh8GU2KFgr2CodSUOXAHvk4wGMyczr+rKTApwhSoBIPB1FoeNZUb5gqDP8FXCgaDdbbjf9Dk+E+YApNgMJhelijYJXhFcA++WjAY7HYd/8/p38F9aMELg+ltXEeAGxBtoqaMHFwLwGCwdjn9uwS/Fowz7SoQ3AeDGct4zXJgLgfo/hUnAjAY7FaO/3rlPg4q8ifU6IfBjG6NphMBPsXj+B1UFoTBYN9z/j8R9KWmqGIU8IHBrMuuVxacK/gtvngwGOy68+edAbfkTaCmHGOYtV4QN9TQtfIsSi9Oapba+hq8JOs2Th30FvQjlBeGwWza8f/KdDR40RQ8BNN9G1dfRQn5lyQRGUF0JN6FvOIc6Ouzn9BnEe/R+rB36e0jw2nmoUHNMuPQAJri2YsmebzZLPz/b+6/Wxe6QP75N3I43pl8Ew7SmaxQ+TwsLGCGiQ/gNtxfCP6CLyEMZluO/wHTcf9pQoCfmi9wYz1V11VSWU0plVQXUl7FVbpalkmpRQl0MuMY+QjHvuPUh7QyaAbN8RlKQw88TX0cukt6O3Rrwr4r9bJ/SNJT0oV67utCb+77R6fDf67882+g6e/uKp+Dn6ePpLt8Vn7m+b6jacvJ96U48YrbT2ezwiitOIlyy3OosDJP/PYSqqqrkO8CpkwIcA0BTu/9veBOfB1hMOt1/PdSU2cxPu6vwvfPMlYvHFxpTTFll6ZTfP5FsWMOo6NJHrQvehttCl9BHxybRdO8+tJwl2fN4rx1Y6LHm7TAbzR9emIp7Y7aJN9FZOZxismNouTCOCmEymtLqbER2tSCFkZNwb+/IfQZgMGsyvFzdD8X8llqOu7Hl9VsO/sGsaMvEo7sCp3ODCH/RHeyP7+dtkZ+QO8FvUVvefengU6P24Sjbw99HR4WwuANevvICCGIZtOOU2vowKWvKTjFh67kX6D8iqtU14BbKgvEB3wjeEnwI3w5YTDjO/+7BWOpqT1vCb5xnW95FTl0LjucPGL3ySPv94/NpHlHRso7dT4Oh4PvGL3tu9Gogy/S7MNDaHngVPrkxBJ5asJXJBxvAEFgFqs1bRJWC/4TX1AYzLjO//emQJ9c7Po7cZtUlUenMo/T3uittCJwOk316kNjXF+mwc5PyvtwOG/zwHEO/R0flaJgimdvGWPwWcQKKbz4xAXWqVYuCBI8jC8pDGas4/77qamKXwocf8esUfyvpr5aHudnlqTSifQA+uL0Wpp1aBD13/+IDHqTwXdmCroDbRUFXWQgIgcgjnbtQZsillNAkgelFScKoZZPVXWV8loG1sFlQFQg+ETwJ0LbYRhMa+fPJXyfpqaGIDju74DT5+N8Tmk7mRFEzhd30urguTTE+Sk4W4PRb/8/aaHfWNoTvYVCUn0pNi+acsoycG3Q8WuB44JBuBaAwfR0/pzaN1lwFt+r9gXtcQoe57LzUfJHIe/IXPgBjo/BkVpLgOH+h2myR08Zm8EBmcdSDlNSYZw84YG1y7IFWwRd8cWFwfTZ9T9KTal9efhGtc1yxU4/NM2PPj+1RgaYTfbsKXeNcJjWDV/bjDz4ggzS5BRMn/gDYi5kY0G03epNsQGjBD/FFxgGU+f8f2za9XPULmq43iqqqbaMwtOPymjy6d79pSPgwjVwjLaaZdBVZmlwDYbVwXPIN8FVFiiC3frgTHBNsIPQVwAGs7jjv5Oaen07Ezr2NX+f39hIlbXl8nj/VFYIrQ2ZTyNcnpfBexw4BgcIbq50yIJgkNMTtCJwmqzfkFueLasV1jegUmErQuC84FVC3QAYzCLO/2fUVMb3HL4/3zeulZ9ekixzxb868zFN9uglj33h5EB7BcHogz1ofdgiCkj0kMWI+AQJ1qxxpsA7pkwBVBGEwczg+K9X81spSDel6MCuf4Eq82Qg357ozbQoYILMyYcjA50BpxhO8+pDXwpBGZrqK0sVo3/B96xCcJBQRRAG63Tnf5fpmM0b6X3fPeZPKUog15hvZT19DuTrhUI8wIyFiLjWwJKjk2Q2wcVrZ1Bj4PvpghcEsyACYLDOEwAzBGm47zd9ZeprKCb3HG0MX0aTPHrSYKcnUJAHWBROEx3n9ip9eHwunUg/ShW4HrjR8gX7BL/H1xsG6/iu//9Mx2o2n7BcWVdBWaVpMld/unc/Gb3fE3f7QINYAb4iYDHAlSITCmJki2c+nUK6IEUJ+piyle7AVx0Ga5vz5wXTUxBqWkg2esTfIOvu826fe8pztzg4HaB7BUJOM73esKgesQKZgmWcLggRAIPd2vnfJ5gviLNZxy/+l12WIWu688eUd1fY7QMjwemEXFvAK24/pRYl2PqJQLFgp6ALvvAwWMvO/9eCbdTUl9smjXOvD8bspiUBk2i4y3NwJsDwQmCB32jadW6TFAI2bBy/FCh4Hl96GOz7zr+rwEdQZauO/8Clr2nekREyqA/OA1jb1cBb3v1lnEBSYaytphFyygRXLZ0guBtffZitO/3rhX3GmY78beackI/5uVUr51R/c+5TGunygqzE9iai+YGV9yIYLKsNTqcL107LSoM2lkrYaKoZsEnwB0LhIJgNC4D/ErxvSpuxGcdfWlNMF66eot3nNtEY15fhGIBtdil0eFhWGozMDJaFrGywpsBhwZOc8QRvALM15/8nU2CMzTTx4WPPqJwI2YFvovsbKNELgIB7VHBNi8jM41RdV2lrIuC0YCBEAMyWnP9zAjeyocI+HAD1zbmNsvMaqvUBcPPVQFdZyXLLyfdlhcG6hlpbuhLg6MiZhPbCMCt3/Hea8vtP2Yrzv1aeTd9GfSYDoDgQCh97AFrvOzDR403aHLGSEgtsJliQRUCOqV7AA/AUMGt0/j8zqVyrb+RT31An2/ByvfSRB1/Ajh+ADgULPinrYHDWQE29TRQD5U3Rbg4OhMeAWZPz/5Up2M+qU/y46hlXPwtM9qI5PkPxIQegExh24FlyvrSTUosTZB8MG7AAQRc+MYX3gBnd+f9VsIWaOmVZrZVUF9Hx1CO05vg8GuT0OD7cAHRyxsB839HkGWcvr9UarfsQkdMhQgRvCH4MLwIzqvNnFesssOrQ3kvXzv6rZC8i+wEwH0Odn5atryPSA6nGuk8D+DqAWwuPIrQWhhnM8d8heERw1JqP/XMrssnhwuc02bMX9Xbohg80ABaKDxjr9jJti1wlO2RaeXBgsmAORADMKM7/h6biFvGmoyyrK+Qjj/tTfGjW4cGm6n34KAOgQgjwqRvHB3BFTSvOGODr0yWCn8DDwHR2/vcIBpucv/WtwoYaupwbRetCF1Jfh+74CAOgCXMOD6WQVF8qrMyzVhHA9x0fCH4HTwPT0fn/VDDWdGRlXRE5YmeRVZpKrpe/pSmevfHBBUDTzoObT66k2Lxoay0kVCb4QvBHeByYTs7/AcF8QYq15fhX11dRaJo/vRf0Fg10fAwfWgC0LiTUneb6DCevuP2y0ZA1JhyZAqv/wbFW8D4wHY79F5AVNvQpqS6kb85+QqNdeyC6HwCD0HNfFxp24Bn6KGS+rB1gpdcBR1EwCKaD819iTTn+19v0ctOeGd4DEOQHgIGDBIceeJq84hysse0w/xguqf4QoZEQTIHz/4XgXbKibn5cwjetOFHW7ufqY/iIAmB8uAfH6uNzKTrnJNXUW1VWMl+3xgheFdwNrwSzlPP/o2CdoNBaVlJVXQWFpB6hpUcnU9/9D+PDCYCVMdWrDzld/EqmDFrZSQC3FH4DIgBmCef/O1MkqtVE2OSWZ9NXZz6m8W6v4UMJgJWfBrx/bAbF5J6zRhHwCqF/AMyMzv8+wdeCcmtZOfwhWHZ0ivgwPIIPJAA2Ehsw49BA8kt0lfE+ViQC+DrgCXgqmLmc/36+KreGQL+iqnw6GLOLRh18kXrad8GHEQAbyxQY4PgYbTn5vqzxYSVVBDkmgNutP4GTAFhnH/t/bQ3On1v2JhTE0LrQBajmBwCgBb5jKDLzOFVbx2nA9cDAVxATAOusgL8vrOHYv7KunIJTfGjekRH48AEA/sV4t1fJ7fIeGQ+EwEAYrMn5/1qw0RoC/nIrcmhP9BYa4/qyPP7DRw8AcHOr4Q0nFlN8wSVrqBlwXQS8ijoBsI44fy7ys0hQbPT7fs7t5wY+A50ex4cOANAinAI8x2concoKsYa4gOuBgQ/Bo8Ha6/yXGL3ID3fv47u9qZ69UcoXANDmAEFOF9x/4XOqqC2TmwiDxwRwxcA/EHoHwNrg/LmxD9f2N3R5X24Lyg1BuCY4PmoAgPY3FupGG8OXUWpRAjUa+0qAH557B3DZ4B/Ay8Facv73CxaSgRv78EJNL06i7ZGrabDTk/iQAQA6fiXg0J1WBE6ji9fOGL3FMJ/mHhJ0haeDtXTsP8GUR2pMmSucPxf24da9/R1R2AcA0DmFg2YdHkzHUg4LEVBnZBFQLdjDad3weLAbnf8PBYMFyaY7I0Pa2ewT9JZ3f3TwAwB0OqMP9iDHC18YPTCwzFTT5T54Phg7/zsETwriDStr6yrJP9Fdtv58Eyl+AAAz0X//I7Tl5AdUUJlr5FRBPsbgqq4/hgeEAOhuVOfP0bn5FVdl+94hzk/hAwUAsEBwYHdaGdTUUKi2vsbIIuA9DvqGF7Rd599FcNgUJWq4YL+Uonj69MRSGuD4KD5MAAALxgV0pbd9hlN4+lGqN25cQJ5gFk4CbNP5PyhwEFQZceYmFcbKLn59HR7GBwkAoISpXn3IN+GgkWsEXBEMJZQMtinn/yvBZ2TQ+v6Xc6NlVC6K+wAAlAcHur5ER5M8jCwCzgmeRo0A23D+PxO8b8RCP7UNtXQ2K4ymefVFsB8AQBs4Bml31CYqqzFk2xS+Ao4S/AUe0rqd/52CmUY89q+qq5BHbePdX8MHBwCgHYOcHqdvzn0qG48ZtHwwVwv8f/CU1isAehqx0E9FbTl5xu6jcW6v4EMDANA3TdDxEfrkxFK6Zsy2wtz9aJvgt/CW1uf8nxBEGq3QT019jUzzG+nyPD4wAADt6W3fjdaHLaJcY4qAUsGHgp/Ca1qP8/+T4KDR7v3Z+e87vw01/QEAhqwVwKnKBrRr1FQW/i54T2M7/usR/9tMhR8MU+CHg2l2n9sknP8T+KAAAAzZQ2CR/wSKz79kxKqBaYLXkRlgHRH/NUZy/jllGfT56Y9kUA0+JAAAI7M4YCLF5kUbUQRweiC6BxpYAEwhg7X2vVaeRRvCFste3Ph4AACsRQTwSYAB7SDKBRvT+T9OTd39DGNFVfkyeIaDaPDRAABYlwiYYMSYAL46Xo5KgcZy/r8W+Bkp4p+d/8bwZSjtCwCw2pgALl9uQBGQKRgHz2oM53+fKejPEMV++M6fj/155w/nDwCwdhHAJwEGCwzkjSTfX7zJxeTgZfV1/j8WzBcUGingj+/8cewPAEBgoNYWJHgYmQF6Ov+7TJX+rhhlNnGqH0f7I+APAIDAQO2N68h8LfglPK5+AuC/BaFGKvLDef5I9QMA2CpcJ8BgMQFcKXABPK5+AsDZVMvZQBX+UOQHAIDAQIOJAK5x/DC8rj5H/wuNUuynorZM1vZHeV8AAGgSAe8fm0lZpalG6SLID3lc8Ht4YLXO/weCV01lG7U3bunrGrObhh54GgsfAABuaCDEwdBZpWlGEQGVgs8E98MTqxMAfxUcNkKd/9r6Gjp0xQktfQEAoNkGQt1oy8n3qbS62ChXAVmCyYIfwRtb3vk/IFjLwfRGmClnssJojOtLWOgAANACHBTNwdEcJ2UQO0NNrebvgFe2nPO/U9DPVKFJe7ucG03TvPpigQMAwC0Y7PwkHYzZZaRSwS6Cn8MzW04A/JmaOjVpfVnU2NhA6SXJNMdnqJjYXbC4AQCgDYw6+CL5xB+g2oYao4iA1RyQDu9smWp/B4xQ5Y9TWzjFhaNcsagBAKDt8JWpX4Ir1dRXG0EEcODCG/DQ5k/5m2yEoL/8iqv06YmlqO8PAAAdZIb3ADqdFUL1jfX67/mIQvh0Gp7afALgGUGM7jOhuq5S5voPcHwUixgAAG6D+b6jKLU4wRDV3U1XAffAW3e+8+cWv/tM9Zi1Nv9ENxri/BQWLwAAdEKhIC4ZXF1XZYRTgDhcBZjn6H+m6Z5FW+POVmezT6DQDwAAdGqhoK7ySrWsRvsaAdze0FvwvwI4706q9ve04KzuEf8xuefoLe/+iPgHAAAzpAfuv/AFVdaWa9/uRbCCA9bhwW9fANwv0D4pNLUogZYHTpNKFYsVAAA6n/Fur1JgspesrGqAKoGvwYPfvgAYLyjReaQLK/NkCcu++xHxDwAA5mTmoUF06doZeeWquQUL7oMX77jz/70gResa/w015BXngNa+AABgAXraP0SLAyZSbnmOEa4ClsGTd8z53y34whRUoW2xn8jM4zTswDNYmAAAYMHMAA4KNEDPgFRBT/QKaH/U/zhBrs4jm1acSFM9e2NBAgCAhenj0J0OXPpa93gA3sC6C34Dz952AdBFcEzn3T8fP60LXYAyvwAAoIixri9TREYQNehdKTBPMJvQNrhNzv9eUwqFtm1+K+vKaU/0Fhro9DgWoaWif91fo0keb942I1yeg2gDwIquAt71H0+JBZd1vwqIEHSFh7+1AHhKEK/rKHJN6uAUHxojlCcWYOct4lGuL9JCv7H0cehCcji/gzzjHCgk1ZcuXD0t4QWeVBh72+yJ2oyATdAmOKtnoscb9PaREfK0b/PJleQeu08SnHKYonNO/mt+tsTZrBN0ON6ZXGN209aTq+ijkHfoHd+RKBPeyePEWVicjaV5QOAa3uDCy7fs/B8QfEOatvnloL8r+Rdo1uFB1BPFfjoQvduF+u9/hIY4P0nTvfvRZxHvyZaf6cVJVFpTTBW1ZVRVVykzK+oa6syS5nP4ijMqNYIWWeA3hgKTvSk2L5pKqguprKaEyk3zkkvR8rxsz9zkb0a9/G9qqbq+Svw5FXKel1QXyVQ2nv/rwxbRJI+estBNP7E+euKEqv0iwKE7eQhhpnnnwELBE/D0LQuAvgJtCz4XVeXLnQAWXPvg3c5E9zdo5bEZcmefVBArP6IqDAIAtMauc5uEg7Z8pTkOZONTLnZiK4/NlCcPAxwfw0ajHYw6+KIsxa65BQl+Cm//fef/K8EZnUfuYMwuqTSx2NrGEOenaenRybTv/DY6lx0ud0GqDQIA6CgAvhNjVFtBUTkR5HzpK3r/2Cx5MoCxaRvvHBlJ+ZXXdHYjHK04GR7/+wJgsc5R/1znnxUmFlnb7uRWBE6ngER3yixN1cLxQwAAowiAG+1aeRb5i3W0MmgGhEAb4FLsO89skFctGttpwd/h9f/t/B9nH6tvyl+22MlOkXfYWGStM9WrDx2Jd6GcsgwtS3VCAAAjCQCZSC7W0VUhBMLS/GlJwCSZ/46xav0q4GiSp84CoFKwXnA3nH9T2h8H/tVqOVLiY/Dl6Y9lcA4WV0t0oeEuz9Hnpz6i9JJkGfSkq0EAAKMJgBuFQHFVAR264iSc3AtIZ20p2Fh8j/gq4EreBRmEqaklCHqTLVcIpKZWv0MFaTqOEB9d+yYcpBEuz2NhtZLCN/PQQLk7MYJBAACjCoAbLbs0nVYFz6ZBqEXSIpxdUVCpdTFZ3vj+0pYFwG8F+3VN+UsujKMFvqOxmFqJ7ue7yTihtI1iEADAGgSAzCmrzKPdUZtonNsruJ5shsFOT8oaDLUNtboOIXczGiS4yxad/w8FY0jTev989L89crUMKsFiat75bzn5AWWUJFOj/m05IQCA1QkANq5TEJjsRZM9e8qrOIzhd+H3wgXANDY3wS9sUQD8WhCo66hwfelBqBjXLP32/5M2ha+QwZEa37FBAACrFwBsXEMgMjNYxuFgDL/PRyHzdB4+nmxDbFEAjOdrdh1HpKiqgCa4v47F02wHrm60MXy5rGRmRIMAANYmAJoCBOvpTFao7HWBk4DvwtVHjyS4UGOjtpuVWJvKCBA/9uccx6LjSHC5zk0RyxFh2wKcDllaXUxGNQgAYI0C4LoIOJlxDJuXZpji2YtSivRtMSOYLrjTFpz/XYKlpGHRH15AoWn+NNq1BxZNM0z37k/pxYlkZIMAANYqAK5vYLi/AL5h37+25IZBnEapqXEV3L/aggB4VHBJxxHgpjTLjk7F7r8Z+H4xKNlb6xx/CABg6wLgemAgZwcgRfC7jD7YgwKSPLSqTHrjsAnet+qMAL7nEHxKGjb84W5fjhe/RJvO5sprOnSjb85+QuU1pWR0gwAA1i4A2LiE8JKjk9BZ8KYCQfN9R1NqUYKOQ8YBCqcEj1ur82eeE5zX7803UkxuFE3x7I2F0gy8aLhTmTUYBACwBQHA37TonJOY698rXNaV9kRt1rVXAB+vfiz4iTUKgJ8JNugY+c8R7Wjz21JHv6dkC19rMQgAYAsC4LrtOrcRV5rNfNOir0bqOmSnTdfkd1iT879D8Axp2vDnaJIX2vw2d2QmPhwrAqdRUVU+BACAADCgcSncGYcGYGxvgr9r1XWVOg4ZByhwZ9x7rK3hzxodd/+5Fdk0zasfFkUL+bMcUWxNBgEAbEkAcMCbZ6y9rN+B8b2xnkl38kt003XYOEj+QWsSAH8TpOr4pneLBY9yvy2V0exFpQYt+AMBACAAmoyD3t7xHYnxvamD6Vyf4ZRVqqVb4roAi63p+H+TKcpRK7t47QxN8ngTi6EFvOP2k7UZBACwNQHAzXDcLu+RufAY4+/WBvjqzMcyA0xD40J5/2kNAuDPHGenX+BfIa0NmY8AmVYCZa6VZ0MAAAgAK7DYvPM0+/AQjHEzzYJOZ4Xo2NOEC+WtFPzA6ALgU912//WN9XQ89Yhso4lF0Dwbw5fpqowhAAAEQDutsq6CNp9cKdPgMM7fTQvcfPJ92f9F01iAvxrZ+T9IGkb+c5GMNcfnYfffSsOf4BQfajBQm18IAAAB0LoFJnnRyIMvYJxvghsocTdFDb93xq4OKB58melHaBUVy52hUCazZSZ59KTEglir/AhCAABbFQC88cE1QPO8F/SWjh1O+eQ8RPB3Izr//xME63b8n1uRg0VwC9aHvivzhyEAAASA9Vij2OFuCl+BrKcWyp0HpxzWcdg4fm6moWIBqKnj3wxBoW5v85uzn2LC3+JOzOXSN7o2zOiw1dRXU3ltGblf3kNDnZ/CWAObEwBs/knu1B/9TlpsGaxpq3MvwZ+MJAD+IDio3xFYNu7AbgG/n7A0fy0/XnxHx9kbacWJlFAQQ+eywyky41iLBCUfkoWMDsc70/4Ln9POMxtoacBkpEOBFuHYoJBU31bn1XfIDKbzVyPlfGSyStOotKZEWwGQLZ5vCARwC6cAYvMTs0vHYcsT9DXEKYB4yDsFA/i0Xbe3uPvcZ4iCvQVzDg+huDy9+jVllKSQf6K7cODr6ePQhbTIfwK9fWSEjFUY4/pSiwx0egxjCtrFQKfHZdvY1ubVd3mZpnr1kfORWR44ldaHLZINZ8LTAym/8po8etfJ5uAKtOXvn89Qyi5L11EEfCm43wgC4AH2tbq9vZSieHrLuz8meRuCYa6WZWkxZryb+vrsBprrM4xGuDwP8QYMVWp2nNur9K7/OFmER6crta2RH2CMWoCDww9c+lpHAcDX6Q8ZQQA8qtvdPzd92HZylVyUmOStszVylfJ0GP5YchriJM+eaNIEjN1Qa18Xeee+OGAipRcnUWOj+phot8vfYmxaKRE822cIXc6N0lEEbDSCAPhKrzyKRlnpiSs+YXLfovmP4yPkcGGHYudfR0HJ3vJZMCbAmoTA3CPDKC7vgnKBffHqGYxJa7EA9t1kG+VK/YJBc0jn8sDi4X4p0Kp3bGlNMe04tQbHx21g+IFnZY0ElcaBfaMOvojxAFaYYfMQrTw2gzIVN6DhQNpBTk9gTFphund/WT5ZsxLB/DDzdRYA06mphrE2u/8LV0/RBPc3MKnbwFi3VygiI0jZeOWWZ9PKoBmo0AisN8jQ8TFyuviVLM2ryspqSmi6V1+MR6unAF1pb/RWeX2smUUI/p+Ozv8+QZhOb4qPcL44vQ4Opc2qtx8lFcYpGy8uVToKaZrAypl5aCClFycrW2fltaU0D+2Bb8l4t9cos0S7dsHXBMN1FACc+ndVpzeVLJzZUGdUfWsrnMakqhwmi7UtJ1dST4g1YAPFto4meSqLBeAmXxvCFmEs2hC3wRkcmhlPGkfBj3Vy/vcIvuEYLp3e1Neo+tcuOFJZlXERlXlCgGAcgC2w4cRiWZ1SSVZUfRVtj/wQ49AGuM4Dx5FpZtxgr4dOAuBpQbRW5yRc9c8Fx8ntCVDiIjuqjKuvoUIZsBUW+I1R1m6bM208YvdhHNoYC6BhdUAOIFksuFsH53+3gD2HVl3/dkeh6l/7Cpd0oy9Pr1X0Qaqlg2KRYRyArcBit6K2DALAENVRh1JOWYZuIoA7Fz2ogwD4H4GnTm8mqzSVZhwaiMnbDrg+vmecvZpUzeoi2ha5CuMAbIrymlIIAAMw2PlJco/dq5sA4HT711Q7/zsEfaipZaEeqX+NjfLIBnmu7WOA46N0NMlDTfpfRQ69f2wWxgHYFDzvVX0jI9KDMAbtCAZcETRdpilrZFwT4DPBz1Sn/m3X6a2klyTTQv9xmLgdqIEdnXNSzZgVJ+HEBtgc57IjlH0nz189hTFoB9yLhDdIDXo1dkoS/EWlAHhQEKfL26hvrCffBFca7vIcJm0HjrlU1QBIKoyVndUwDgACAAJAVz4NX0pFVVoVumWbqFIAjNTpTRRU5tLHYe9isnYwKIl34iosNi9a9uLGOABbwk9sViAAjAN3d+RTUs3KAx9TKQC0Cv67cPU06sh3kGEHnqHquiolV1lRYlFhDICt4XTxS2Xfyvj8izTatQfGoZ2p0rvPbaQqhWWcmzHOJe2uwvn/VlClzVsQg7LzzHoZsIHJ2n64EZCqaxuf+AMYAwABYOFrt8ke6JDaXsa6vkxXyzJ1CwZ8X4UAmGf6y/UI/itOotHY/Xe87rX7a2oEQEMduV/eizEANof9+e0QAAbkwKWvdYsDOC2415LO/17BCZ3eAA8KJmfHeS9oupJxq22ooa/OrMcYAJtjY/gyCAADMvPQIFlOWSPj/MQ3LSkAXhZocw7CFbWmefXD5DSgAOB66JsiVmAMgM2xKni2sm9mctEV8c1ES+COVU3tTudywnWLA/jIkgLgQ2qqR6yFnckKlaVsMTkhAACAAGjDlrE0nZYETMQ4dKQwkP1DtDF8uW5xAH6C31nC+f9B4K/L/T8XZlhzfB6C/26TdaELlIwfN0RZjA8RgACwqHEg23tBb2EcOshkz17yGkUj4xzu3pYQAP0EKbr86rj8CzTB/XVMSoMGJHFKzezDgzEGwOZ4x3cUBIBBGej4GDlc2CE2oPW6uMI6zgYgc3YIpKbOfysE1Xrs/uvJ8cIXNNDpcUxKCAAADAXn4UMAGJclRyfR1XKtUgJ9yJwdAkmzzn95FTm0MmgGjv8hAACAAIAAsPj4haT66iQAsgQvmVMAPM8BpLr82rA0f1mYAZMRAgAACAAIAMtWBuxKu6M+k3FMmhh3KlosuMcczv+HgmkCLS49qsVL3x21SUZkYjLePuHpRyEAALAgIw++QMVVBYpOT6/K4GmMw+3BnWfTihN1OgUIEPzGHALgl4KDuvzKxILLNAuOo9M4lRkCAQCABRl24FlKLryiZN2V15TSl6fXYRxuk74O3eU1gEZtgrlCUTdzCICuLBx1Sf0LTfOj/o6PYhJCAABgUAHwDCUUxEAAGJzNESupvLZUp1OAGeYQANN1+XUVteW049SHmHwQAAAYlsHOT9LJjGMQAAZnoseblF2appMAOGIOAaDN8T/fX6GONQQAAIbOJXd6nAKTvCAArCAYMCDRQycBUNqpgYDiD/sBaVT61z/RXfZmxuTrPDJKUiAAALCwAAhI8oAAsAI+ODaLNGqOyw/Ss7Ob/2jz65YHTsOk62RURSNDAADbDSB7mL4+u0GNAKgtQxfOTg4GLKzM00kAbOlMAbBBFwHAL3mQ0xOYdFYiADidc2nAJIwBsDm4q9wXp9cqWXe19TWyiirGoXPo7dCNglMO63QNcE5wb2c4/3sFYbr8Kt+Eg9TbvismnZUIAHQDBLZ7d/wQfRTyjrJvqfcVR4xDJ9HTvgutD1ukkwDIEDzXGQLgEUGqLr9qVfAclP6FAADAKlh6dDIEgJUwzasvZemTDVAmWNoZAoCr/xXq8IsyS1JoimdvTDYzTNyymhIIAAAszCL/CXINQABYR10HvwQ3neIAXG4rG4Cayv/aU1ONYfXJjQku8iVjsnUuMw8NEgKgFAIAAAszx2coZZemQwBYyZXOpyeWUm1DrS4i4Kzg0dsRAA8KjuvwS+rES91+6kMZOIPJBgEAgDUw69BgZbXkIQA6n3d8R1FKUbwuAoDvIwbdjgDoI0jS4ZdwpSU+LsMkgwAAwFqY7NmLLlw9pWTtcfGaASin3qmMcX1JlqnXxPhuibsD3tlRAbCQv9E6/JJTmcdposcbmGRmYEXQdKqsLYcAAMDSZWTd36AzWaFK1t6JtAAadfBFjEOnpnZ2I4cLO6i2oUYXEfCN4Bcdcf4/F+zU4/i/jvZf+Bzpf2bikxNLlPW0lgIgfDnGAdgko117UHCKj5K1F54eKP9+jEPnsjZkvixXr4lxCv9DHREAfxME6vALcsuzac3xtzG5zAQHrqgSANX1VfRB8CyMA7BJhjg/RV5xDhAAVnaqczk3ShcBkC14uSMC4CVTMQHlFpsXjeY/ZuTzUx9JR6zCUAoY2DIDnR4jl5hvlKw9vnqY4P46xsEM1wBByd7U0FiviwjgYhN3tcf53ykYw6fvqp+8obGBQlJ9qe/+hzG5zMTBmF0yywICAABLV5B7iHYq6gfAG6vZh4dgHMzAjlNrqKK2TBcBsENwf3sEwE8F63R48krhIHiBYFKZD4/YfTLOAgIAAMvzxWk1n9or+Rdprs8wjIEZmHdkpE7NgU4KftceAfAbzhLR4cn5Jc73HY1JZVYBYK9MAHBb0r6o7QBsOmhsARUpKMUNAWDOa4DuOpUF5jKv/9ceAfAXQZYOT85FMvrt/ycmlRkJS/OXVy2qBADGANgyq4PnKIkaTyiIETvVERgDM8GVazWy0e0RAL10eeqAJHdMJjNzXlEhEhmiWpqOMQA2DRc4SytKVLL2lgdOwxiYiQ1hi3USADvaIwBW6fLUG8OXYTJZsQA4lx2BMQA2fl88Qu7GLW35Fddkd1WMgXkY5/aqTgIgrD0CwF+Xp+acSkwm6xUAJzOCMAbAppnq1UfJGuS4gzUh8zAGZo0DSNXFlZa21fnfweJQhyfOKk1H+p+ZGe/+mpLdx3XjFESMA7Blxrq+TJGZwUpSrLee/ABjYCZ62Xcl30RXXQQAtwfu1hYB8EfTv6zc/BJc5UvEZDIfXGApqTBW2Rjvjd6KcQA2Xw0wJPWIkvW3PXI1xsBcNR72daENYYt0ugYY3hYB8KYuAmB75IeyUAYmk/ngQiCq2pGyrQtdiHEAiBiPVxMxvvvcJrRYNyNzfYYrK7PejH3UFgGwUocn5cp0yP83P+8FvUVXyzKVjTPGGAB11Tg9YvfSEOcnMQZmgjvYJhXGaZNU1xYBoMWlRUZJMur/WwDuBKiyYtU4t1cwDsDm2XVuI1UoaMnNNetHHnwBY2Am+N1ynRVNjJXIfa05/x8LLurwpOEZgehVbZEypGuprKZUyRiXVBfi4wOAYOeZ9VSuoHb8qczjNN7tVYyBmRjg+CjtO79NFwHAKQn/bE0APGz6l5Tbvuit1F+8PEwi88KTU1UnQM4+GHbgGYwDsHnePzZTtj23uEcoiqe3vPtjDMzI2pD5ypqt3WSc3TemNQEwVJCrw/0/H00jAND8eF9xVDbOERlBNBj3jwDQsqNTlMTiFFbmy0A1jIH5WOg3Vl5pa2Acjbi2NQHwLhcMUC5TKq7S8sCpmDxmZpDTExSY7KVsnLkL4QCc8gBAMw8NovTiJCXrkE8fetp3wTiYCT5huXjtjA4CoJ4TP1oTANsFys8q4vIvoE+1hUpVRmYeVzbOHPiEQk8A/EPGOyUWXFayDrdFrqLeDt0wDmZijOtLFJrqp0scgK/gV805///QJQPgRHoAjUV0uEVqAMTmnVc2ziuDZshiGRgLgKpxD1FM7jkl65BrEPR3fATjYCb6iU2Oe+xeXQRAGDXXGlj8wwcFITo8oWesvXhpmJDmZpH/eGVFgDjlaaH/OIwDACaOp/goacsdlXNSXgdiDMzHV2c+pqq6Ch3cKx8zvdycAHhGcF7109XW19C3UZ9h0lgkOnUBlVQXKRnnlKJ4mnloIMYBABPul/dSfUOdxdfitfJsGnrgaYyBGVkXukDGtmlgGYIhzQmAATqkAOaJl8RpE5g05oUzLHacWiN2HPVKxjkqJ4ImebyJsQDAxNdnN1BtQ42S9TjNqy/GwIy84ztKbno0MD6GeLs5ATBDUKL66fhI+l0cDZudgY6PkfOlncrG2T/RnUa4PI+xAMDEx2HvUk19tZL1+DF6cpgV7rp66dpZXeIA1gjuutH5MysEDaqf7HJuFHaGFmC0aw86rqgDGdue6C1oQgLADcz1GUaViu6JveMcMQZmpLd9VzqZEaSLAPha8PMbBcB/Cr5S/VSN4n9cNxkTxvxM9+pHiQVq2gBz5cHNESsxDgDcAEfilysqy51WlCgzETAO5oMbPtXU1+ggALj4y59uFAB/FHiofiquAOgZZ4/JYu77/31daEnAJKqsVbPbyCnLoPeCpmMsALiJ7NJ0JWuytKaYxrq9jDEwI5+fWkMVCvo9NGMnBd1vFAD/EBxT/VSVteWyKQYmi3nho3dOS1F5zTPr8CCMBQA3oapzHKeofRTyDsbAjKw+PldZ1tVNxrnfz90oAJ4SxKh+Klah68PexWQxdwCg0+NK76MiM4JldSyMBQDfxfXyt0rWJKcfcl8QjIE5YzyGU0Flrg4CgB/i9RsFwIs6pAByX/r5vqMxWczMcJfnqLS6WNk4+yYcpF72XTEWANzEpvAVytZlbF40WrCbkQnuryvp+NiMcbD/oBsFQH+OzVIuSypyaLJHT0wWM8PXLKqsrKZE1h/AOADQXL74aKUbsA0nFmMczIgmXQHZxgh+wM7/B4LROjwRB8D0dUBzGHPSb/8/6eLV00rH+F3/8RgLAJph5MEXlKUC1jXUkVecA/VHGXazcf5qpC4CYKXgJywAfiRYqMMT8cvBJDEv7wW9JYMtVVl8/iWUHQWgBXhtXMm/qHR9vn1kOMbCTPgnuukiAD4T3McC4F7BWh2e6FjKIUwSMwf/hacfVdJwRF48ib83MNkbYwFACwxwfEx251NlXIlwb/QW8RyPYjzMABdA08QcBb9gAfALgYMOT8T94TFJzMea4/NkrwWVH5dPTizBWADQUsU4h660KWKF0u9wUmEcveU9AONhBj6LeE8XARAo+C8WAL+mpspAym3zSVSHM1fhH272EZ1zUun4svhA33EAWmfekZEyIE+l+SW40mDnJzEenT62I3QRAFwG9o/XqwDG6PBE84+MwiQxA5zac/iKk5JWozeaR+w+jAcAt2Cixxt0NvuE0rXKbdl5t4rx6FzGu72qiwDgWgD/ywLgfzj2Q4cnQgpg58Mq3vHiF1ShMPCPjSuN8c4GYwJA6/R3fJT2RW+l2oZapWv2WnkWfXj8bert0A3j0olVWDWyv7MA+Cs19QhWbkg/6fyUP/fYvVqUnzyTFYYjRQDayNKjkymjJEXpmuXmbJniGbg6K0RA5wkAboamkwD4uy5Pg/awnXvnz3XFq+vUTzbugLUudAGq/wHQRoYdeJZC0/yUr93Gxka6Vp4te4cMgYDvhCDPbpRcGKeLy32cBUA3HZ4krTgJKvN2nL79Q3KHPd27P9mf307FVQVazDDeRYSk+tEYV3QaA6A9bAhbpDwY8EZLLLhMq4Jny5giPl3EGHVMAMQrrPNwk41nAdBXhyfhlwIB0P7jpLHCsc7xGUofhy6Ux/18b6eTsRDh8qI69Brn9zXO7VWa7zeGVgbNkKcSN7Pq2GxaIP7/kz17ypzsN/d1sZoPzySPN2WvjfePzWz2t/M/5zbRU7360CCnJ6xqrQxyepymePamxQEThROb853fvVbwwbFZ8t1MFO9Il0yVoQeeoZMZx5TV7WjOOJA4MjOYvj77iazoyetkiPNT+B63dR3ad6Wz2WFaCYDxOjwJp6j1xhFxs8V72GlN8ewlHdOyo1NovdgZcD3/gzG75DEhV+/S6F7p3x+LxnrxfP7i+V9R+g75A8UO3+H8DgpPD6T0kmTZk6A5q6ytoPTiZBmzwGVR14bMp9EHexh2/vBvX350Ku2/8DmdzgqhtOJEKq8pbfa38z/nZiVRORHkfWU/bTn5Ps06PNiwV3MsOrkBy6cnlsmxPJcdLo+zq+oqv3dKxX3a+d2cyjwus1W4Ne4YN/WnVisCp33veXWwBrG2uaz3maxQOpLgQt9GbZY1PnidLQ6YIOfNePfXaLTri9R3P8q73zgnD8U76TKMs7URAP5J7rgjFrzl3V98sJbKY/yAJA/5Qbpw7TRdzo2ilKJ4GZTDx4I63O3fyq6WZdLywKnKdv/suJaLD+iJ9KPyY9WRqGquXcBjsCl8OQ0/8Kxh5hF/dNl5HE3yFHMmtd0poHz3yx0jWVxyi1qjZegMcX6avhIi+eK1M1RUVSB+T0M7xz1HpuJ9eXodjTr4gtJA3uCUw9qvde4jUFSVT9ll6UJAJ1F8wSXx7k/LjR23Hj+WfIgcL35JX5xeKzYyY222HohmAuATFgCf6vAk/FJ0OCZWTWpRApXWFAsHXylVtlGNne3e6K3Kdo+8+zh0xZHyK67d9hEqOw8+MYgQH7LZPkO0n6d83H3oipP8INd1Qu0HruDIu+Ntkau0v/vlAFg+JWPBfLupryyC+GSAT0SWBExWNu68my6pLiQjG79LPqXk98kl30fbaNthnkP253foMizbWQBs1+FJdp/bJAPZbF0AtHQ0bTS7InaOKlQ+33VzoBLvQsxhpdVFtDlipXSyOt7zv+M7ihIKzFPXq76hXvZy4Lt03UQQO36+auLje3Yy5jCHCztkdL7lT7K6yTmn41VAR4xjCMa4vmSjwdpd6LPwFboMxdcsAHbp8CT8UvjlQAAYXwDwsfmigAlKAmw+EM6/oDLX7PeffEUz3EWfKwE+aVnsP1F2kuPdljmPevnel3elOq0bzjLxiT8gns98xXO4Op5fopuMx1FRzdMv0VV5cSAIgNsXqnzFq4mFsAAIhACAAOi8HXKxvOfr6/CwxXe/XLUsqzTNIr+TA+ZYBAw78IwWx4ocIMrH3paKGOfo9BEuz2mSM/8M+SYc7JTrjltfbdVQULK3DMy19O/kNr2xedFmFXgQAOaHM200sVMsAE7p8CTrQ9+V6ggCwLgCgO+K3S/vUeIUF/qNlQFrjRZMmSqozJP10i0tdm5mtGsPmVpkyXQxvg5wuviV8ghv/vv52J9355YyvmLwjLOn4RYWQDzPOF3xqmapvhAA7WPmoUEQADcbq1ukiRhXAPCxOEfbc9qVpXPn2QEGJntZvNkRp49xrMHbR0YoPVJ0uvilRXa/N1tuRQ69F/SW0vWyNXKVkgA5vo/fFrna4qnLfNXDR8hGyAKCAIAAaLPxS4EAMKYA4F03pyrOPDRQyQ6QayLUKbwb5VoMquIBVH5MeNw5RZIFmArhM993lKxOp8rYCc9QMOcZzruvrKuAAIAAgACAAFBrMbnnaNZhNeM31as3xeWdV/r7+fiZj2ZViJ+g5ENKfzsHXG4IW2zxDB6uS8+VL+sVp8qGpx9VkhrJGTYHLn0tY24gACAAIAAgAJQ5f1VtfrlwFB8B1ys4/r7ZonJOKgkKy6+4qvjqp0FWgrN03Mdcn2GyNoFqYwfMdQdUzH8uTMVxGDp0+4QAMKQAOA8BAAHQYbt07Qwt9B+nLCecd0FX8i9o8S74OHi6dz+L/n4u76vDXTAHX3I/CkuefHCFvjoNUuJYfPoluCoreDXC5XlyvrizxfLOEAAQAK3pVxYAeRAAEADttbi8CzLyXmX/Bm5uw9HoOhgHQX5z9lMLVvt7QqbicSCiaqusLZdNlCzZKjcy47g2a4FFqIraANfhLqC7zm2UWTgQABAA7TE7HR6C1auld08QAB0z3nUFp/jQSJcXlL8r7lGui7EjPpsVZrF+FrzjVhkAd7N9KcbCUumQXImwRqPmVxwHwQ26VK8HbmDEdTB0EIUQAC0zWYjFnLJMCIDrxnd5vJuDANBbAFTVVdAxdv4HX9DiXfkmuGr1ftKKkyz2YeOuazllGdr8ds7F552oJX77utCF2q0LS57+tFYQiovMxOad17pioK0LAPZ1OsSvQABAALTZuLwv3znznaMu7+ri1TNavSPufmipgMhN4SuoWKMGMdz22VJzw0GfZir/MrfL32rSD6IrzfMdScdTjkhhAgEAAQABAAFwW8YdCrnXt24NcHTaATcdBV+zWDqgLQsA7nSomx2Od9KmUyKfBHBBrn3RW7X8nkAAQABAABhAAPBdIvf15kp3qsvdNgdXotNLAOTS6uC5EABmhlMudbOjSZ40xPlprdbHQMfHaF3oAu3SBCEAIAAgAAxyAsAfjz3RW2Q3Mt3aNUMA2KYA4K5/uAK4dY0MdrLeVxxxAgABAAEAAdBx4/Si4JTDytP+bkaXRXRjnMTywKkW+e1cD76oqsAmBYBLzDdajTvXAuB+DLqsC76qWxE4nS5eO2PRBlEQABAAHbL8yms01asPBIDmWQBJhXG0PuxdZUVPbuZEWoBW74dTsGYcGmCR3/7BsZlaxUAcvuJEQ5yfsshv33FqjWanZIW05eT7WqwJHgNux51ZkmrRzpgQABAAHVfQjfVKGslAALTfrpVnyQ+MDiJgb/QWrd5NctEViwVKchngpMJYbX77nqjN1H//IxZr/ayTZZak0GL/CcrXw9ADT8vSwHwVpbNBAOglAC7q8CCoBGiUSoCNMi6AG5FYasfXsiMYp9FbaZTtkC1XAvY5OpcdrsVv5+JQnJvf094ybaDHu78qr1t0Me6Hobo2BpfFPp56xBAdAiEA9BIA6AUAAdChj35QsrdMN+LWrCre1QDHRymnLF2Te+B6+jjsXYv+fm7Co0MjpJSieIs2hOJTFq84By3GnTtBHrj0jdJgv3FurwrxGSDLURvBbF0AcNXbshotujg2QABAANyWCPCMtVdWFpivIVxjdmvxLgor8yyeBrY2ZL4WKV5cGnr0wR4WzXP/8PjbWqwVPm6ffXiIsnx/7op4MiNIChGjGHoBaNMLIAsCAALgtkUAl4EdqiAHmk8e3vEdRbnl6tMB3S/vUdAJ7jnlcQDcx2PnmfUWjwkZ6/Yyhab5KR93PnZXEQ/Dc3+SR09D7fwhALQTAKcgACAAbtu4Ja1rzLc01MI94a9HPbte/pbqG9UdhbMAURXEyl3gVFpC/iWadXiwkqPvT08so6KqfKXih8vuqmkD/JwQHz5UrVFTJAgACAAIABsUAGycCvXlmXUW3w3xTogrFcblX1D22+3P75BBWKpawaYWqQkoqq6rJMcLXyrLCBkmBOfxVF9lue4uMbuo7341FTL9Et3k6ZsRDQIAAuB7xiUrVQWTQQB0jvFu7LOI95Q4BG7HaumrAP4AhwgHNMH9NaVz5r2gt6i8tszi480leYcpOPW5kYkeb1BsXjSRBVvg8pF7VE6EDIC19O9lwbHz7AZZnMuoBgGglwDQIpfos/AVFksjggAwn3F6y7v+4yxeNphFx7dRm6nCQo6QnQBXWuMgLOU1350ep33nt8kjaUsZB79ZMvK/NZYenSzrU1jCON2TC2ItDpgog/As2+mvmwx+1CHmBQLAegSAMwQABEBn2smMYzTc5TkF8QBPy5Qscx+NXncCvPPWpTQyf1A5I8MSIoCd7daTH2h1Yselkbkds7nHnas98mmTpYoe3ew4Llw9rW2FPwiAtrHAb4xWAmA7BAAEQGca58Tvjd6qphqaEAG7ozaZNT0uJjdKZh/00qgvwnURwAGR5uwDzw6QGxGpcIC3OhpfI3bHsXnnzXjqkUcfhcynfgp+O1+1uMXuMfTRPwRAU8zS+tB3IQBuNrfLeyx+pAYBYN4jYlX50RyQtyp4dqenyNU21FJAkgdN9eyt7fzhrAiuD1DVydHhvOtk58rH7br0vf/+NVA3uUsOTjkiHGXn5sVfK8+Wok9FfAufMvGYFmvU/AkCoIMCQGxyebOriR1iATBThyfhFp8QAP+QR6tczzswyUvC98wZJcmUKz5A7FRZIBgh9YcdxqnM40qDxLhAEUfoZ5WmdnhXzBHmfJoQnXOSPjg2W7udb/N0oXHur0pRzTv2qrpKeXzdkSNvLi17tTyLtkeuFsLqUcN8ZNeGLKCEgstyvXQ0S4CrLPJ9u2ecg2yHrer3jHV7hdKLk4xzAthYL79RHI/D2UFcJIuvZ+LyLtCeqC0078gIbRqKqZibOyI/1GWotrMAGK/Dk0SkB2rValYnOPiHy0dyExSOsmeBEJbmLxbUeSkK6jUtBMI7Fu6Sxs+v8v1N8+ojm9Vw5HZ6cbJ06K3do/L75GdPKbpCIWl+tD50EQ1yesJ480asJ5439ue30emsUBmgyR/kulbKB/Nv5w82n55wLMeuc5tkpL0R1w3XpdgUsUIW60koiJFH+G0RQix6EsXv9090o6VHpyg/8dh/4XOtHX55bancpFzOjZK7e05RdLzwBX15ep08ueBTIy5XjA1eU/XGQ/FOugzdZhYAI3R4kvj8i8odhbEmUtPHnQOSWBCczgrR7vqAnSw3rNGh1TMrb27YsiRgkhRRfDJw6IojBSZ5/oujAm/xz7jL4Mbw5TTfd7SMsLeG+TL8wLMyO4Pv7zlbwu3ytxSQ6P6d38//bI/47RvCFstug6qbPXVmzwi+juK1ws6UK1de/818SsWBdeevRlJ4+lHZY+CrMx/T3CPDtNil8pVGfsU17Zx+ZW2FdPjcj4LbM7OTn+LZ2zCnRBAA0hawAHhShydJLU6AAOhoAJTDw7LD1OrgubIuO+/g9PlQlMsPhI5HftxUhiuq3Yi1OPy2BM2xKLjxt6sqamPp6xF2Utd/M59usJCe5tVX7lIHOD6mTXYDrxnfBFetTvgqxHo+lnxIiimufskiEfVb2rdx4xMpTWw8C4C/6/AktQ01Nnsv1Jm7XE6/WxE4jS5dO6usQtrNxkfvLFAwRgC0nUX+E2T8ii7GO/5FARPEN+ZZ7TJgjHOd25Uu50VpJQD+xv5Xh6exjR2I5SLhvzn7iRanAXzvyjsGfDQAaOupXnc6dMVJeaMfPn1IL0mmzRErbeZ0zNzxXHzdrYk9zgLgT4JEHZ5mnNsrmCSdDPeozyxRv4vgUwBruVMGwNy84zuSEgsuK12zLD44+4Xv93E923kCILs0TRcB8HcWAH8UxOjwNPOPjMIkMcOEWxMyT6p4lcbV+Rb5j8eYANCGu38OROQumyrtSt5FJZ0erX1sNTE+9f8bC4A/CM7p8EQrg2ZgkpjpOoDrC3DKoErjqHuMBwCtM979NYrMCFa6VpMLr9C7EOydDgeaamJ8LPxnFgC/Fnjo8ETbT63GJDFjidzD8c5KW4hyOtMwl2cxHgDcola8ypTeoqoCWfIYdVk6Hy6CpInxqf8fWQA8INipwxPtOrcRk8SMcPtSzg5otGDr1BuN65hvDF+GsQCgpdO6/Y+Q8yV1n2PeIOyL3iZrJ2A8Op91oQt1EQDcQ/u/WQD8hE/fdXgizo/EJDEvn4QtkaVh1QQVNdCJ9ACkewLQAlw6O6kgVsn65I0Blx7n4kMYC/PAlTU1MS8+/WcBcDdp0g+A80wxScxfHjW1KEHZGKcUxdNkz14YCwCajf4fpWxtcpGfb6M+Q7quGTl8RZsqgHzM9IAdm/g/hujwRNwwYjjuiM3ObrHIVRkHIn4cuhDjAEAz2J9X15w1VYjzt7wHYBzMCJ+AamKrBfdeFwCvCLJUP1FexVXZuAUTxdxRxq9TtaK+4pxbzLXYMQ4AfB9uuazm7r+OPMW6ROCfeeETUE1siuCu6wLgOdKgGFBpdTGtC12AiWJmOMAnMNlL2Thz46Lxbq9iLAC4AW77yy10VR3/c5lfjIP54I6iOWUZOjh/rhE/SGB3XQB0FZxQ/VQ8+T8/tQaTxcxwRyrul66qVwC3peU65xgLAP7N+8dmKiv+w9evqtseWzszvAfq0tmRC8K8bnfduCCA4JDqp+KGQO6xezBZLMAcn2HKJiN3COR2uxgHAP6Nw/kdyup08IkgxsC8LDs6RdZY0MDiBM/cKAC4GNBe1U/V2NiIVEAL1gQ4m63u0Ic/dthxAPBvuPoffwNV2CcnlmAMzAyfbqu64rnJ+MPf9UYB8COeAzo8GTeNGXYAmQDmZrDTk+R2eY+ycT6a5EEjD76AsQBAMNLlBUooUNeSZZpXX4yDmTkYs4tq6mt0qQHwpxsFALPcFByg1GJzo2myR09MGAuwNXKVsjiAmNxzNBUZHwCYruSGUkZJipK1WFZTik2X2eOuutLJjCBdMgB2CX5pd6OJfzBJkK/6yTLFIuD2k5g05mdV8BzKV9QgqKAyTxY9wTgA0FQiVlWzrpjcKHkiiHEwb4YHV1nUxLgQzE9uFgC9BUk61AJYGzIfk8YCcNMR7vqlyt4Leot67uuCsQAoznVukwyOVWHBKYdpgONjGAczMtdnGCUVxurg/DnKdLHdzSb+ITcqPqX86eprZDlKTBrzM8njTaWBgNyiuLdDN4wFsHncY/dSfWO9knV44NI3CMg1Mx8ef5uulWfrIAAKBVOaEwC/5dgsHZ6Q29YOcnocE8fMDHd5jkJSfZWNM1cERNcxYOtwcyz/RHdl63DnmfVo0GVmtkWuUtri+QbjI9/XmhMAd3B2FmfjqX7CU5khNFHsTjFxzI9XnIOy9sCc8snVsTAOwJYZ4/oSRWYcU/a93X7qQ5zEmbnw2oFLX+ty/3/yOymAN4mADwUVqp8wuTCO5h0ZicljAfZGb6VqRe2BOf4A0cfA1pmouCbH8sBpiMUxI/yNC0jy1EUA8JHvr1oSAFNNdwRKjY9KVgXPxuSxADuE+i+tKVZzGVWZRyNcnsc4AJtPAbySf0HZ93aR/3iMgxmZ4tlLqcC7wTjn+1u7lkz8P3twJp4OT/rF6bW4l7IAa47Pk5kXqmy0aw+MA7Bp5h0ZoawIUFVdBc33HY1xMCML/cZSRkmyDm6Vj3rXtiYAHtQhFZDNM86Bhjg/hQlkZjgVjxuBqDKuj41xALbMB8dmUa6iCPEcsfZnHR6McTAjnNauqsfDTcZ1fsa0JgA4EDBKhyc9l32Cxri+jAlkgeOppMI4ZeO85vjbGAdg86dwqooAZZWm0cxDgzAOZqK/46O07/w2Xe7/uRfx83atmSkTQLnlVuSgVKxFApDeoMSCy+pSkM6uxzgACABFAoCL00z37odxMBPc7yQszV8XAZAg+MOtBMBKXZ52ccAkTCIzM9jpCbqcq+7Qx+nilxgHYNN8HPoulVQXKUq5Pk7j3V/DOJhrg+XxhtIT1ptTAO1uZeJfelOHWgBNgYDrqKf9Q5hIZub8VXUFIINTfDAGwKbZHrma6hvqIACstARwlaI062ZsT1sEwC91EQDsHHrbd8VEMjOns0KVFQM6lx2BMQA2DW90VBkEgPng2gobwhaRRvZOWwQAc1GHpy2syqP++x/BZDIzHrH2VKdoB8IdsjAGAAJA0ZlwxjEa5/YqxsEsFQC70pEEF12cP+/wutu1xcS/uE+Xp0aEqiUEwD5lAqC8phRjACAAFJlfoiuNcHkO42AG+jh0UxpgfZOV2rXVxL88R5en/vz0WkwmCAAAIADMYB6xe2mI85MYBzNlAHB3W00srD0C4Eltnjo9AJPJzHx15mOqqa9WMr4VtWU0GB8gYKNwN0zni19BAFhjAaDQBTrd/3/aHgHwP6RJRUAuVDHqIMrFmpNPTyxVFqlaWVdBb3n3xzgAm4SrnXJHTggA60Oj+3+2ke0RAL/iuaHDU3N+7OrgOZhQVioAuBb5bJQiBRAASszt8reyFgjGorPv/7vLzasmViL4a3sEwE8E7+vw5Hw07XxxJyaV1QqASnrHF62fAQSACtt1biOarpmBBb5jZLdTTeyk4HftEQB3CsYI6lQ/OeenR2QE0QDHxzCxrFAAsMD7KOQdjAOAAFBgXIQI49D5sLDi001NbKfgAbv2mPgPXqKm5gHKLT7/Es04NAATy0oFwKaIFRgHYJMMO/As+cQfgACwIno7dJNF7BoaG3QRAHMFd7dXAPxNEKjD03OjDK6ohMkFAQCANTHe7VVZjAcCwHrgBmsq+6vcZGWCvoI72isA7hNsJQ3KAvM1gEvMLpQFhgAAwOqcxZmsUGXf1W0QAJ3OqmOz6WpZpi4C4IzgEbuOmPgPpwoKdfgVXLOaOythglmXAKhtqJF1CDAOAALA8im4n5xYgnHo5ON/hws75HdNE+MAk990VAD0EMTo8CuyS9Nokf8ETDIrEwD1jfXkHeeIcQAQABa2/IprtAop1p3KGNeXKDTNTxfnz9Xdlrf7/v8GAfA7wVEdfkldQy1tP/UhUlYgAACAAIAA0JKFfmMpvSRZFwGQLhhk11EzpQPu1CEdkC001VfWV8ZEgwAAwBqY5tVHWcAYBEDnH/9vjfyA6hvqdBEAnP/f1e52TPwBowVaVDQoqS6kmYfRHbCz2XxyJVXXVUEAAGBh5vgMVVYxLr04iRb7T8Q4dBIjXJ6nYymHdXH+HLzvLPjR7QoATgfU5kzj89MfUS/7hzDhOhGV3QAhAICtC4Ds0nQla+9K/kWa6zMM49Bppzl9dSv/O9/udo0DCPj0XZdfFZUTIfssY8JZhwDgYhmhqX4YBwABAAFgWHrad6H1YYtII+M8xB52nWHiD9qgQz0AtvLaMnnUgklnHQKAje9AMQ4AAgACwNjV/w7rJAA4sOT+zhIAL+siANhQOx4CAAAIgNuzC1dP0XTvfhiHTqCvQ3edmv+wfWPXWSb+sB/oEgjIdiorBHEAEAAAGJ6lRydTY6OavVVEeqDMW8c4dE71P432yPwgw+w608Qf6KTLr8uruEqTPXpi4kEAAGB4AaDKwoUAGO3aA+Nwm/Bm9ERagE67f87p/nlnC4BRuvy6itpy2nHqQ0w+CAAAIAAgANQWc/J4U25KNbITdp1t4g/9iy7pgDJyPM2P+js+ggkIAQAABAAEgDK+OrNe9lXQyOaaQwD8p2C3Lr8wvTiR3vUfhwkIAQAABEAHLCDJgwY4PopxuA0GOj0m2zk36nP/XyR4yBwC4IfU1B2wXodfWV1fRd9GbaZeaBF823xz9lPZlleVpRTFI6YD2Bxcz2TryQ+UrTvvKyjAdbu86z9eVlTUyLwEv7Izh4k/+BlOH9Xll57NPkFTPHthIt4mKnsBsKUWJWAcgQ2mjj1MX5/dAAFg4Nx/zVr/NggWC+4xlwD4jcBel19bXF1Iq4PnUM99XTAhIQAAgABoa55YY6O8+sM4dJzx7q/J43+NLEvwkp25TPzhdwmWUlOfYS3MNWY3DXJ6AhMSAgAACIA2Gq93vkLFOHScFYHTqaAyVycB4CN40M6cJv6Cfnxtq43kKU0TzqM3JuRtsOToZKqoLYMAAMBGBEB5TSl9eXodxqGjwX+Oj9H+C18oK+LUjHEUNweU3G1uAfBrk9LQ4pdz9OWn4cuoJyoDdphZhwbJD4IqyyhJkSVRMRbAlujv+Ci5Xf5WyZorrSmmHafWYBw6yFSvPpRekqzT7p/rSQ+2s4SJv2gNNVUb0sJirp2j/vtRE6CjvOXdn8pqSpSNX25FDr1/bCbGAthYCtnjFJjkpWTNXS3LpPeC3sI4dADebG6OeI80s+NmP/6/QQA8zxs3XX55bX0NzTo8BJOzgww78CyVVBdBAAAAAQBumb7ZnWLzonVy/hyTt4lj9CwlAH4kCNTpDRy49DUm521QXFUAAQCAjQiArNJUmcOOcWg/846MVFo4rRnLFrxpZ0kTf+Ec0qj9ERdjGHXwRUxQAwoATufkIzWMA4AAsIwlF16haV59MA4dgCsoamZnBPdaWgDcL9CmADLXYt55ZgP1tEdNgI5wJitM2dhxBgJHQ2McgC0x2PlJZXnkiQWXaaL76xiHdsIZZ3xiqZHxJvwdOxVGGrUIlsGAuedonNsrmKgdICTVV514q62gb6M+wzgAm4u94Z24Crt47Qz13d8d49DO4D9O/eMy9BoZB+P/XpUAGMQxeLq8icKqPNoYvlz2Z8aEbR/Ol3YqG7f6hnryiN2LcQAQABZKnT6VeRxj0E54c8mbTM3Mz06Vib/8D4JL2pyFNDbIO7URLs9jwraTL0+vVTp2RxJcMA7Aphjh8pyMxre84K4jn/gDGIP2VkwNX0pFVfm6CYAxKgXATwWf6PQ28ipyaHngVEzYdrIqeA4EAAAWhIOWVUST1zbUkvPFnRiDdjDa9SUKTvGhhsYGndzdZYvl/rcgAO4QvMF+V5+IiEbyinOgIc5PYeK2gxmHBiodNw6GGu3aA2MBbCedzHekkrXGfQA2hS/HGLT17n9fF/ooZJ7SYmktBP99JviZnUoTD/A/Ak+d3kxueTbNOzJCDB4yAtp+H/mM0uCWc9nhNMnjTYwFsBm2Rq5SljH14fG3MQbt+Db6JhzU7eif7yL6Cn6gWgDcTU09iCt0ejsHLu6k3vZdMYHbCJ+YcC0FVZZUGEfzfUdjLIDN4JfgqmStldWU0sxDgzAGbdz9Lw6YqOPdv5/gL3Y6mHiQ5wQXdHo718qzaSSCAdtelMTxMaW9rTkYamXQDIwFsAn67n9YdjJVYaXVRbhuayO9HbrpuPvnzfZywY90EQD3CHZRU0tCbWx75GpM4jbSb/8/lXUmY6trqMV4AZthgd8YeRevwrjqJ1Kl28YY15eUtkpvwc4LnrHTycQD9RdoVSKJj5WHOD+NidwG+gil+/mpNUrHyz/RHSmcwPp3lfZdZTnZhsZ6JevsdFYoxqENsEhyj92rm/OvM22279FNAHCDoCCd3hQHu3CJWT7GwYS+9V3XssCpStNcMkpS6B3fUfJZMCbAWqvJLQmYSDll6pqpcuwBxqINmVHeA6igMlc3AcCNf3ra6WjiwUYJtEqUTCiIkSlumNC35u0jw6m4qlDpeDld/Ir6738E4wGskgnub9CJ9KOy+qUqQ9+NtsVoeMbay1bzmhlvsu/VVQBwg6BMnd4W37Ptjd5KfR0exsS+BZM9e9Gla2eVjldexVVaHjgN4wGsr5jMwR7kfcWRymtLla4xzmnHeLQOn0SmFiXo5vx5cz3VTmcTD/ipbm8tJjcKaS9tKk36vLyHV22cjsgLEGMCrIWRB1+go0mesvGVapvu3Q9jcouA6AOXvpYVEzWzq4L7dBcAfxMUaSWbGhto17lP5cBigrc+8fdEb6GmIlMqrVEWc/ri9FpZLrW/46OICwCGCyAb4PgYjXV7mT6LeE+mudY31iv/FnIfgOEuz2GMWqQLLfQbq+Pun22Vne4mHvIBwW7d3lxKUTy95d0fE/wWfHJiCVXV6VHTiT9WPG5usXto2dEp8hSHqwVyDvPQA0/L4kUMCwSMHVAV1Hd9HnLK2GSPnjTHZyitOT6PDsc7U3Zpulb14/mKb5DTExi7Fhgs3o3KdOhWjIOzHjKCALiTmtoEF+j2Bnef2ySUOaoDtsaSgMmUWZKi3eyvrquitOJEisqJoOBUH3mX6hlnL3G6+KU8LWgLsw8PwTiDVgu/8FXY2z7D6e0jI+Ru8P1jM2Xp3I9C3qFtkau/M592nln/r3l4PPUIRedEKo3wv5W5x+7DSajxqv6xfcObazsjmHjQPwsO6fYGuTrgVM/emOytMNWrj/yIWat9ffYTjDNotfDLISEu4/MvyQyilKIr8rvB6WCFwjHUN9QZev5/cmIpNkEt1kLpToHJXjoOGysS7tZ2p1EEwA8Fs0zHFlqZR+xeTPbWSgI7PS6DlSAAgE0KYLFBUNkTw5zGFQDf8R2JcW6BWYcGy9oxGhrXIv6DnZFMPPAfqalhQaNWUqriKo6Bb8Hnpz/SrfUlBACAALhNC03zkyccGOdm8v7F7v94qo+Ow8bVdUcL7rAzmomHnq1bRgDXnD+S4EKDxE4XE7+lgkAjrPYjCAEAbFEAcNnhPVGbcf/fQiDn+rDFskuiZsab58OC39sZ0cSDPyiI1u2t5lbk0NqQBWiI0VIkrPOTdDorhBobGyEAAASAFRgX2Prg2CyMcbPVGV+ns9kntMrWMBlvnufYGdnED1hCmpUHbhQDHZrmT+PcXsECaIEvz6yj6voqCAAAAWAFdirzOI13fw1j/L2j/4fFt+5jKq0p1nHYTgp+Y3QB8HNqqmCklXGLx00RK9AoqKVoaLeXqaS6CAIAQAAY3DiwbU/UFkT/N8Ncn2EUl3eeGkm7007eNE+zswYTP2S1bsGAbKkoDtRqTqx3nCMEAIAAMLilFifIRl8Y3+8X/TkYs0vHo//rwX93W4sA4PLAaTq+Zc/YfdQHpwAtNgcqtbJTAAgAYEsCgIOe3S/vwdg2s8FZFDCBiqoKdBw2rhm92M5aTPyYewVrTD9Mu6sAjnrHomi+N4Cb+HhAAAAIAKMG/+XQNK8+GNub4D4NERlBug7bJcGD1iQA7hA8I4jR8W2fSA+QBXCwML6vkucdGUkZGpYGhgAAEAC3NhQ+ax4u61ynX7c/Nn6oxYJ77KzJxA/6meATPpXS7Y1zsNv6sHexMJpVyo/St1GbZS1+CAAAAWAcyypNo4keb2Jcb4I7jCYUXNZ12E4LHiUjFv65hQBgnhNE6RYQyBGgMbnnaIpnLyyQZpjo8QadzDima7AMBACAAGjm7n9zxEpkOTVT798jdh/VNtToOGxch3ip4D/srNXEj1suKNPtzVfVVZLTpa9ooONjWCjNsOzoVNkjW8N0GQgAAAHwHedfJ5vajD7YA2N6A1z4bXXwXLpalqnjsPGHlUvn/8nOmo2aqgNG6TgC3MZzVfAcoZqRL/t95dyNNp9cqWO5TAgAAAFw3Ys0Nsq8dgQ2N5PV5NFT55NM41f9M3J1wOt2JjuMxqJCYLP0d3yE9kZvpVo9g2cgAIDNCwAu+ftx2LvyqBvj+d2o/91Rn+na7Y+Nq/79l60IAK4OeFHLEMz6Gtp3fhvuzlpg2IFnDN0uGAIAWKsA4GvMbZGrZeAuxvK7zDk8VNejfzZOjx9sZ0smfvBYHTMC2Grqq2m+72gsnBbgExK/RFf5niAAAASAHt+svdFbsPNvBo7risoO1zl+KVhwl60JgF8LAnUdkct50TTC5XksoFZOAvZf+JyKqvINFRgIAQCsTQAUVubRHuH8++5/GGPYTODfpvAVOg9fuaCXna2Z+NE/FIzj+aurona8+CUW1S3aBu84tUYGT0IAAAgAywf8ZZem0/ZTH9IgFDJrodnPcMosTdV5GA/wlbidLZr44b83vQAtjSfO0qOTsJBagWMlPjg2m85fPQUBACAALGQcyR6bd55WH58L599KwZ/gFB+qb6jTdRjTBb0Fd9qqAPiBoL9AyxXHE+d46hEa7/YqFlRrJYPtH5JdFd0v76Xi6kIIAAABYO5L45TDNNWrN4KVW9qY2Helr858rHPaMquSzwT329myiRfwE8E2gZYRZVV1FWIiraf++x/BwrpF3wBuHrTIfzydyjxOFbXlWsYGQAAAYwqARpmhlFhwmT4OXSh2/U9gvFrZkKwMekv3q8loaqqMa2fzJl5CV9ML0dI40I0nVE/7LlhgbewiuOHEYorKOUn5FdeoobEeAgBAAHTQqusqKT7/Itmf30Zj3V7GON2CKWIMz2af0Nn587HEInj+74qAmaRhu+DrFp9/iSahsUb70m+cHpddtwKSPMTOJZbqNRACEADAKAKAo/vZkXFdErT0bXutf25hXqdvsTI+Fg0Q/D94/e8KgPsFYTrLNr8EV+TZdoChB56hd3xHyTs5br18rTxLmRiAAAA6CwCuVMeNydiJfRQyX246+EgbY9M2VgRNp3K9y5Xz3X8vePzmRUAvvnbXdeTKakpoW+QqLLTbyBgY6/oyzT48RN5jesU5yLacliwoBAEAdBMAxVWFFJkRLNOO3/UfJ7uScootrhzbxwT31ym+4JLu8Zuc9fYf8PbNC4AH+BtNmvYJ4NOb9JIkWh44Dar8tgt0dJWBlfyh48qC7x+bKZ2zX4IbnckKk9kEJdVFUnSxome41Gn1TfA/q6wt/9e/U1pTLP9b/oifzgwhn3gXsj+/nVaIMZtxaKDsZ4D3D1prGHMl/4KcSxW1Zd+bb22Fg4fLxX9/fV7yXOZ5yR01T6QFkMulb+iziPekGOaiWnxdhpojHYeDIgOS3GUnRI2NoxIfgadvXQQ8JtBaxkXlRNB0r34y8h2Lz7zNhyZ79qRZhwbJD+Xa0Pn0afiy7/DJiSW0LHCK/HeYUa5ogQo6DjvhqV595Fxa6Df2e/OtrfDxPXfkuz4vBzqhzbg5S/1+G/WZ3CxobHyyvUBwD7x86wLgXsFSgbajyfUBPGL30VDnp7EAAQBAYdAfBxoboBrpMcHf4OHbJgIe5Jg7fa8Cmu7tNkWskEfZWIgAAGB5pnn1lRURNbcswQTB3fDuba8Q2M/04rS1vIoceVyIhQgAAJavN3Iy45gsi6x51P+3gvvg2dvfLOhznWsDsHENfA7iwYIEAADLZRTtP79DqyJjLViMoBs8esdEwC8EF7SWdw21Mvp0uMtzWJgAAGCBOv9rQ+brnu/PViEYBU9+eyJgmKBA51HmicipZoOdnsQCBQAAs6UPP0Tz/UbL+iE69hq5yZwEP4IXvz0B8DPBZkGtziN9rTyb1oUuRKVAAAAwW9BfH3nvr3Gp3+t2BTn/nSMA7hA8Ljit+4hz8ZkFvqNRHwAAADqZkS7Pk2/CQaqur9LdFdQI5qLiX+eJgLsEUzjwXudR5yOppMJYGuf2KhYsAAB0YsT//gtfGGHnzykJ9oLfEVr9mqVMcI3uMyAyM5hGICgQAAA6odhPN9oQtpgMYI2moPUe8NjmEQHdBWdNL1rf85/6anK9vBuZAQAAcFtBf11pZdAMKqjMNYIAKBLM5xNreGvziYCxHHiv+0woriqgL06vpf6Oj2IhAwBAB5jvO5pi86J1L/Zz/eifo/5/BS9tXgHwY9NVgOZnQY10tTyTVgXPkakrWMwAANB2ZngPoNNZoUa492fLFvwDHtoyIuCPghO6XwWwCMgoSaF3/cdDBAAAQBvhFuFByd5Ur3+lv+tR/+M5Yw3e2XK9Al4VpBlhduRW5NB83zFY2AAAcAuGHXiWApI8yCDGzn+j4KfwzJYVAdw2eJEp8EJ7u5J/kWYcGogFDgAALTDI6XFyOL/DKM6f7/0DCW1+lYmA35sCL7S/JKpvqKPIzOM0+/AQLHQAALiJwU5P0O6oTVRWU2IUAZAoGICof7Ui4Clq6rikvdXW11BQ8iEa7/4aFjwAAJjgBj8bw5dTXsVVozj/MsFHfBINL6xWANwpGCeoNMKs4YhWn3gXGu3aAwsfAGDz9HV4mNaHLZL9VAzQ4Od6wR9vwc/hgfURAtuNcBVw3TjIZYjzU/gAAABs2Pl3p0/Dl1FRVT4ZyFIE/wevq5cA4NrLvkaaRXzfxUEv+BAAAGyRNSHzjOb8r3ExOnhcPa8CXhREGeYSqaZEigAOfsHHAABgSywOmCg7qBrI+Jp5teAn8Lh6ioAfCSYLsowyo7hkME4CAAC25vwNUuL3X+Fb1NTl779R8EdvEfAzwXpTlKZxTgLO4SQAAGDdcEXUxQETKD7/kpGc//9v77zDuyyvPn4JFhE7pPrWt7V6ubtwFFsriANf0cIbREAiK4AFExEniEhZDqQWGQoVVISqjEACIYQkhEBCGGEkJGGPhJAA2YPsPU7PuZ87QiEggYzf/Tzfz3V9/lR+SX7Pfc5z3+c+R4r+trIPIvibkQRcz3rrRg1mtJOqrqDFe/+FJABCaNvgP2HjS5SUF0+GcZR9GpHVrCTgHjbWpG+ZJAGyE4DjAAih/bb9XzQx+Mu5/0hEVDOTgB5ssknfNhQGQgjteOYv2/4GMp9tg2hqblHgGybVA6AwEEJonw5/99PUzW9SQu5Bk8786whm70AkNTcBEG8ka1pTmWk7AYtiZ6NZEITQ2CY//9w2jjKKU6jWrOAvRX/R7MNsK0RS8xOBO3RRYLlpNQHrj/mhbTCE0Lj2vgZ2+KsL/glsX8KQH1slAX+QDrz6D2wU6+J9abh/dywsEEIjBvtIb38Dg78g04hGIfjbMwmQLR3jylBlgNCW5BCMEoYQurRSvDw/ehpllaSbGPyl2c9E9ieIlvZNAvqwxn07ZZRwTFokjQ4ZpO7TYrGBELqS7is60+I9c1URs6HMY9sjStr/ZoAnW2jat7O6tpqS8xPondBhapsNiw6E0BX0WPUkBR5dTuVVZSYG/mp9PHwLIqQzkoDr2PEmJgGCbK/JGduzy/6IxQdC2KJ6BvSkXSkRpr71y7b/RvZ3iIzOSgJu1ls+JSZ+a2Wbbfb2iWrbDYsQhLD5W/veR68Hu1Nc+k5Tg78UhO9hu7GtERWdlwTcya4kg2YGnPnm1lJuaSZ9u2cO9fd9FAsShLBZr/m9t2kU7c/cTTW11aYmAEnsAPYaRENnJwFhpn6DC8rz1DVBOYPDwgQhbGp7LetIMyLH06mC46ouyVDK9V3/toiCSAJkzONRE3sEqBsCNZUUlbKZhvp1ox6LO2CRghA2idKeXKaWllQWqV1IQ6nQNWC46w9UAtCK7cRG6aIQI0k8fZjeXu+hMnQsVhDCxrLHkntpiN9TFJYYQIYjhd/vstci8oGzk4DW7F/ZfabuBEhGnlKQhOJACGHjnfcv+yONCRlM20+GUXVNlcnBv4Cdy/4KEQ/UlwS0Ywfp4hBjySnJIJ8DC1TG3h1HAhDCKzjvl2l+h7P3qo6kBlPMfsnejkgHLpYEtNXFIXkmf9tLK4tp24lQeinADQsZhPCy3vwXxs6k9KJTpk3zOxf58KFS8I0IBy4lCbhanxNVmPytlwrdxNNHVF2A29L7sahBCC/pvN/d5xEKT1pLZVWlpp/51+jarlvZqxDdwKUmAdeyY2VH3fQnQKZyLdg9nfr7duGHG0cCEML67e39J5oU5qUKig2u8j+72l+ueN+KiAYuJwlor3cCMkx/EooqCmhdgi+9FvQ8hglBCM9zgO9j9HXMJ2rL3wbIPf8g9l68+YMrSQJu1EmA8TsBUsErnbs+iHgNCx6E8HuHrX6aNiT6qxcFG1Chg39HueKNKAYaYydgrOk1AXWkFZ6gRbGz6AWfR7D4Qehwx28cTvsyokzu6nfumX+YfvNH8AeNWhMw3i5JgHTyCj8eSC8H9MKRAIROK/Rb3IHcfTrTgphPKKMoxQ7n/Sj4AygMbCiphck0M/Lv2A2A0CH2XPoAjQsdRrtTt5p+tx8FfwCFgVf85FRXUMCRpeQV8Kwa8YlFEkL7FvrN2fm+SvxtBAr+AAoDr6xAsJpi0iLpn1vHUt/lf8FiCaGNlMT+zeD+FBzvo5qE2QgU/IEW2wl4lc23y5NUU1tD2SXptPrQd/Ti6mcwWRBCm9ztl/G9R3L2UWVNhZ2CPwr+QIsmAdI2uB8Z3jb4/COBckrKO0oTN3pST3QQhNDQt35rgt/6hFVUXFlItbW1dlqm5MqCNwr+QEsnAdI2WGYHJOovpW2orK4gv0PfqJsC0hcciyqEZgT+QSsfp1nbJ1BGcQrZEDnDWMj+FBEIuMpOQG99BaXKTk+aHAvE5xygT3dMVq2EscBC6Nrb/RM2vkSbkoKotKrEjsFfdlvnsb9G5AGulAS0Zp/USUCt3Z66/LJcWn/Mj94JHYqFFkIXdKhfN/Le/yWdzE/kxL3ajsFfiq7fZ29BxAGumgR0YvfY8emTTmHJeQn0TdxnNHhlVyy6ELrIvf4JYZ60NyPKDtP7LlbtLz1Y2iPSAFdOAlqx9+jqVFum4eW8yBzIjKFJYS/Tc8sexCIMYQvotuQ+GuHfg9YeXUa5pVl26eZ3oW1/d/ZaRBhgSiJwG/sdW2jXp1KKBCOSgum1oH5IBCBsxiK/4f7daVHsbMoqSSMbI/VUR3R91dWIKsC0JOBm9h9stp2fUhkfuihmJr28theuDULYhHqsepKmbRmjpnraHOnuF67rqlojmgBTk4Cfs2+yWXZ+WqV3gEwUmx81TdUHoIkQhI1b3T8l/BXalBRIBeWn7R785ejUn/0Tgj+wQxJwHTtAXpbt/uQWlueplsLTt43Dwg1hI+gZ0FO18JWdtmp7Vvefy+fsXYgcwE5JwI/Yrmw0WS0sbYt0HCusyKetJ9bTW+sGkps6FsCOAIQN6d0/cOXjtDBmBmUWp9lpat8Flw22iJ3M3oCIAeyaCEjf6tX6jMv2SAvSoPgVnAgMoOcxZAjCi9prWUcaufY5+nfsbBX4HYK8EB1mh7HtECWA3ZOAu9n5bKlTnvAsXsxWHlxEb6/3wLRBCOt54x+xpgd9uftjSsqLJwchwX8HWe3UUekPHJMEyDTBSWyuU5702toa1UhI5guMCx2Gq4PQ8fZYcq+avDkv6iOKSt2iemw4jEC2EyICcGIS0I71YPc76YmX/gHSrlSOBqSHAAIBdKL9VnSmL6I/VrdnpGbGxo186r04xH7F/haRADi9OLALu0E/FI5BCptySjIo4MhSGhXYV7U0xfVBaPviPt/H6OuYGXT89BEqrSx2WuCXHzaTHaOvSGOULwD8INzEfkLWwAvHUV5dRttOhNL4DcPV1EHpdoaAAe2iFMC+HuxOS/bOc1Jx33mbf+xWthtWfADOTwJkrPBoNtGpK0RxZRGFHltN07aMpmGrn0ZnQWi0/X0fpXc5qZUC2CznBn7VIoRdzv4GKz0AF04C2rD92C1k02FCl0JBeR7tPLWJvto9XR0PyOATBBRoRGHf4g40gAO/JLEhCasoreiU07b5z+UkO5UwxheAS64LkDaYvmyZk1eOoopCOpZ7iNYcWaq2UBFgoCv7t9XP0ILdn6jRvNkl6U7p3Hcx5H7/EPZ6Fos7AJeYBLTSRTKj9faZo18hKmsqeUHNoB0nw2hK+Ejqu/whVVCFoANb+hqfXGd9Nagf+R9eTKmFJ6i0qoSAmuQnhc0dZVcTKzoAl58MPMpuJwc1DvohUgqTadm+L9QEwhd8HkHRIGzWLf4+nIDK/f2Z2yfQwcxYdbUVKKSxTyo7g9DVD4BGSQCuIqt74L8k9jl9N+BsTpdm0/qEVfTx1rGqhaq0UkWQgk11hW+4fw+aHD5SJZ9HcvZRTW0NHsIzyAvKZra3HGNi5QagcROBG9ihbCzZfKBQw2sFCmhfRrTahv0w4g0atPIJBC3YOFf4VjxM40JfpG/iPqPo1K3qbL8GZ/vnkqdfUO4ntPQFoMmSgDb6XM0ba875SLV1ZnEqxaXvIJ8DX9Ob6wbgBgG8jLf9e2mEv9WbX26jSOdK6VUB6uWoLvS7CSs0AM2TCEjjoAlsNo4E6k8EKqrL1RHBgczdND9qGg3166b6CqBeAJ5fzNdBja2WQVUTw7xUX34pOlWd+mrxeF0A2QYJ1C8k2PIHoJmTgNbsY2yQXJ3HenRx5A1OkoFFMbPojeAXyGPVkxhI5GCl9fTAlY/TK4F9aEbkuxR5cqNqRAUuqcL/ODuebY+VGICWTQT+V+8GHMLadGmUVZWo89xv4j6lyeEvk1dAL3W1EIHR3rrpQr4JGz3VBL6tySFUUH4aD0TDCv1Wsc/grB8A16oNkIfSH9cFG3BnqbZGHRPszdilphPO2fkevR0ymJ5f/jACpk3s7f1nfsvvrTrz+R5cqAv5MlDB33BkaunfCR39AHDJJECaB92pt+aSsF41HGlBnJyXQLtSImjF/gX0YcTrNGhlVwRS40btdqKJYZ7qb7jjVDjF5xxQ1fu1KJe53Lf+FewTbFustAC4bhIgPQPakdU8SAp00KHkCooIJSFILzpFsWmR9O2eOTR2/RD1Rummiwkxvrjlq/VlW19qOWRmxPzof9C2kxsopSCZ8sty1d8QQf8KHgPrRcJTHzO2wgoLgFkJwUhdsFOO9axxKKkspqiUCPqOE4JJYV7kFfAsDVn1f+q+OK4cNu35vfyOPfh37RnQU03ZWxQ7i7Ykh9Dpsmx8MRvxZIysseSLsd0PgNkJgNwUeIhdQOgi2CTk8ZtmXNoO1YRo7s736YOI1+itdQNVkHJf0RnB+zKVro5D/J5SQ6CmbHqF5uycon7HshuTVZKOL17TbffLJFIv9hqsoADYIxGQLoKD2AC2Eutc0yFdCY+fPqKaEYUe86Mlez+nubveVy1kpV1xH9w2OM8XfLqoxjtybj992zh1O2PN4SUUeXKDOr+XSn0U7TX5dr/sFE4ndPMDwLa7AVIkOEY/7KAZkJGwhRX5lFZ4ko7m7KfdqdtoQ6I/ee//gj7jt9r3No0ir4Ce1N+3iyPu3kugHxMymGZvn0je+76g8OOBKlk6nLWHUguTKbc0C8N1mp/l7FOEe/0A2D4RaEtn2gmX4ligBQ5ZOSmQxkTFFYWUz2+3ci0toyiFEnIPqrdev0Pfql2D8Rv+Rq8HuZO7T2cVPKWToZtWhtNIEZwqRlzS4YxNVJh49r9R9+/KZ3Bbet/3n0k+o3xW+cwfbX6L5kd/pH6Wzcnr6FBWnEqCZPterl7KTon8DvBm36Jn/XK1z4P9HxT5AeCsROBHbA92E1uI9dD1kWQhPme/MiI5mALjl6sA++n2Sd8rOwpSEX+u0vFuxJr/p+H+3etVihnr++9EqWmo+//P2zVVncXLvx1+fC0dzIpVn+dEfiL+QGYgR4AH2XfZX2AlBMDZiYDMFZAGHzJlEHuvNqWqporSik5yoD5Wr3JtrhZv43bnBLuQfQgrHwDg7PqAv7DT9LZgFdZKAGyDzAqRAuD+7I+x4gEA6ksEfsx2YeeQNeMbAGDwxg8bxr7I3kGo7gcA/EASIN0Ef0ZW/wDpJihjP1EoCIA5yFmONEt4Rx/xYVwvAKDByYAMGeqmE4EcJAIAuDQlbBxZ80BuwAoGAGiMRODn7Ah2PYv5qQC43lb/XvZj9i6sWACApkgEbmdfZdfpwiIAQMshx3NypW8GWQPA2mCVAgA0ZRIg/QPu1oVFYYQbAwA0N3IUJ1f6PmIfYX/KYnECADRrIiBjQmXGwCZCsSAATY0U92Wws9jfkXVr5yqsRgCAlkwGpFhQeokH6AUKHWUAaLy3fTlu20Mo7gMAuHAiIG8kfdhVbLLeFQAAXB5ScBvKvk0o7gMAGJIIyK2BvuynhM6CADSUXLKu3krB7W1YUQAApiUBZzcUGkfW/WQAwIWR7pv/1smzjO5GAx8AgPHJwLXsrexAdgdbRigYBIB0vUwKO5Oswr72bGusGgAAOyYDcnugK7uYTWKLEQOAw5AjsVQ2nKxbNNdjZQAAOC0ZkMFDH5B1jTANRYPA5hSRVc2/iH2GbYtVAADg5CTgarImlQ3QRYO7ESeAzchm17Bj2c5yJIYnHwAA/jsZkKLBB9mResFEu2FgKpXsAXaqftuXNtpo1QsAABdJAurqBH5BVpvT6XSmuRAKB4ErI99Pmci3hHUjq/D1OkKbXgAAuKJjgt7sQv1WlUXoLQBcJ+BLX36ZiyETM3+GJxYAAJomGbhFV05/xe5iMwmth0HzIkE/ng0iq4j1YRT0AQBA8yUCrdgHyJpK+CUbrc9dAWgK5IbKUb29L8V8f2VvwpMIAAAtmwjcyHZkB7Of62MCJAOgMThOVnc+D12T8ks5ksKTBwAArpUMtGav18VXj7HvkXXvuhYFhOASz/Rr9bHSArJa8t5D1mwLdOcDAADDkgKZSXAzO5xdzh7UtwoqEO8cj3wHsvVbvhTxTWafkF0lPDkAAGC/hOAm9jn2MzaYrCFFKCR0zhv+aZ0EbmTn6GMj6cGPO/oAAOCQRKCudqATO4T9kF2qiwnzESttQzmbrN/wZ7CeZM2i+DW29QEAANQ1H/qlLibswY5ml7GJiKHGIX8zb10DMkhv68tbfjt80wEAAPxQQnCN3iG4Xd/z9mLnsdtRVOhyRXv7daW+l/5b3a7/dtfhLR8AAEBjJgdt2YfYl9i5bAybQNZcdzljLkGC0GgBvkT/TlP0m32cPqqZwnaXII9vJAAAgJZKCOpuGnTVZ8xTdZDawO4gq2tcOmHc8cWQIswcHeSjdJHeUv27rDu3v0t+1/jGAQAAcPWkQGoK/kBW1zg5i56gC9EksIWwkewxHficQqr+meVnD2S/07+TifqqpgzReUAnVAj2AAAAbJEU1B0fSGJwN3ufblgkCUI/dpTe2pYmNH5690CurJ0yZPegUgd3+cyxrD9ZrXOn6J9Nfsan2Ef1z36nvpYpvxN8QQAAADg2QWijC9fakzUOWa6q3aa3vn+vleA5TDuOrNbHn+tgG3UBDzWg7W30Rf4//mf9e6P0ZxigC+9+ryvt79Cf+VYd3OuK8XDPHgAX4j/qxzDKtHT2fAAAACV0RVh0ZGF0ZTpjcmVhdGUAMjAyMS0wMS0yOFQwNjo1MDowMyswMDowMIsj5OAAAAAldEVYdGRhdGU6bW9kaWZ5ADIwMjEtMDEtMjhUMDY6NTA6MDMrMDA6MDD6flxcAAAAAElFTkSuQmCC;" vertex="1" parent="14">
          <mxGeometry x="16.829268292682926" y="223.71428571428572" width="58.00000000000001" height="58.00000000000001" as="geometry" />
        </mxCell>
        <mxCell id="L0ZQ6DjtJ8MIK-CHPv04-27" value="" style="fillColor=#F6F6F6;strokeColor=none;shadow=0;gradientColor=none;fontSize=14;align=left;spacing=10;fontColor=#717171;9E9E9E;verticalAlign=top;spacingTop=-4;fontStyle=0;spacingLeft=40;html=1;" vertex="1" parent="1">
          <mxGeometry x="40" y="270" width="280" height="160" as="geometry" />
        </mxCell>
        <mxCell id="L0ZQ6DjtJ8MIK-CHPv04-51" value="" style="shape=image;verticalLabelPosition=bottom;labelBackgroundColor=default;verticalAlign=top;aspect=fixed;imageAspect=0;image=data:image/png,iVBORw0KGgoAAAANSUhEUgAAAlgAAACtCAYAAABspgFfAAA3DElEQVR42uzdzWtcVRwG4Au1hQqi0I2biiDUhSBKTfELUijYkjRY0VoVwRRcaBQM1pXJQgjYZPI1TgJKFdNijZnEjxAIaRRr1CIKLlpEwaK0kLpw539wnJNFadN83CRz6c3M88BLd4dDs3k558zvJgAAAAAAAAAAAAAAAAAAAAAAAAAAAAAAAAAAAAAAAAAAAAAAAAAAAAAAAAAAAAAAAAAAAAAAAAAAAAAAAAAAAAAAAAAAAEA9a2lpaT148OB/lX9DPafyf3C5ubl5bwIAsBH79++/Oy8FJy8lKwEA2ODp1WReyk1eUjnFeicBAFiPeB2Wl1KTp8Tr0niylwAArOP06nxeSk3eUilZJxMAgLU+bM9LmclrPHgHAFJrbGy8w68GU2UuAQBIo1KuijkpMJshrQkAgLEM1R3bEE/8EgCA5cRrr7yUl80SYxsAAGMZMoixDQDAkuJ1V14KyybMZAIAsOj0qj0nRWXTxtgGAMBYhurnfAIAEMWp5DkpKLUQYxsAoN41NTU9kJNiUhOJJ4HGNgBAnTOWIZOSVUwAgPpUKQKH8lJKai3GNgBAnTKWwXcKAYAqitPHsygWDa1tYUfHUKrc3jUS9r3QWv09vF0Ie774JTwy9sOqeezUbDjwcpuxDQDAxr83mMVYhgNPPR22vvtpSArjqbLlk5/Djo/PVncPzzwbtk5dDPfO/Bl2//RvmsSildl3ChMAoD5kNZZh57HjqcvVtkI5JGfmF9LwRmfV9rCr64OFNbd9fSXs/n4+dcna19Gd1SlWewIA1LasvjfY+NxLsTilz+e/Xy1Y2ycuVGMP8boxrnc1d83+nbpg7Zn5IzQfPmJsAwCQn7EM8U1V6tOr4mQsQNcmnjxteA93vj99w7oPnr2UumTtLXyY1VXhyQQAqE1xynhGD9vTv7vq/iwkU38tLkLx3VR8P7XuPTz6yrG4zg3ZcSZ9wWr47nJoevFoJiUrDnRNAIDaEq+pshrLsL1rJHXBuuXEt7H4LJmdxYn172HiwrLr3j97MW3Jir8qNLYBALi5Yxl2vd6Zulxt7RkLyfSlWHqWTePRV9e8h/s6B1dc89ZvrsTylDpPvPZWVleFhxIAoDbEsQxZFIZ9h59f61iGWHhWShzbsJ6xDKuue89M+lOshyd/NbYBbqLR8fHHy+Vy+9jY+PFyeXxuccbGyudGR0fbK/Er3YwMDQ0dKZWG2ysZLZWG5pbIV6VSqb0SfwPqV0dHx4+Dg4NhYHEGlsrAqimVSqG/vz881Jv+avC29xYetqfKm8Mfhb6+vlR5cmQq1ZpbZudDw7l/UpestlNfht7e3lAsFsPw8HAoFAqhZ6X0XJ/+/oGFdHd3X5u41m/T09MnpqamhlfK5OJMLp/Tp/9n79xi4jivOP49NVWlSEnVt0jlscpD/FTVakrfWlXqayvtS15S9SUxZgcWg5EjEzBmczGxudjCZGU7xIDLxQuB2maXy2LjZWHBgMEGk7HBYJeqfVgpaVeKVt7pOQZGk887M2cuHxm2PtJPi/cyixCGH+ec+c/lt5hOLS0tSchdLXfvVgDS/PzdmtnZWUkLE1RTU0mJJx5PVMbjccmIiYmJQqZT+NjERFzKzURObuYA3ufT7cfjlXBbPTIyIukRjUZrhoaikko0WgH3SXqwHHX9erQQXic9Z4jCkHT9+vVCJrj6+gZ88L0naenr66sIh7+SchOWent7C5gL1dXV5ftbV1cMblNAFlDMALlS6ezszMDtVnt7ZwhuXf1atbe3F8D/MamN49KltsqLFy9KHHD/pUq2D6up6Wywqal5DsTp24aGBsU6jemGxkYZXh+Cn80FbB8U/EwurKv7WNrlZDBYWVNTK+lRVVVbyPgS//u7oPLYMekFKnNz9OgxHxNQgUCgoLy8UiovL68BJD1KS8sqAbgtVSkOBApZPtbo6FjzxsaG4hbr6+vKo0ePlI6pBRQnOuEVsmANLq/he5D4YHadfNyfj/2DLFi/nfynMr8qK6urq8qDBw8ss7y8oty7d0+XxcVF15ibm3uGkpVDrq6trKzofH7LCjyuLCwsqMzPzyt37twZZi4WyEtBcnY2DfKm8ExPTytTU1OGJBKJDNOpxNRUFp/jAurncvt2XBkbG9NldHRUAeHhiCggU8rw8DAP3h9mXEWjwxl8zCJZkZLVPzDwweDgoMIzMDCg9Pf36wICJjuQqsKuru45uM0AikVQqlCu9EiDGIWAAuawUNz447e1tSkgUrpcuHDBx/ZBwR98EkiVjH80a0Fhck7jFsoW82hty1WdwlNVVaXL8eNV2WPHavdUHo8erdw6cuSIYgWULPflqiKtfQ+4LyfFxcXK4cOHebIsH2ttff2ZW3L1+PFjVWwOXrxOlqufXRgjS9Cf4up7kHljZIN8/LdBnKiSdezOhnO5Ei9YCP6ia2ZcgTTF4DEUKfV9Qazwc8SPUahQzlCqVOkBGYoxF2tmZiaFx81FMpk0FZ94fPI+0ymiPFEkDsTqtnLr1i0FulQoUYaShTKFYsUTiUReEKNINBpjXEUi0TmiVPGyJjNBNTA4mFHFisNIsMLh/pAdseru7pFRkpxw5coVlB0zsu0dHTEULfuC1ZkiypUKdLI8PTaDblWosakpw4kVL1lukQHZinmtq1VX95HMy1V1dTWKlCE1NSdibA+rvKIiZVWwsJMlQq54ysrKeMHixKpYOXTokOL3+z0r2rYrPjk5++TJE9e6V2tr252lT0anyXL148961cV2M16NbCo3H6xZFqyOJdrxkVeH6WNCZGL5a7flCkHp2TPB4oHxoALig6iyI0KwQKBkPKYe08mkmfgYCoWbYoXEYjEULITaxdITLUPBghFxAXak7EgWjguZy/XVwEAMRUoPGBXqdK/6U1ZHbQSxIgM7Wqr0kESrvSNmV7A4uaIIVg3zYG13rJrSqkiJFSyeDNDIPFC1tbUFIFRZrVydPHkSBcqUDz/8MMPUym/BMpKrXN2skpLS74nVe++9pxT7pQTLt7p27dpbmyBXTwA3R4PzD75WXj3dS9+9+jJOlh9/ku9e0Tk4Tu9iHYxvkQXrneRTq3LlecGCjhXKlRZOsMTLFZJMzhjJz78ZlAjBmpycVMVKA4qVFkoXywh8jipYfOHoEIXJBmnmYuEOFUhUlpMq0pgQd7AsdK2C6m6Ve6D0WOU7GKf7rAoWJ1cUPmUeKhCrgrNnz91XBYomWIJoTMFu6wFGKHHjwY/DXPcKxQkFikR19Ymdjkx+C9aR8vIN6ntiN6u42K+KFYCiJbN8rMXFpX+hXAGujgb9gxN0uWrsJ0sPjvnmZXwPW2Dni/xeP4pYi20ILz2kyxWdH0KwcCSIcqOKFQ+I0RRzWNMzM3P4HgT05CqNu1vMpFwQK757xUPpYpl1s6YZVw53seC40RBzqUCgZEAxIYdc9ckCulbCBIsHu1lWBIuTq301Ijx//rwP+A46V4olwRInWXiSVPbUqc+C7AequmAwo5WrWrV7RRWs6p3ubf4KVlnZkafazlRJKQC3kiQp/m1QqLQjQZQqlaLD/g2Wj3VtaOjPKFa7bG5uujIavLm4jOJERQ3/pNByd7tD5oR3px6T3+8X4/SF9z8ktozlaoUgV4QulmDB2l1iNxOsmMPOVQiPT4QgV84FC46nwNmBnFTpdK949Pexdkd2Zuh+PfEsQptdrCyOGZnDwrMEUZ4owHOxY6X09PQoO52oQopcwfPSAsSKsOhOYouymwVy9S1I074UrJaW1kaQq+y5c+dUcfJCFwvPykZO1deHGV/il9uDhMV2gmTV+hjLT8GSpFIZhckq77///nO5OlRUlIZOlqd27lwrkI3M9wXriSvdq99fjpDl6vWWG1TZwfEeHt8p2AHDPS5ybMPBOH3h/czCupFceV6w5ucXUK5IgiVKrghnEmZv3074GLEM96v0xIrevULMlt7tCBY/KkzZ62JFYo4X2wf+nqLKFYwScefpudR0d/fGKLEL6khQIJCHhaLkhLSZZF269EVqPwoWyFUI5EppaWlBWfKMYEHUD8qVyqenTsmMK8GCldLK1YkTtTYFq0ZmbG8Fi18qhwgEAG+xy1SiSNI2ZbA4xWxWaSAQRlmyKVg7chXIT7mCH/rNKFVaNu2PCVFc7MUyfCW7GcsgJLbhjbGnlmIb5lZWCXJFZwnYC8GCWxQrFRAp1wVrano6iMJkQ7A4uaKXgVjxEkXoXhlC6GLZEyyMXsBj2AFfa797NRgiyBV+XylXr15VBQuyqjLt7b0FAuRK0KI7XbLySbB25QqB0aCnBEsjV3suWcHgJz5C94rMXkQ2gDD9x6LogIiVS7bkqrQshK+3S1HR4Wf+srIDLF8LpAilisfRaBB58/wgWa5++sVNAbEMdN4coy+8/8bCwnvJ7CZJruiIFyw4Y1ArVyA17gtWIpn0gSxlbQlWMrk7xpOYxdI5I5AAoXtFlyzcs7InWM5jG1J2F9thxPjMZLEdR4IoVzuCdRVlBkeEIbOxoJ5ceW0PS0v7jmTlg2Bp5UozGvSEZEGYtSpVHBgcPce4Eh3NUFNT40iwqjGyQbxgpYqKijDqwL5giZcrJAujxb+wfK1kckZWpYrDyWjwg6FJUbEMlMV2T8U2RO7JBLmis7i0JEywYOfqzk7OFTceJAgWPaG9iCJXRllY8UQixGwUJ1Z2wPEfypMTycL7LQmWsNgG+mjQLJZBFSutYGHKurlcdefcufLwHpbK5csd0n4XrJ2FdkUzGvSUYMHVMVCm9IDH60Nioxm0sQyG3SvPRDaAYH2DgrXLYQjyLAbcFKzSI0d8DsQKPx8cV+6LcF3bsQwoUjrYGQ3aimV4pX1aUCwDnYcPHyq/u0UfFf5ygr7w/s70UxQj11gSKFjQrYqBVAkTrEQi6YPXZAElCczYGxG2MZvlRKyQ8fFxulzx+1j02AbS1xPODLwGx7DTxcpYk6uBQsJIMCfd3d2SyWhw3Y4gCQ0cpZ9VKO/3ESFGMeBCO2E0SAFfD0nszW1w62M5CoSpEJLag/BcGT7OmskVRDOgRJlTX+8TMx78OGYhlsEzkQ2wX/WtKlgcIDYEwSLJVdaJYEH3K/+CRLV1//7yN7xUcWcSWs68Qt4Nj4uKZRAiV7IsPx/hjd5btRTb8GsLCe9t81/vCpJnxoREwUKJIggW8RI4yWRa5zhEuUrKzEHZkqpbt7bGx2/GELiMVGJkZDQG4kRmeHR0Gl/DMzw8MoGL59sMqVg52w+enwFQmgQtvKNgDW6ZjAR1CMtmOVc4QtzBDXHKwEWd5/Biz52dXT6Wo0Cs/grPCXV2XpExSNTJ2YT5sOTe2vr5lgujwSwIVayh4azl/T6QrRBkXGV0BAtHgBTBwi5XWkTqexCiGbhQUZeoTjOBFSgrS8F4EIXKEHyOVrBeypVLFR0ZqdARK+5MQvJo0FYsA+u5R5UaHOO53rXirxtYlHgkLLYhuXTfU10soYJFlysei3IlXrCYhwviVSRN54vexaLFNuBiu0QcCfJkYffqgNFoEKQqCyiIQ9FKwetsyQle6BnGhan/x7MIQaqCTkeDIFYpVaxsFopRQ0PT3IvdqxzL7cajwpjLwaIhAd0rFbwQtEjBgjMEUaJIYIp6SSBQTUlpdypXJSWB/Etp14tlMGITIC6227re4OufRwXFMtC7VjzJ5VXY89ogxza8bSG2oXZ2bd8JFvybJFhUuaKS5GQLPk4xqJeClauLFUnpXHbHCEyMlwmhohnaSJAnHGMGhUGivFjZkK00QayoF2cOgmhlzOQKn7MrV/tZsHA02NramnEwGoTXNLu6YI6jQxwbaoJFKWLFL70XuhnNQIxl8FxkAwqWJEkoNFTJMu1goVz5JSntRK4kqTQ/U9q1BSOPXhj/oUSZQRsNio9lwNR1YV0rnuDsQ2GxDeOLK+4IFrA3gjXrWLCmk0nZ4PWU4/8XJe2lYOnHNuhcdoey8O4zWGwPE0eCPJmLF8OvGV24mRMpG6LVPcdcLhQnHP0ZCFZ295I5+12wzp9vje3KFVwOx4ZcnRUy4jkDu1s7kkUQKmHRDXw0AwqRIGoLRQoWdLFcESyUK8mhXPn9JVss3wv/clkDKcKxHkGyyKNB5I3mPhHXG8S0dTe7ViR+FaMnvL9tIbbBP7PhmT0sAYIlQq7UlPaXgqVfN27cmDO4viE5toG/3iA3EiTSF6R2r+yJVk+ICSyIXwjnEqxdudrvgnX69OnXcLHd7mgQ962YwDpzpsnHBYvueRer7qOPZGIsgycjG3YFi9DFIgkWHCcFy/EO5EpKBwJ5GiTK/QJdRzECKJJFGA1av97gK3sfy6B2rah8uUDvrv0kau06hT0Lq56Ia4CzSL8wESyqBMUEyBWCQaJ/ZFAvBcs8tgFkKgsouYkYdbFCOtcb5EaCFMKcsJG6V3S6uzuY+MJuVkgrV/hvBpUPguUgUBTHgnvShaiv/yxkU7Bw4f0hc1CwzH5AXWwX2L1Cjh+vyooVLKTEkWBJ/2Pv7GOjOq80fv9YadNVIiVqd7XN7gqp1aa7K7VabdvVduWVutovraqqXbWS2yQK+SAJGAhTwBiDDXhsYmxjcMJXY49tIGAgAQZDMNjGeGz8FZtgAgSTMISEljhdreSU7DrtTpjb89jTl+H13Dvnfrx37gw+0iMTz507Q2Q8Pz3nvM+htp50CnEWrgxiGX4s4IoHWXjMqDVoO5bhvv3n2PBSff4DBa4VT//Vd50f23CGP/D+2PAvMz2HhaR2fCBuVQVY9L2wU7gaGppOaZ8FLLaLFWYskk4Z25A88H7k2LF8qSXIFjlf+ebu1eth+4D12kyQV+9kCbhSBVhNTU16Y2MjqblI86Bo9mrSVmtwy5YYOiCaR7VxY+24Tci67VI0AxY0mwGSbyMbBGDJLhYfsGS4koV7cmArTnCVp90LRXM7twBUxpDFB6xkiPnRgS5+Yvv2N7jQgnR1R3B19epVu3AlYhusDLz/g5U9heeuZahNKNbgpAMstAdtARb2C+L7TjQ4ODxPU1A2cq+yBrBQJxOxDelBq1N2sSJJsQy/5rcE+bEMqAMYTLcHV5NaFhUAy8SpElDV0NBwR42Nyh0sAqs8+63BbZWah4VWX3V1TdwOZG2orrb9Xgms4lZjGdasXRvHqUB8teFi/Z9iwIIsAxad9hu1cAoxFWzFly4tzN0g0eQ6TfsGJajiQpZpa/CNc5d8F8sQjV4DIDnWlStXLMU2PNLDH3j/auSX+tDFy567WGINjgLAcgpXI1iBM71n8JCGyjxgIRA0qwCrrU3ENnAk5rPwFYGira3HDkktQa7imNtS1R7cv//1eVoWlQxYAqhCoWSoygBgNYRttgYntAxUTW1txA5gVVVV3bQbzWAjlgEu1KhGRTNVUT5YrdFXrVqlFxcX66WlawPKAEsMu/MBCzlV+J4NCdC6Z+AKRa2yGCDKBmQZDLZbj2X4UlM3G1b+re9Dz10rANXY2Jh++fJlgMuUBi+8oz/cyR94/w5j4P0f+z+aurZgIOo5YGENjirAoq/5FqFK7BUcHBycWrjcNzAg7PJMA1Zvby+S2LMKsKTYBq6mAYsiGRggZSuWAYWdhDbdq6w7fdTcvPNWY2OTHkoAFUf19aEy9YBV/zG1Bn3vXiVnZNkCrOrq/7cZLDoJuCqvsBjLUDF9GhBfeQufVwOshEpKSscVO1gAHwZgOYErIazAye0gUSmHqEdAlHXIMmwNVp8eZsPVFzYdshrLoNy1AlBRmr0AFSO9NPIu+33/aVfagXfsMhTXd7w9pjquQYYrLmBZcZ4iCbiKM64Vi5YBVMnqHxiIalR+ASxyr7ISsKTYBpZoBgvzU7pNwBKrd1ScHkQyu5ZlFQo1TgCarIjcJeUO1o4dP79t49RgTMtcYRYrageysEfQUmuwqipgJ5ahLBi8C44o32rC4FoCqRIBVZIIutbmKQAstou1bFlhJYWNvjwLVxb3DQp4sgdZ+HOqwXZVsQzYN+i6a3VFANVlCah4+lY3f+D97832FJ65A1fQP0fe92QOi5Y4A5rYgPWWACzHwu7AZJcKMoQrvwBWwr2CqIXWnXVWt4htSCO6DhEMOCmIvYE6uUw2AOsIC4CQuG4DsOJaFpZVwKLBc9WAhYie7XbS2rdu3XZZy1gBsDZV2msT1gSsRjPYiWUIVtydyE6zWJXyNaWlpamgSnKx1owqAyz+sHvcAVwB4ka1e6lELIN9yMJX0RqUYhn4+waPX+fuG2THMkSvXTMFqrGxK6Ld51QHR8es7ClMCVcYgsdj8vWh4XcwG4XXURDXIIba2YDFaA8yXKph4VKlEcBrQpsu3wBWwr3yTJ2dXaNexjZAx9va9NbWVsAVBLiyDlmIZWDWvdIetAFYGDr3ArCKsTw5kZTu+/agwzYhAOu8hdT2PFvuVVnqnYI0vxWT5qw4ilPrcI46wBIulgrh/rmf0i4NvIpYBgeQBRHQXE/eN6g2loHvWsnzU8KdUqEf9PIT3r/eO2PgHUPwqYfjT12HwwQBhgBFTuew5KF25YAFlwpAJVwqvu4EifoEsIR75Z0waD7hZWwDIhgAVckCMBFgCTFahnTNkXylgPUaRTNkYVkFrB07digHrC3btlUCrChoNKE6Fmi9tA27BjNblG0Vsw5ZGy9ZiWawEcuAFTop22G0zLlNzFnxBSALKQAshovlSPdGSrtcBB2/cQhYaAvi1KDtWIY/fuWki/sGxaobeX7KE2Hg/X57sQ0Yfje9vrD/CgDrLl3ggxYPrviAxT3xJ4DKrvoHB5OcG38AFrlXOQFY05B1d2wDzWcJ10rW4XAYYMWFLFwf1ZhF9wrYc7BeD2hZWBYAC4GfngAWOVERAJWArCTV1RnCli9mEGtqNk5YDxzdOG4lmkHEMvBl2L6GEwVHyiJgkdu1OqYWsCD3XSzKusq6OUlH1Y1YBgdQlQwyydrddxbgxFf4ChewkJ6O1zQSAcNF0UrLlAoG+IP6f5G0pxDD72bX3t9+Qz9z7m0JsoSrhde26mJhqN1VwBoeHhFtPxdFae39ns04+dG9UglYiG2QXCtTyYAltwzlWIZZwHIMWGgPeg1YACoBV5KSW4gYcPdF/hi1CUdtJLpPsNqDVVUhq7EMULDcfM1NaemaqEXAEpENCgELUtEijN8Tae0o1LX3349bBCvRegNIGemvfn7UQizDaTaM/LDvutnrAiIAGslttExBlqXYBkQyfIfEufax3qupAIvVPsT7Mh9q5wPW79uDI1KEgkJ59kvcj+6VACx1B10+Ea4VA7BYkBWejmWYBSzHgAW48hSwDFysVK4WIOsTzQdVU1MbUQRYiGaIVYhYBr7oOaatU7omzxpcrUrMa63+lWrAWkJyv00YmNDulWJCFdp/Yp2MGeDg8fCbo/x9g6906t/o/pBWyNxk6eAFU7CDcyUAKyH6XmYga/Hpt/WH295LreN36886rmNXIQew4GLh78UR/n/IcQ3yULstwCKwGoZLRa6SVUjKilahH90r1YB1mAJEAU82AUtuGYpYhlnAcgxYaA96D1h8yMI1vvjQVAVYVYloBqtwFQyWs9rjlG81YQJVYgC+qKhIX7FihRC1GPMUAJbyYfelS5eFtXuh0OYzaQFyoEoGLL6DVXtYf+DEdf2r3fwlyIG3fmH02oAHQAMEsBCQkSk362sWXLyHjvNbit/viTLgyrB9aAZXcnAohtKxZ65Bk4pO/0UAWACOvr4+LyELIaPKP0z96F6pBizU0aPHRhmABaeKAVnhjbOA5QpgAawyCVhwqe5pwKqs3PBxeXm5nf2BrL2Ra9etq0wFVStXrhRQlUqrVpeMKgAsXvCo8xysrIu1cTyDBaiitqE8V2UFsNgzWA+0DN85TdfH38/X/s5VU/dKBiwhfN+j2ayiY718F6+pR4IoWzNYllwtavHNyJ8CMKXS6wcPbjUALDhYcHQAHl66WXHVJwqN3aszAJ2cBSzMSxFAxdMAFsHTYTO4AoBNvc9ZwMoNwGK4WP4Yct+4cdxdwBLRDFyoEkGhJaWluC+7CKg+p+F1QBXgiSsR2aAAsFS6WARuSybviXksnCKU5qpc0b/sPmkMFnWtd4HDl7t+wQasx4dvyq8FqAFYCUltQk/drMHRt/X7Nx1kwRVcvD88yZ/Vmt/3nhO4AlAJUJFAyhZgkQBYQh65WZj3Unrc14/ulReAhWptPRqWgIpzklBuEeZr1gsho/n2YhoOZmUqNACL0R70GrDCAKoU8j9g2TpFWBNJE83wDjOWAfEJwoGiCIaQxi+0CcOAJosip6skrACw2JENs4GjaYp+ac8FpLitrnMXDMHiwSPvzMx56h1nQ9aeC9fwGiLXCtDEAyz1btbjr51iu1f3t7zJhqsvd35oF6zQ+hP5U4k5IoCKG4AFqBKA5aGbhVR3ZX18P7pXXgEW6siR1pjtQfdDhwzmTpTmYGXlL2oGYAGqPAUsCnIPCKjitwpp0H1rxl1EAJObgIU1OhTLcJsBV3JQaFyzWHCi7ABW0cqVtiMbqE33awZgEQgtBRCpgax7IbqBPjA/cAuskme2FrX2zASL7akzrx7s5LtY/zE0LrtXDMhS72a1j3AH/IWLxxWS3K2CFSIYxAk/KAmwBGQ5BCzcU9wvjZuVNdENfnSvRJK7B0VrcQI2AUvEMjgArLiNJHdfxAS4DVj1GQCsbRQYCpgykAlgbclo2GttbW3ADmBRtEOlce5V5XHzWIZ1ulFQ6Jq1a0fXrFkbIWfq0qqS0rOrS9dEVq8uNVFJFMBkR/R8W5BCDtIndKpPz6CLBd1euHBhbrcK6Rfm11UA1vDFd2akuT/UZjzQ/dXITTZkrR/9ECtuZKiS57AYcs/N+lboDTZgPRi+xIarb55+3zJcjYycBfzIkkEIoOIEsCD5nrKblXXRDRbcq6zeRWhWR1pbJ6wCFsEVAwCV7CLUW1oOfkPLsgJgMbKvPAUsFEDKRAZxDS+l/bfotwysBGAZnsSjBPbPbSxkhpsFiXkqxUJ0w4Q9wFo6AXBasmSJACkvg0fnz1+gz5s3Ty8oKMj9hPeent4eFa3Cys7BO+tw0gx0f4GSzf+2nwdY/zT4sd79tgAshoOl1s1q7nmTCVfCxWOr7S0WLEI4BSicJQZgCchyAlh9ff3SPblu1lB4YGAw4qhV2O9+dIMN98oXMyguz2JFLJ4kxPB7xDFgvf76qBWw2r//gL53b4u+p2XfG1qWFQCL0R70HLAoOHQCIGWxVYjHzGIDfLgmpzpu3B58MZAKrCgYlBOl4LkQ2WAXsBKQBdkCrKXLloUDgaVRK3D13HPPAa6EFi1anPvRDXSMP6YCsr7deJw90P0VC7ENLwx/wAUs5W7Ww1vC/MXWJ97nwhWCRe20AxmAxYAsFmAB5oSLxXazBoeGBBhhaN1RdEOfu9ENKdyrWcCSRG6VGsB67WBlWqiacqwIqvbs0V999VWIIGtvTMuyMgOs+noGYHl3klCWAWC9HNUyULW1m0IAJjfX5ASDwQnzOSsBVQCcTAvrc6IOAAtCJIMZZOGxFHELy8UwPz0+yYGrZ599FlAlK75o0ZKc6gLMqI6Ojq0utwlFbMNDr/GXOf/1GX5sw4FzYxzIUupmFYS7+bEMO/tcj2UYHhkRAMUALB5k8QELSp7tSu9mDQ1FtaRC7AIp5pfoBsm9mgWsFDp8OKwEsAiU5vCgShYga19WnSYEYDHag54D1vbt2/MBUWnkGxeL1tj8luIUdPqqV90RA7BqQwbD7XkCrNaJOSsAFf6M1p8voOouFRXdRuyBE8BKcrM4kQ3IsopoSUWvn4d1OEZgVbBwIUDKUM/Pn5+Vs5SWavT8+VtuAxb0vV6+a/PnFmIbHn3zF4w5LNuZUa7HMtxnIZYhODjGbwfyAYsPWXzAwr2ZgNX/sZai+vuH8h3NY7kY3SC5V7OAlULhsArAEnNY4wmwSoYqhvbEAWiah9XY2LQ91NRU7DJgAaYyBlgoWn8TA0RZbRXWeRw6SqAURk6VkWjFjV4J+NowA74wfzXHYPYqmpizAlSRVqP15w+QMtDy5cv1whUrwi4AFpQ2eBQtQW1GAbIKK2fC1WL9+efnA6LSauHCRVl5IphdtOz1x0piGy69qz/QcYMNF4/0fMSGrO1vvcdxsJS4WT9o6eC6V5ZcvEdOXTdrB1oFKwggkh6CCCxwLRuwhFhtwskuE6cJM1nO5rEGwu7MI/ZMAVYkEpkFLAOFSaoAa9++A/slqOKKYKzFsw/4xubmEHKq6uvr9aampnyXAAv3YwBWxtuEkNGJwrCGUg5XtfkEUHGAlEUBsm4YxSUQWMVpcNz3UJUkuE7YHRizC1hcJwsulgxXciHfKgmuREuQKbx2VgYHK4pt4GvREN/FerCTP/D+74Mf6YPnLzIAy1036+DAWc9jGUbkdiBfInk9vQRkWQEsuFO24cqleazb3d19eS4AFt6zdEqQYhJOndI7OjpJHfqJEyemREuS9ePHj99zgAWpAiy4UK/u2RMHMNkRPT/qFVxNq57AKBQHZLkAWGgPsgDL+7gGPmTRoLzSeZoKcp9ohc1vAUv2AKsmoKWo0jVr2lasyB6wSkhAUWFh4cuWAYsPWdgj+Fm6ViQeX7z4hc8ofkGCK7biOR3dgNgGFW3C4cvv6g+fYrhYNmIbgiPXDFwsRpuQ72bZj2U4eoX99/5u97VUKex2XCuDDCw2ZDEAi9UmBNwxPnzFPFbc3rB7n06nYR338RPOFcHTCcBTOt2zgIWThCoAC9XSsi8CWPIjZDU2NoYBVsmqr2dAFg+wAFIswFLvYm2NyjDFP1VYF1cFWWjt0czVb2zCFdqGtzSDojT2zwlYssq9KiwUgIW5qAk3AUsefi8sKmJlbtH1+fPmPRsHMNnR/AULfqXlcnWdPn3IbcCCKs/yFxv/UYe1PYVd5y8x5rCcCy3Dl7oG2XB1X0OXnVgGOYUd8hCwoDP4EK3nAZYYdncAWAKyAnYAC68N96mnt9fRB31nZ6dOEg4VfZ0FLMZJQgFYyl0sfrsQ93FvKD00h6BoXIKrJBerQUCWTcDCvXwDWA5dLCheu3nz027DVXVNzSS1+DBXxYaq9etf1LHyButsEMFgMNxeWVpaikF2OEFQVoAWgdJdQFS4cmW+e4AlIAuAhddj//wtXrwkZBewnnnmGbQYs+rQisLYBj5gQd+OfCBgws3Yhnlv3lDZJhQ6c/ac/mVLsQzX7ewb5MQu2Bxw52vfgQNcBwsC6DgGLJSNfCy8DgALwp8DTgGrvb0dgHVHJ07MApbxSUIBWH5xsRKKU05W2ClY0TB7hFyquARWkoslQZZ1wEJ70DeAJWaxbEDWpk2bpgbJAUK1tZtdmcmi+wSqKLsK90ySIVAFg+WJ7KpSIYIsQ4dn3bqyCboGEAa4EvK7owX4SYYh2jEYdRmwhGiIvUyzUDS0HrUIV8jIAmBB8YKCF/K0XK22tvYiFbNY4QvvMWDD1p5CxDYoB6z5h7r4cGVx3yBiGdAOTEBR1gEWxAUsxjzWhAXAAlglK0ZtvjkOAAsScCWBVs4D1pEjR8+mA6xwWC1gofbs3fuZQ8ASOVk0ON8aCvEdrV27duU379w5SnBlAFYGLpYMWXzAAkT5CrC2bt06BycKuYBFK2sAPbKw8+9Tcp/KbMUwUNp6dXXNDYIrXajqjhDRQO6TBFQpFUcEg1E0Q9J1iGIAXEmgVWSUQTXB0ypDFcsqnhYjnsEAhJbNUQFYy5fDweIXZqnmU/yCFcDC3FYCsOj04fO5Hd0wOipiG1zVD/v4rs6fnOLHNvxw6KZSF6ttcERZLEPZwNjv24FZDViYhWIAFnseyx5gQWfGlQCW0B3QOnmyPUyOV8BMbWZq46jtLmkKK9zaGjl8+DAginGSUB1gERgViROFDrVz506d5qf05ubmyZ07d48279oV2bXr1crm3bsDzc3Qrsi0micam5riuHZaTQy4Ei4WC7IEYPHbgxDuP07q27Zjx9C27dsj27bxtWXbtpnacrcAVBZzsbAmR4AVLUc2FQ2mf0qwFcKKmrStwOqNlQRQ0XT3ROuPdv6RSszgChBm2HIqCwaj0vUyYKVqG2IfodJlxatoT2GaeIbUgFW4IuIFYKmYxwJYJaugYGFEy9XCwLuKNuHwZWuxDX9pLbZB2RzW9/ecZLtXXzz8tpV9g9MtwRwALLyWG4CFIlgL0mwVI6KhX4CVBFkhJ4B1UrQJTUWQBR33UnjdsGrAgoxBSz1goVr27XvDKWTt3r0bsGRDMmDxXSwo1Ng4wQQsABRLBDwAGyUCZBm0CkMpoAptwORWHYCHKwybx2iOagIQRQ5VpKq6ZhT/TRA2yb0H4CrR1kMYqBFkwd0ybJsReM2BuyU9BwADoDISXu+3muJCbAS9j7hJPIPB6b9AzC+AhVqEeSwL7UFZCxYsKNNyteiD/wNngOU8tuE+C3sK8wY/RmyD64AVOj2gbN9g/dBFAQsK4Ar39QqwIBZg8YM/+yOJe6Q5QdiTSnFKY8+zC1gdHcLF8h1o0etFvAAsE9DCIQi1gCWysfa9bxeydpMASh4Aluxi4bmjTMDyHK74gCXCR68mQZUsAI+XEnCVkFhdQ1CSDFpoG5q1mbAW52QKKKP7lJgBFq4Ja8oLLtbqqAFgmcPQiqKQXwBLzGPx24NCTz31lP7kk0/Gcjq6YQxQpECWYhu6f2k3tsEVwPpmwzE2YH3p2Lvsv9f3e6KAoKwBrP6BgXMijNRAgCG3AAvV29c3IVbtmJwglNU9HbnwmQ3AktuEvgOtDACWDFpyVEOfprBoWP0TG5AFSPIQsISLhedFmTNYeB4XrjIGWCgCrGgKuAJ0ZRSukl0sCLAFyAJcwaHSTIquiaVuK64xc7HicJc0DwqLnO0A1s8Q2eAaYL2gE+DQQH2gWLNZACSaqYpx24P477lz5+pPPPHElJ6ZN29cy9USewpd1u7zVy04PXZjG5xDVrCtl79vsKnH0r7BI4NnAQkqAQtg4h5g9Q9E8FgayHIVsDCwTveJJ93P8AQhFIn0AKwEJHV1nY7YBayTJ08CZuwqJwELghDVQO6SDvChBHZV70dENxBkTe7Zs5cLV0hYByQ5FQDIkkKh0A0Lpwh9AVdT2rJ1SEMxIIsLWOrhSghwJURzWZ+lgyvMZeF5JvdLBVdwt6Kah1VcvHrcIJ7BVIWFK/MdARadUCwoKBDwQ9ELdh0sMY/FaA/KcCX0/IKC3I1uQGyDu21CEdugbk+h8zYhYhksDbY/cILf+nyu94qABIWQBYfHdcBKA1mAOh5g8eexSu5Kh09ys1KAlSRAVnfADmAhuT0BS74CLVprdTEDgIVWIJwr7ArEbBOGxyGc1BvS1BfiG6KALOZQu9eAheujFnOwMg5XdSS0/zZtrpNcSDZkeQFX6U4JwrUCFMHNmkgHV6h1ZdPRDMZakxqw1q71ND6A3ksgRTwDI1ZhedQOYAGs6PSf1K5zDlgoun84XXtQQJWsuXPjBHy5Gd2APYUKAAt7ClXHNgCwPIlluN9aLIPRTJEvBtwZgGUGWfg+G7D481h9o9IKHjHgTi4VgMhQp06dYkU34FqDNqGvQAtZVR4AFoAKif46LWEGVEFwrQBXYngcThEFgyptEcoZWYAsL+AK4sNVc8hikjuyrzIFV/KgOgHWZvbPFKW1t7AH3NXDlWgTUp4Va2EwAVg+npNOODWYDFeIUdAyUBQdEUvAFd4Td24K1+ZZACwJrNwHLBQNrX+UcKqEEvNWACkz0TVP5250A2U0/bfbgAU9MWBhT2HHDcATd0+hkxYhYhms7Bu0FMtQdea82cm4rAEsE8hyHbBQlDA/iXtCPSQCJ7TxEAwKmUNWV9e4dcASbULfgFZra6tSwDp48PCQACpJ5FQJuKJIAwEhBDbS+1ENWQcClJMVZ5wYdCpOS3Cywd4uQk/hCqf/KAJBnqGyBVio2rq6fAK0zzMOVyLn6kV2bAJOFuJ5DEnD7Yhm8L7InQuli2fgRzbIgPVCcotOOWBhHuvpp5+OEVAl4GoeBtkBUPgK0BJ6kjSXvkctQyG6vkfLxXK4p9C12IavRPixDRvPRm0D1nd3tvH3DYYvsd//33VdA0TlDGAZQBYWQLsNWGgV5hFk3U6AFSTW2iQkgAvtPRmWTp8+HWIAllGb0BegBWdJJWDRbFUkBVwJgEkIzhUDsJTPZV2ThtrdFE4FmsJVA6W8I+1dQ1kELNybAVdqoMo5YInMKsq2imQSroLl5VFGS1COZtCZEsPuRUUrYxqj1EY2iHgGruIp56ECgU9pHY00XO4NYKEWLFqUD5iCHn/8cf3Rxx7Tf/KTn3BF7/u5gJaLRafIhlS4WMXD19iA8oX2G9ZjGy5c8E0sQ1PPm4zwzOwCLLTrZrYJh1wGLDH0XgmIEjJ3mGTgind2ducxAIvRJvQetI4ePeo5YO3fvx9ABfkKsO64WS15NGj/Cd6HV4CFWStSnoOl0b9Ge5ABVyqgig9YfNBC4nrUS7gqKwtOUHvS6gctZq96RJQDQwQ3rGgG9ZBVMgrAsh6vMDOyYf78ggkBTxkALBTNU4XhUv30pz8FNOErxAKsRx99LEbvKTejG8bGxm67DVjQ17o+UBLbsHLkuuU5rEd2tLIB66Hj/CXW/9l1RadsJhE5YKKsAiwDyML3XAcsVGdX12gCrsTeQIbgdtH1HZMWAUu4ZIrFca88BSyCF8CUrwErCVp+RM7QTUpRv432GzlLybINWHyw4he9x1tuwlUdSYIqBYDFBK2amlECn7giuIoHyyvIsarMdwAqsaRgUs5sFzOaQX1kgx3ACgR+NulHwEJRu+9jGZ4e47lZ5H49lZvRDYhtcBuwLl++rDeOXFYZ2+CDWIYP9fa+wSnAikQifMDyPgMLg+O3acbm6ykAK4zHuZCVSFoPa+4XYGhScrC4AjTlGdwzngqw2kWb0BMZnRy8A1hHj4ZVAxa5QgApJmDtDWs+Klp7UwkYItCKwSlKKBEGmgj4JOhKgJgpYBG0jdO/hRCjFciu+oaG/5HgShFU8bW57uWTmnsF2Kqk3YFRpLY7gCuspImVT0HViyHRCrRZa2nvIOAKkoJJzYTYh5uaD4pOBv7KCly9MH0iMD7TPVo47g/AWjiHgCqW2qV61Ayw4HbFtVwtCnM7g3/caSTs6nTCslCcaPmb1wbZwPLFE9fYgLXs57v0WtryvqGqihaEGmnDlP616hV2LMMfHOfvVfxew+Gp+5eXl0NTf++K9esNhV96FRXrU6jiLm2uq7tIR+e3GqieQiC3QgdkHZipfQkJuEpRfQMDgSn1pRZBVZA2AAQggqwiTVHhVCApANFMVjGBUICj9lOn8k2gLQ/365yponY8F2rnqJ0ng92EJ060B+VdhK2tx4qpRRiANJQ6wJpDPwtBgqyAkSj3qnhPS0sgIV/PQzQ27s6j5c0ltGMwQif9LpN7NCGLgOdTAq//JZj6hH72h2hfYQgLnzVFBVhraGgMQARxxdtfeSUwpe3pRYGgQUpWD6TSZiNt5mjzg5qKErNatQFytyIQ1uLIIhC7RfNUt9avf3GofP36yIsbNpRUVGxw/Vh+WVlFfjBYEaAU9ymVlZUXEbwFplUxpeDd8s3P97JlmMUqDszUihlaunR5cMmSpQFS/sxB82Vzftfe3b3YtMZxAH+KOSc3zrk5F6fTKSTlQrkZoTRT0kyzZhd5i1yMjPLaKCSRRFy4Um6IvBSlXJiG4sJbXnIjcUO50PgP/AfbPGQjo1l7rIe11/586tc07do9l99+z9rfFT/7MkMfZ+d4s/PThETiVd/YQ/a7xptNmzfvHxz725jBxsT/14aq6unpmVGr1epFz9L1A01tsWbffTdhuFo4/KypM/SuWFnvOH5lwoA1tYnt1bRrL+N3Fz79/f2jXV1dfwcAoBqyLDucIjTMOXo6/3sKR95MXNewfU/zZ9hxcKJahqaC4OItu1MFrOUBAKiOuDmJG5SiQ0PvqjVx45M7vPx3+8dXhUvOXJ/0OaYdvfDDgPXH1ef5rzLP34vfl2IeBACgemq12kCK8DB/77HcAWbqzbfj1jZ03h+t923YOOkzdA5sK6KWIV57JglYfX198wMAUE1xk5IgQMTNT+4Q88/I6+8CVveJsz9/hgOnvgtYHddz/9oxXnemuhq8GACA6sqyrDtBiIjPLTW1KZr76Ettw4Jbr+rZ6rU//9D96nXfhKsp5x7kPk/HyJt43ZkiXL33YDsAtIG4UUkRsv4/eS13oPlr+FUjYC3bfaiwM8waOtKoZZhyI3epaLzmTLK9ij8uCABA9cXahrhZSVDbEDdBuUPNzDvv6ouuPizyDI3ahj8vPcl9jumXnyarZQgAQPtIVdvQOXQwPo+Va/69/KTeO7it8DPM27qvPv3S49zn6Nq4NdX2qjsAAO3lc22DUcsAABQkFl+WJIxUbuI1bAAA2lPctJQllFRlxoLryQAAtK9YgFmWYFKFUcsAADRqG8oSUFp9siwrzdvcAYAcEr+n8H1ZQkoLz4sAAPBZ3LyUJKS07KhlAADUNhQ7wwEAYLz3FJYkrLTcqGUAANQ2eN8gAPCrxE1MWYJLK4xaBgAgl1iUWZYA0wIzEAAA1DZ43yAA8BvEzUxJQkxpRy0DANC0WJxZljBTtont9wEAQG1DcQ+2q2UAACYtFmiWJdiUZdQyAABqG4rdXo0GAIAiHnj3q8JP4cqD7QAAAAAAAAAAAAAAAAAAAAAAAAAAAAAAAAAAAAAAAAAAAAAAAAAAAAAAAAAAAAAAAAAAAAAAAAAAAAAAAAAAAAAAAMDXPgC6LtP/EWPBbgAAAABJRU5ErkJggg==;" vertex="1" parent="L0ZQ6DjtJ8MIK-CHPv04-27">
          <mxGeometry x="42.82193548387097" y="27.963933738729292" width="194.36516129032256" height="56.045161290322575" as="geometry" />
        </mxCell>
        <mxCell id="L0ZQ6DjtJ8MIK-CHPv04-60" value="Text" style="text;html=1;align=center;verticalAlign=middle;whiteSpace=wrap;rounded=0;" vertex="1" parent="L0ZQ6DjtJ8MIK-CHPv04-27">
          <mxGeometry x="112.90322580645162" y="90.01" width="54.193548387096776" height="30" as="geometry" />
        </mxCell>
        <mxCell id="L0ZQ6DjtJ8MIK-CHPv04-33" value="" style="image;sketch=0;aspect=fixed;html=1;points=[];align=center;fontSize=12;image=img/lib/mscae/Docker.svg;" vertex="1" parent="1">
          <mxGeometry x="524" y="30" width="121.95" height="100" as="geometry" />
        </mxCell>
        <mxCell id="L0ZQ6DjtJ8MIK-CHPv04-68" value="" style="group" vertex="1" connectable="0" parent="1">
          <mxGeometry x="260" y="590" width="190" height="210" as="geometry" />
        </mxCell>
        <mxCell id="L0ZQ6DjtJ8MIK-CHPv04-56" value="" style="fillColor=#F6F6F6;strokeColor=none;shadow=0;gradientColor=none;fontSize=14;align=left;spacing=10;fontColor=#717171;9E9E9E;verticalAlign=top;spacingTop=-4;fontStyle=0;spacingLeft=40;html=1;" vertex="1" parent="L0ZQ6DjtJ8MIK-CHPv04-68">
          <mxGeometry width="190" height="210" as="geometry" />
        </mxCell>
        <mxCell id="L0ZQ6DjtJ8MIK-CHPv04-54" value="" style="image;aspect=fixed;html=1;points=[];align=center;fontSize=12;image=img/lib/azure2/databases/Azure_Database_PostgreSQL_Server.svg;" vertex="1" parent="L0ZQ6DjtJ8MIK-CHPv04-68">
          <mxGeometry x="68.75" y="10" width="52.5" height="70" as="geometry" />
        </mxCell>
        <mxCell id="L0ZQ6DjtJ8MIK-CHPv04-63" value="&lt;h1 style=&quot;margin-top: 0px;&quot;&gt;Keycloak DB&lt;/h1&gt;&lt;p&gt;Lorem ipsum dolor sit amet, consectetur adipisicing elit, sed do eiusmod tempor incididunt ut labore et dolore magna aliqua.&lt;/p&gt;" style="text;html=1;whiteSpace=wrap;overflow=hidden;rounded=0;" vertex="1" parent="L0ZQ6DjtJ8MIK-CHPv04-68">
          <mxGeometry x="10" y="80" width="170" height="120" as="geometry" />
        </mxCell>
        <mxCell id="L0ZQ6DjtJ8MIK-CHPv04-69" value="" style="group" vertex="1" connectable="0" parent="1">
          <mxGeometry x="770" y="590" width="210" height="220" as="geometry" />
        </mxCell>
        <mxCell id="L0ZQ6DjtJ8MIK-CHPv04-58" value="" style="fillColor=#F6F6F6;strokeColor=none;shadow=0;gradientColor=none;fontSize=14;align=left;spacing=10;fontColor=#717171;9E9E9E;verticalAlign=top;spacingTop=-4;fontStyle=0;spacingLeft=40;html=1;" vertex="1" parent="L0ZQ6DjtJ8MIK-CHPv04-69">
          <mxGeometry width="210" height="220" as="geometry" />
        </mxCell>
        <mxCell id="L0ZQ6DjtJ8MIK-CHPv04-55" value="" style="image;sketch=0;aspect=fixed;html=1;points=[];align=center;fontSize=12;image=img/lib/mscae/Azure_Database_for_PostgreSQL_servers.svg;" vertex="1" parent="L0ZQ6DjtJ8MIK-CHPv04-69">
          <mxGeometry x="72.10000000000002" y="10" width="65.8" height="86.58" as="geometry" />
        </mxCell>
        <mxCell id="L0ZQ6DjtJ8MIK-CHPv04-64" value="&lt;h1 style=&quot;margin-top: 0px;&quot;&gt;Core DB&lt;/h1&gt;&lt;p&gt;Lorem ipsum dolor sit amet, consectetur adipisicing elit, sed do eiusmod tempor incididunt ut labore et dolore magna aliqua.&lt;/p&gt;" style="text;html=1;whiteSpace=wrap;overflow=hidden;rounded=0;" vertex="1" parent="L0ZQ6DjtJ8MIK-CHPv04-69">
          <mxGeometry x="20" y="96.58000000000004" width="180" height="120" as="geometry" />
        </mxCell>
        <mxCell id="L0ZQ6DjtJ8MIK-CHPv04-72" value="" style="group" vertex="1" connectable="0" parent="1">
          <mxGeometry x="830" y="220" width="290" height="270" as="geometry" />
        </mxCell>
        <mxCell id="L0ZQ6DjtJ8MIK-CHPv04-43" value="" style="fillColor=#F6F6F6;strokeColor=none;shadow=0;gradientColor=none;fontSize=14;align=left;spacing=10;fontColor=#717171;9E9E9E;verticalAlign=top;spacingTop=-4;fontStyle=0;spacingLeft=40;html=1;" vertex="1" parent="L0ZQ6DjtJ8MIK-CHPv04-72">
          <mxGeometry width="290" height="270" as="geometry" />
        </mxCell>
        <mxCell id="L0ZQ6DjtJ8MIK-CHPv04-62" value="&lt;h1 style=&quot;margin-top: 0px;&quot;&gt;Angular Front-end layer&lt;/h1&gt;&lt;div&gt;This layer...&lt;/div&gt;&lt;div&gt;&lt;br&gt;&lt;/div&gt;" style="text;html=1;whiteSpace=wrap;overflow=hidden;rounded=0;" vertex="1" parent="L0ZQ6DjtJ8MIK-CHPv04-72">
          <mxGeometry x="6.170212765957447" y="130" width="277.65957446808505" height="130" as="geometry" />
        </mxCell>
        <mxCell id="L0ZQ6DjtJ8MIK-CHPv04-65" value="" style="shape=image;html=1;verticalAlign=top;verticalLabelPosition=bottom;labelBackgroundColor=#ffffff;imageAspect=0;aspect=fixed;image=https://cdn0.iconfinder.com/data/icons/long-shadow-web-icons/512/angular-symbol-128.png" vertex="1" parent="L0ZQ6DjtJ8MIK-CHPv04-72">
          <mxGeometry x="114.76595744680849" y="10" width="51.01994680851063" height="51.01994680851063" as="geometry" />
        </mxCell>
      </root>
    </mxGraphModel>
  </diagram>
</mxfile>
